G04 #@! TF.GenerationSoftware,KiCad,Pcbnew,(5.0.2)-1*
G04 #@! TF.CreationDate,2019-04-01T14:51:39+03:00*
G04 #@! TF.ProjectId,vent_sys,76656e74-5f73-4797-932e-6b696361645f,rev?*
G04 #@! TF.SameCoordinates,Original*
G04 #@! TF.FileFunction,Copper,L1,Top*
G04 #@! TF.FilePolarity,Positive*
%FSLAX46Y46*%
G04 Gerber Fmt 4.6, Leading zero omitted, Abs format (unit mm)*
G04 Created by KiCad (PCBNEW (5.0.2)-1) date 01.04.2019 14:51:39*
%MOMM*%
%LPD*%
G01*
G04 APERTURE LIST*
G04 #@! TA.AperFunction,ComponentPad*
%ADD10C,1.524000*%
G04 #@! TD*
G04 #@! TA.AperFunction,ComponentPad*
%ADD11R,1.524000X1.524000*%
G04 #@! TD*
G04 #@! TA.AperFunction,ComponentPad*
%ADD12O,2.400000X1.600000*%
G04 #@! TD*
G04 #@! TA.AperFunction,ComponentPad*
%ADD13R,2.400000X1.600000*%
G04 #@! TD*
G04 #@! TA.AperFunction,ComponentPad*
%ADD14C,2.000000*%
G04 #@! TD*
G04 #@! TA.AperFunction,ComponentPad*
%ADD15O,3.600000X1.800000*%
G04 #@! TD*
G04 #@! TA.AperFunction,Conductor*
%ADD16C,0.100000*%
G04 #@! TD*
G04 #@! TA.AperFunction,ComponentPad*
%ADD17C,1.800000*%
G04 #@! TD*
G04 #@! TA.AperFunction,ComponentPad*
%ADD18O,3.016000X1.508000*%
G04 #@! TD*
G04 #@! TA.AperFunction,ComponentPad*
%ADD19O,2.000000X1.905000*%
G04 #@! TD*
G04 #@! TA.AperFunction,ComponentPad*
%ADD20R,2.000000X1.905000*%
G04 #@! TD*
G04 #@! TA.AperFunction,ComponentPad*
%ADD21O,1.600000X1.600000*%
G04 #@! TD*
G04 #@! TA.AperFunction,ComponentPad*
%ADD22C,1.600000*%
G04 #@! TD*
G04 #@! TA.AperFunction,ComponentPad*
%ADD23R,1.600000X1.600000*%
G04 #@! TD*
G04 APERTURE END LIST*
D10*
G04 #@! TO.P,U2,40*
G04 #@! TO.N,Net-(U2-Pad39)*
X122682000Y-52578000D03*
G04 #@! TO.P,U2,39*
X122682000Y-55118000D03*
G04 #@! TO.P,U2,38*
G04 #@! TO.N,VCC*
X122682000Y-57658000D03*
G04 #@! TO.P,U2,37*
G04 #@! TO.N,Net-(U2-Pad37)*
X122682000Y-60198000D03*
G04 #@! TO.P,U2,36*
G04 #@! TO.N,Net-(U2-Pad36)*
X122682000Y-62738000D03*
G04 #@! TO.P,U2,35*
G04 #@! TO.N,Net-(U2-Pad35)*
X122682000Y-65278000D03*
G04 #@! TO.P,U2,34*
G04 #@! TO.N,Net-(U2-Pad34)*
X122682000Y-67818000D03*
G04 #@! TO.P,U2,33*
G04 #@! TO.N,Net-(U2-Pad33)*
X122682000Y-70358000D03*
G04 #@! TO.P,U2,32*
G04 #@! TO.N,/MOSI*
X122682000Y-72898000D03*
G04 #@! TO.P,U2,31*
G04 #@! TO.N,/MISO*
X122682000Y-75438000D03*
G04 #@! TO.P,U2,30*
G04 #@! TO.N,/SCK*
X122682000Y-77978000D03*
G04 #@! TO.P,U2,29*
G04 #@! TO.N,/NSS*
X122682000Y-80518000D03*
G04 #@! TO.P,U2,28*
G04 #@! TO.N,/DIO1*
X122682000Y-83058000D03*
G04 #@! TO.P,U2,27*
G04 #@! TO.N,/nIRQ*
X122682000Y-85598000D03*
G04 #@! TO.P,U2,26*
G04 #@! TO.N,/Reset*
X122682000Y-88138000D03*
G04 #@! TO.P,U2,25*
G04 #@! TO.N,Net-(U2-Pad25)*
X122682000Y-90678000D03*
G04 #@! TO.P,U2,24*
G04 #@! TO.N,Net-(R6-Pad1)*
X122682000Y-93218000D03*
G04 #@! TO.P,U2,23*
G04 #@! TO.N,Net-(U2-Pad23)*
X122682000Y-95758000D03*
G04 #@! TO.P,U2,22*
G04 #@! TO.N,Net-(U2-Pad22)*
X122682000Y-98298000D03*
G04 #@! TO.P,U2,21*
G04 #@! TO.N,Net-(U2-Pad21)*
X122682000Y-100838000D03*
G04 #@! TO.P,U2,20*
G04 #@! TO.N,VCC*
X107442000Y-100838000D03*
G04 #@! TO.P,U2,19*
G04 #@! TO.N,GND*
X107442000Y-98298000D03*
G04 #@! TO.P,U2,18*
G04 #@! TO.N,Net-(U2-Pad18)*
X107442000Y-95758000D03*
G04 #@! TO.P,U2,17*
G04 #@! TO.N,Net-(U2-Pad17)*
X107442000Y-93218000D03*
G04 #@! TO.P,U2,16*
G04 #@! TO.N,Net-(U2-Pad16)*
X107442000Y-90678000D03*
G04 #@! TO.P,U2,15*
G04 #@! TO.N,Net-(U2-Pad15)*
X107442000Y-88138000D03*
G04 #@! TO.P,U2,14*
G04 #@! TO.N,Net-(U2-Pad14)*
X107442000Y-85598000D03*
G04 #@! TO.P,U2,13*
G04 #@! TO.N,Net-(U2-Pad13)*
X107442000Y-83058000D03*
G04 #@! TO.P,U2,12*
G04 #@! TO.N,Net-(U2-Pad12)*
X107442000Y-80518000D03*
G04 #@! TO.P,U2,11*
G04 #@! TO.N,Net-(U2-Pad11)*
X107442000Y-77978000D03*
G04 #@! TO.P,U2,10*
G04 #@! TO.N,Net-(U2-Pad10)*
X107442000Y-75438000D03*
G04 #@! TO.P,U2,9*
G04 #@! TO.N,Net-(U2-Pad9)*
X107442000Y-72898000D03*
G04 #@! TO.P,U2,8*
G04 #@! TO.N,Net-(U2-Pad8)*
X107442000Y-70358000D03*
G04 #@! TO.P,U2,7*
G04 #@! TO.N,Net-(U2-Pad7)*
X107442000Y-67818000D03*
G04 #@! TO.P,U2,6*
G04 #@! TO.N,Net-(U2-Pad6)*
X107442000Y-65278000D03*
G04 #@! TO.P,U2,5*
G04 #@! TO.N,Net-(U2-Pad5)*
X107442000Y-62738000D03*
G04 #@! TO.P,U2,4*
G04 #@! TO.N,Net-(U2-Pad4)*
X107442000Y-60198000D03*
G04 #@! TO.P,U2,3*
G04 #@! TO.N,Net-(U2-Pad3)*
X107442000Y-57658000D03*
G04 #@! TO.P,U2,2*
G04 #@! TO.N,Net-(U2-Pad2)*
X107442000Y-55118000D03*
D11*
G04 #@! TO.P,U2,1*
G04 #@! TO.N,Net-(R5-Pad2)*
X107442000Y-52578000D03*
G04 #@! TD*
D12*
G04 #@! TO.P,U3,6*
G04 #@! TO.N,Net-(R7-Pad1)*
X95123000Y-95123000D03*
G04 #@! TO.P,U3,3*
G04 #@! TO.N,Net-(U3-Pad3)*
X102743000Y-90043000D03*
G04 #@! TO.P,U3,5*
G04 #@! TO.N,Net-(U3-Pad5)*
X95123000Y-92583000D03*
G04 #@! TO.P,U3,2*
G04 #@! TO.N,GND*
X102743000Y-92583000D03*
G04 #@! TO.P,U3,4*
G04 #@! TO.N,Net-(Q1-Pad3)*
X95123000Y-90043000D03*
D13*
G04 #@! TO.P,U3,1*
G04 #@! TO.N,Net-(R6-Pad2)*
X102743000Y-95123000D03*
G04 #@! TD*
D14*
G04 #@! TO.P,C1,2*
G04 #@! TO.N,Net-(C1-Pad2)*
X65532000Y-86988000D03*
G04 #@! TO.P,C1,1*
G04 #@! TO.N,Net-(C1-Pad1)*
X65532000Y-94488000D03*
G04 #@! TD*
D15*
G04 #@! TO.P,J1,2*
G04 #@! TO.N,/L*
X64770000Y-59690000D03*
D16*
G04 #@! TD*
G04 #@! TO.N,/N*
G04 #@! TO.C,J1*
G36*
X66344504Y-63871204D02*
X66368773Y-63874804D01*
X66392571Y-63880765D01*
X66415671Y-63889030D01*
X66437849Y-63899520D01*
X66458893Y-63912133D01*
X66478598Y-63926747D01*
X66496777Y-63943223D01*
X66513253Y-63961402D01*
X66527867Y-63981107D01*
X66540480Y-64002151D01*
X66550970Y-64024329D01*
X66559235Y-64047429D01*
X66565196Y-64071227D01*
X66568796Y-64095496D01*
X66570000Y-64120000D01*
X66570000Y-65420000D01*
X66568796Y-65444504D01*
X66565196Y-65468773D01*
X66559235Y-65492571D01*
X66550970Y-65515671D01*
X66540480Y-65537849D01*
X66527867Y-65558893D01*
X66513253Y-65578598D01*
X66496777Y-65596777D01*
X66478598Y-65613253D01*
X66458893Y-65627867D01*
X66437849Y-65640480D01*
X66415671Y-65650970D01*
X66392571Y-65659235D01*
X66368773Y-65665196D01*
X66344504Y-65668796D01*
X66320000Y-65670000D01*
X63220000Y-65670000D01*
X63195496Y-65668796D01*
X63171227Y-65665196D01*
X63147429Y-65659235D01*
X63124329Y-65650970D01*
X63102151Y-65640480D01*
X63081107Y-65627867D01*
X63061402Y-65613253D01*
X63043223Y-65596777D01*
X63026747Y-65578598D01*
X63012133Y-65558893D01*
X62999520Y-65537849D01*
X62989030Y-65515671D01*
X62980765Y-65492571D01*
X62974804Y-65468773D01*
X62971204Y-65444504D01*
X62970000Y-65420000D01*
X62970000Y-64120000D01*
X62971204Y-64095496D01*
X62974804Y-64071227D01*
X62980765Y-64047429D01*
X62989030Y-64024329D01*
X62999520Y-64002151D01*
X63012133Y-63981107D01*
X63026747Y-63961402D01*
X63043223Y-63943223D01*
X63061402Y-63926747D01*
X63081107Y-63912133D01*
X63102151Y-63899520D01*
X63124329Y-63889030D01*
X63147429Y-63880765D01*
X63171227Y-63874804D01*
X63195496Y-63871204D01*
X63220000Y-63870000D01*
X66320000Y-63870000D01*
X66344504Y-63871204D01*
X66344504Y-63871204D01*
G37*
D17*
G04 #@! TO.P,J1,1*
G04 #@! TO.N,/N*
X64770000Y-64770000D03*
G04 #@! TD*
D15*
G04 #@! TO.P,J2,2*
G04 #@! TO.N,/N*
X64770000Y-75057000D03*
D16*
G04 #@! TD*
G04 #@! TO.N,Net-(C1-Pad2)*
G04 #@! TO.C,J2*
G36*
X66344504Y-79238204D02*
X66368773Y-79241804D01*
X66392571Y-79247765D01*
X66415671Y-79256030D01*
X66437849Y-79266520D01*
X66458893Y-79279133D01*
X66478598Y-79293747D01*
X66496777Y-79310223D01*
X66513253Y-79328402D01*
X66527867Y-79348107D01*
X66540480Y-79369151D01*
X66550970Y-79391329D01*
X66559235Y-79414429D01*
X66565196Y-79438227D01*
X66568796Y-79462496D01*
X66570000Y-79487000D01*
X66570000Y-80787000D01*
X66568796Y-80811504D01*
X66565196Y-80835773D01*
X66559235Y-80859571D01*
X66550970Y-80882671D01*
X66540480Y-80904849D01*
X66527867Y-80925893D01*
X66513253Y-80945598D01*
X66496777Y-80963777D01*
X66478598Y-80980253D01*
X66458893Y-80994867D01*
X66437849Y-81007480D01*
X66415671Y-81017970D01*
X66392571Y-81026235D01*
X66368773Y-81032196D01*
X66344504Y-81035796D01*
X66320000Y-81037000D01*
X63220000Y-81037000D01*
X63195496Y-81035796D01*
X63171227Y-81032196D01*
X63147429Y-81026235D01*
X63124329Y-81017970D01*
X63102151Y-81007480D01*
X63081107Y-80994867D01*
X63061402Y-80980253D01*
X63043223Y-80963777D01*
X63026747Y-80945598D01*
X63012133Y-80925893D01*
X62999520Y-80904849D01*
X62989030Y-80882671D01*
X62980765Y-80859571D01*
X62974804Y-80835773D01*
X62971204Y-80811504D01*
X62970000Y-80787000D01*
X62970000Y-79487000D01*
X62971204Y-79462496D01*
X62974804Y-79438227D01*
X62980765Y-79414429D01*
X62989030Y-79391329D01*
X62999520Y-79369151D01*
X63012133Y-79348107D01*
X63026747Y-79328402D01*
X63043223Y-79310223D01*
X63061402Y-79293747D01*
X63081107Y-79279133D01*
X63102151Y-79266520D01*
X63124329Y-79256030D01*
X63147429Y-79247765D01*
X63171227Y-79241804D01*
X63195496Y-79238204D01*
X63220000Y-79237000D01*
X66320000Y-79237000D01*
X66344504Y-79238204D01*
X66344504Y-79238204D01*
G37*
D17*
G04 #@! TO.P,J2,1*
G04 #@! TO.N,Net-(C1-Pad2)*
X64770000Y-80137000D03*
G04 #@! TD*
D18*
G04 #@! TO.P,PS1,4*
G04 #@! TO.N,VCC*
X99917000Y-83392000D03*
G04 #@! TO.P,PS1,3*
G04 #@! TO.N,GND*
X99917000Y-67992000D03*
G04 #@! TO.P,PS1,2*
G04 #@! TO.N,/N*
X70517000Y-78192000D03*
G04 #@! TO.P,PS1,1*
G04 #@! TO.N,/L*
X70517000Y-73192000D03*
G04 #@! TD*
D19*
G04 #@! TO.P,Q1,3*
G04 #@! TO.N,Net-(Q1-Pad3)*
X80264000Y-89408000D03*
G04 #@! TO.P,Q1,2*
G04 #@! TO.N,/L*
X80264000Y-91948000D03*
D20*
G04 #@! TO.P,Q1,1*
G04 #@! TO.N,Net-(C1-Pad2)*
X80264000Y-94488000D03*
G04 #@! TD*
D21*
G04 #@! TO.P,R1,2*
G04 #@! TO.N,/L*
X72517000Y-51689000D03*
D22*
G04 #@! TO.P,R1,1*
G04 #@! TO.N,Net-(R1-Pad1)*
X82677000Y-51689000D03*
G04 #@! TD*
D21*
G04 #@! TO.P,R2,2*
G04 #@! TO.N,/L*
X72517000Y-55245000D03*
D22*
G04 #@! TO.P,R2,1*
G04 #@! TO.N,Net-(R1-Pad1)*
X82677000Y-55245000D03*
G04 #@! TD*
D21*
G04 #@! TO.P,R3,2*
G04 #@! TO.N,Net-(R3-Pad2)*
X82804000Y-62992000D03*
D22*
G04 #@! TO.P,R3,1*
G04 #@! TO.N,/N*
X72644000Y-62992000D03*
G04 #@! TD*
D21*
G04 #@! TO.P,R4,2*
G04 #@! TO.N,/N*
X72644000Y-59436000D03*
D22*
G04 #@! TO.P,R4,1*
G04 #@! TO.N,Net-(R3-Pad2)*
X82804000Y-59436000D03*
G04 #@! TD*
D21*
G04 #@! TO.P,R7,2*
G04 #@! TO.N,Net-(C1-Pad1)*
X62230000Y-86487000D03*
D22*
G04 #@! TO.P,R7,1*
G04 #@! TO.N,Net-(R7-Pad1)*
X62230000Y-96647000D03*
G04 #@! TD*
D21*
G04 #@! TO.P,R8,2*
G04 #@! TO.N,/L*
X71882000Y-87249000D03*
D22*
G04 #@! TO.P,R8,1*
G04 #@! TO.N,Net-(C1-Pad1)*
X71882000Y-97409000D03*
G04 #@! TD*
D21*
G04 #@! TO.P,R9,2*
G04 #@! TO.N,Net-(C2-Pad1)*
X89027000Y-99187000D03*
D22*
G04 #@! TO.P,R9,1*
G04 #@! TO.N,/L*
X89027000Y-89027000D03*
G04 #@! TD*
D21*
G04 #@! TO.P,U1,4*
G04 #@! TO.N,Net-(R5-Pad2)*
X100457000Y-52197000D03*
G04 #@! TO.P,U1,2*
G04 #@! TO.N,Net-(R3-Pad2)*
X92837000Y-54737000D03*
G04 #@! TO.P,U1,3*
G04 #@! TO.N,GND*
X100457000Y-54737000D03*
D23*
G04 #@! TO.P,U1,1*
G04 #@! TO.N,Net-(R1-Pad1)*
X92837000Y-52197000D03*
G04 #@! TD*
D22*
G04 #@! TO.P,C2,2*
G04 #@! TO.N,Net-(C1-Pad2)*
X77209000Y-98933000D03*
G04 #@! TO.P,C2,1*
G04 #@! TO.N,Net-(C2-Pad1)*
X84709000Y-98933000D03*
G04 #@! TD*
M02*
