G04 #@! TF.GenerationSoftware,KiCad,Pcbnew,(5.0.2)-1*
G04 #@! TF.CreationDate,2019-03-27T17:40:45+02:00*
G04 #@! TF.ProjectId,vent_sys,76656e74-5f73-4797-932e-6b696361645f,rev?*
G04 #@! TF.SameCoordinates,Original*
G04 #@! TF.FileFunction,Copper,L2,Bot*
G04 #@! TF.FilePolarity,Positive*
%FSLAX46Y46*%
G04 Gerber Fmt 4.6, Leading zero omitted, Abs format (unit mm)*
G04 Created by KiCad (PCBNEW (5.0.2)-1) date 27.03.2019 17:40:45*
%MOMM*%
%LPD*%
G01*
G04 APERTURE LIST*
G04 #@! TA.AperFunction,SMDPad,CuDef*
%ADD10R,1.500000X2.000000*%
G04 #@! TD*
G04 #@! TA.AperFunction,ComponentPad*
%ADD11C,2.000000*%
G04 #@! TD*
G04 #@! TA.AperFunction,ComponentPad*
%ADD12O,3.600000X1.800000*%
G04 #@! TD*
G04 #@! TA.AperFunction,Conductor*
%ADD13C,0.100000*%
G04 #@! TD*
G04 #@! TA.AperFunction,ComponentPad*
%ADD14C,1.800000*%
G04 #@! TD*
G04 #@! TA.AperFunction,ComponentPad*
%ADD15O,3.016000X1.508000*%
G04 #@! TD*
G04 #@! TA.AperFunction,ComponentPad*
%ADD16R,2.000000X1.905000*%
G04 #@! TD*
G04 #@! TA.AperFunction,ComponentPad*
%ADD17O,2.000000X1.905000*%
G04 #@! TD*
G04 #@! TA.AperFunction,ComponentPad*
%ADD18O,1.600000X1.600000*%
G04 #@! TD*
G04 #@! TA.AperFunction,ComponentPad*
%ADD19C,1.600000*%
G04 #@! TD*
G04 #@! TA.AperFunction,SMDPad,CuDef*
%ADD20C,1.150000*%
G04 #@! TD*
G04 #@! TA.AperFunction,ComponentPad*
%ADD21R,1.600000X1.600000*%
G04 #@! TD*
G04 #@! TA.AperFunction,ComponentPad*
%ADD22R,1.524000X1.524000*%
G04 #@! TD*
G04 #@! TA.AperFunction,ComponentPad*
%ADD23C,1.524000*%
G04 #@! TD*
G04 #@! TA.AperFunction,Conductor*
%ADD24C,1.000000*%
G04 #@! TD*
G04 #@! TA.AperFunction,Conductor*
%ADD25C,0.500000*%
G04 #@! TD*
G04 APERTURE END LIST*
D10*
G04 #@! TO.P,U4,16*
G04 #@! TO.N,Net-(U2-Pad39)*
X146192000Y-67692000D03*
G04 #@! TO.P,U4,15*
G04 #@! TO.N,/NSS*
X144192000Y-67692000D03*
G04 #@! TO.P,U4,14*
G04 #@! TO.N,/MOSI*
X142192000Y-67692000D03*
G04 #@! TO.P,U4,13*
G04 #@! TO.N,/MISO*
X140192000Y-67692000D03*
G04 #@! TO.P,U4,12*
G04 #@! TO.N,/SCK*
X138192000Y-67692000D03*
G04 #@! TO.P,U4,11*
G04 #@! TO.N,Net-(U4-Pad11)*
X136192000Y-67692000D03*
G04 #@! TO.P,U4,10*
G04 #@! TO.N,Net-(U4-Pad10)*
X134192000Y-67692000D03*
G04 #@! TO.P,U4,9*
G04 #@! TO.N,Net-(U4-Pad9)*
X132192000Y-67692000D03*
G04 #@! TO.P,U4,8*
G04 #@! TO.N,Net-(U4-Pad8)*
X132192000Y-83692000D03*
G04 #@! TO.P,U4,7*
G04 #@! TO.N,Net-(U4-Pad7)*
X134192000Y-83692000D03*
G04 #@! TO.P,U4,6*
G04 #@! TO.N,/DIO1*
X136192000Y-83692000D03*
G04 #@! TO.P,U4,5*
G04 #@! TO.N,/nIRQ*
X138192000Y-83692000D03*
G04 #@! TO.P,U4,4*
G04 #@! TO.N,/Reset*
X140192000Y-83692000D03*
G04 #@! TO.P,U4,3*
G04 #@! TO.N,VCC*
X142192000Y-83692000D03*
G04 #@! TO.P,U4,2*
G04 #@! TO.N,Net-(U4-Pad2)*
X144192000Y-83692000D03*
G04 #@! TO.P,U4,1*
G04 #@! TO.N,Net-(U4-Pad1)*
X146192000Y-83692000D03*
G04 #@! TD*
D11*
G04 #@! TO.P,C1,1*
G04 #@! TO.N,Net-(C1-Pad1)*
X67056000Y-94361000D03*
G04 #@! TO.P,C1,2*
G04 #@! TO.N,Net-(C1-Pad2)*
X67056000Y-86861000D03*
G04 #@! TD*
D12*
G04 #@! TO.P,J1,2*
G04 #@! TO.N,/L*
X65532000Y-59690000D03*
D13*
G04 #@! TD*
G04 #@! TO.N,/N*
G04 #@! TO.C,J1*
G36*
X67106504Y-63871204D02*
X67130773Y-63874804D01*
X67154571Y-63880765D01*
X67177671Y-63889030D01*
X67199849Y-63899520D01*
X67220893Y-63912133D01*
X67240598Y-63926747D01*
X67258777Y-63943223D01*
X67275253Y-63961402D01*
X67289867Y-63981107D01*
X67302480Y-64002151D01*
X67312970Y-64024329D01*
X67321235Y-64047429D01*
X67327196Y-64071227D01*
X67330796Y-64095496D01*
X67332000Y-64120000D01*
X67332000Y-65420000D01*
X67330796Y-65444504D01*
X67327196Y-65468773D01*
X67321235Y-65492571D01*
X67312970Y-65515671D01*
X67302480Y-65537849D01*
X67289867Y-65558893D01*
X67275253Y-65578598D01*
X67258777Y-65596777D01*
X67240598Y-65613253D01*
X67220893Y-65627867D01*
X67199849Y-65640480D01*
X67177671Y-65650970D01*
X67154571Y-65659235D01*
X67130773Y-65665196D01*
X67106504Y-65668796D01*
X67082000Y-65670000D01*
X63982000Y-65670000D01*
X63957496Y-65668796D01*
X63933227Y-65665196D01*
X63909429Y-65659235D01*
X63886329Y-65650970D01*
X63864151Y-65640480D01*
X63843107Y-65627867D01*
X63823402Y-65613253D01*
X63805223Y-65596777D01*
X63788747Y-65578598D01*
X63774133Y-65558893D01*
X63761520Y-65537849D01*
X63751030Y-65515671D01*
X63742765Y-65492571D01*
X63736804Y-65468773D01*
X63733204Y-65444504D01*
X63732000Y-65420000D01*
X63732000Y-64120000D01*
X63733204Y-64095496D01*
X63736804Y-64071227D01*
X63742765Y-64047429D01*
X63751030Y-64024329D01*
X63761520Y-64002151D01*
X63774133Y-63981107D01*
X63788747Y-63961402D01*
X63805223Y-63943223D01*
X63823402Y-63926747D01*
X63843107Y-63912133D01*
X63864151Y-63899520D01*
X63886329Y-63889030D01*
X63909429Y-63880765D01*
X63933227Y-63874804D01*
X63957496Y-63871204D01*
X63982000Y-63870000D01*
X67082000Y-63870000D01*
X67106504Y-63871204D01*
X67106504Y-63871204D01*
G37*
D14*
G04 #@! TO.P,J1,1*
G04 #@! TO.N,/N*
X65532000Y-64770000D03*
G04 #@! TD*
D13*
G04 #@! TO.N,Net-(C1-Pad2)*
G04 #@! TO.C,J2*
G36*
X67233504Y-79111204D02*
X67257773Y-79114804D01*
X67281571Y-79120765D01*
X67304671Y-79129030D01*
X67326849Y-79139520D01*
X67347893Y-79152133D01*
X67367598Y-79166747D01*
X67385777Y-79183223D01*
X67402253Y-79201402D01*
X67416867Y-79221107D01*
X67429480Y-79242151D01*
X67439970Y-79264329D01*
X67448235Y-79287429D01*
X67454196Y-79311227D01*
X67457796Y-79335496D01*
X67459000Y-79360000D01*
X67459000Y-80660000D01*
X67457796Y-80684504D01*
X67454196Y-80708773D01*
X67448235Y-80732571D01*
X67439970Y-80755671D01*
X67429480Y-80777849D01*
X67416867Y-80798893D01*
X67402253Y-80818598D01*
X67385777Y-80836777D01*
X67367598Y-80853253D01*
X67347893Y-80867867D01*
X67326849Y-80880480D01*
X67304671Y-80890970D01*
X67281571Y-80899235D01*
X67257773Y-80905196D01*
X67233504Y-80908796D01*
X67209000Y-80910000D01*
X64109000Y-80910000D01*
X64084496Y-80908796D01*
X64060227Y-80905196D01*
X64036429Y-80899235D01*
X64013329Y-80890970D01*
X63991151Y-80880480D01*
X63970107Y-80867867D01*
X63950402Y-80853253D01*
X63932223Y-80836777D01*
X63915747Y-80818598D01*
X63901133Y-80798893D01*
X63888520Y-80777849D01*
X63878030Y-80755671D01*
X63869765Y-80732571D01*
X63863804Y-80708773D01*
X63860204Y-80684504D01*
X63859000Y-80660000D01*
X63859000Y-79360000D01*
X63860204Y-79335496D01*
X63863804Y-79311227D01*
X63869765Y-79287429D01*
X63878030Y-79264329D01*
X63888520Y-79242151D01*
X63901133Y-79221107D01*
X63915747Y-79201402D01*
X63932223Y-79183223D01*
X63950402Y-79166747D01*
X63970107Y-79152133D01*
X63991151Y-79139520D01*
X64013329Y-79129030D01*
X64036429Y-79120765D01*
X64060227Y-79114804D01*
X64084496Y-79111204D01*
X64109000Y-79110000D01*
X67209000Y-79110000D01*
X67233504Y-79111204D01*
X67233504Y-79111204D01*
G37*
D14*
G04 #@! TD*
G04 #@! TO.P,J2,1*
G04 #@! TO.N,Net-(C1-Pad2)*
X65659000Y-80010000D03*
D12*
G04 #@! TO.P,J2,2*
G04 #@! TO.N,/N*
X65659000Y-74930000D03*
G04 #@! TD*
D15*
G04 #@! TO.P,PS1,1*
G04 #@! TO.N,/L*
X73184000Y-73192000D03*
G04 #@! TO.P,PS1,2*
G04 #@! TO.N,/N*
X73184000Y-78192000D03*
G04 #@! TO.P,PS1,3*
G04 #@! TO.N,GND*
X102584000Y-67992000D03*
G04 #@! TO.P,PS1,4*
G04 #@! TO.N,VCC*
X102584000Y-83392000D03*
G04 #@! TD*
D16*
G04 #@! TO.P,Q1,1*
G04 #@! TO.N,Net-(C1-Pad2)*
X80264000Y-94488000D03*
D17*
G04 #@! TO.P,Q1,2*
G04 #@! TO.N,/L*
X80264000Y-91948000D03*
G04 #@! TO.P,Q1,3*
G04 #@! TO.N,Net-(Q1-Pad3)*
X80264000Y-89408000D03*
G04 #@! TD*
D18*
G04 #@! TO.P,R1,2*
G04 #@! TO.N,/L*
X80772000Y-51816000D03*
D19*
G04 #@! TO.P,R1,1*
G04 #@! TO.N,Net-(R1-Pad1)*
X90932000Y-51816000D03*
G04 #@! TD*
D18*
G04 #@! TO.P,R2,2*
G04 #@! TO.N,/L*
X80772000Y-55372000D03*
D19*
G04 #@! TO.P,R2,1*
G04 #@! TO.N,Net-(R1-Pad1)*
X90932000Y-55372000D03*
G04 #@! TD*
G04 #@! TO.P,R3,1*
G04 #@! TO.N,/N*
X72644000Y-62992000D03*
D18*
G04 #@! TO.P,R3,2*
G04 #@! TO.N,Net-(R3-Pad2)*
X82804000Y-62992000D03*
G04 #@! TD*
D19*
G04 #@! TO.P,R4,1*
G04 #@! TO.N,Net-(R3-Pad2)*
X82804000Y-59436000D03*
D18*
G04 #@! TO.P,R4,2*
G04 #@! TO.N,/N*
X72644000Y-59436000D03*
G04 #@! TD*
D13*
G04 #@! TO.N,VCC*
G04 #@! TO.C,R5*
G36*
X107154505Y-49718204D02*
X107178773Y-49721804D01*
X107202572Y-49727765D01*
X107225671Y-49736030D01*
X107247850Y-49746520D01*
X107268893Y-49759132D01*
X107288599Y-49773747D01*
X107306777Y-49790223D01*
X107323253Y-49808401D01*
X107337868Y-49828107D01*
X107350480Y-49849150D01*
X107360970Y-49871329D01*
X107369235Y-49894428D01*
X107375196Y-49918227D01*
X107378796Y-49942495D01*
X107380000Y-49966999D01*
X107380000Y-50617001D01*
X107378796Y-50641505D01*
X107375196Y-50665773D01*
X107369235Y-50689572D01*
X107360970Y-50712671D01*
X107350480Y-50734850D01*
X107337868Y-50755893D01*
X107323253Y-50775599D01*
X107306777Y-50793777D01*
X107288599Y-50810253D01*
X107268893Y-50824868D01*
X107247850Y-50837480D01*
X107225671Y-50847970D01*
X107202572Y-50856235D01*
X107178773Y-50862196D01*
X107154505Y-50865796D01*
X107130001Y-50867000D01*
X106229999Y-50867000D01*
X106205495Y-50865796D01*
X106181227Y-50862196D01*
X106157428Y-50856235D01*
X106134329Y-50847970D01*
X106112150Y-50837480D01*
X106091107Y-50824868D01*
X106071401Y-50810253D01*
X106053223Y-50793777D01*
X106036747Y-50775599D01*
X106022132Y-50755893D01*
X106009520Y-50734850D01*
X105999030Y-50712671D01*
X105990765Y-50689572D01*
X105984804Y-50665773D01*
X105981204Y-50641505D01*
X105980000Y-50617001D01*
X105980000Y-49966999D01*
X105981204Y-49942495D01*
X105984804Y-49918227D01*
X105990765Y-49894428D01*
X105999030Y-49871329D01*
X106009520Y-49849150D01*
X106022132Y-49828107D01*
X106036747Y-49808401D01*
X106053223Y-49790223D01*
X106071401Y-49773747D01*
X106091107Y-49759132D01*
X106112150Y-49746520D01*
X106134329Y-49736030D01*
X106157428Y-49727765D01*
X106181227Y-49721804D01*
X106205495Y-49718204D01*
X106229999Y-49717000D01*
X107130001Y-49717000D01*
X107154505Y-49718204D01*
X107154505Y-49718204D01*
G37*
D20*
G04 #@! TD*
G04 #@! TO.P,R5,1*
G04 #@! TO.N,VCC*
X106680000Y-50292000D03*
D13*
G04 #@! TO.N,Net-(R5-Pad2)*
G04 #@! TO.C,R5*
G36*
X107154505Y-51768204D02*
X107178773Y-51771804D01*
X107202572Y-51777765D01*
X107225671Y-51786030D01*
X107247850Y-51796520D01*
X107268893Y-51809132D01*
X107288599Y-51823747D01*
X107306777Y-51840223D01*
X107323253Y-51858401D01*
X107337868Y-51878107D01*
X107350480Y-51899150D01*
X107360970Y-51921329D01*
X107369235Y-51944428D01*
X107375196Y-51968227D01*
X107378796Y-51992495D01*
X107380000Y-52016999D01*
X107380000Y-52667001D01*
X107378796Y-52691505D01*
X107375196Y-52715773D01*
X107369235Y-52739572D01*
X107360970Y-52762671D01*
X107350480Y-52784850D01*
X107337868Y-52805893D01*
X107323253Y-52825599D01*
X107306777Y-52843777D01*
X107288599Y-52860253D01*
X107268893Y-52874868D01*
X107247850Y-52887480D01*
X107225671Y-52897970D01*
X107202572Y-52906235D01*
X107178773Y-52912196D01*
X107154505Y-52915796D01*
X107130001Y-52917000D01*
X106229999Y-52917000D01*
X106205495Y-52915796D01*
X106181227Y-52912196D01*
X106157428Y-52906235D01*
X106134329Y-52897970D01*
X106112150Y-52887480D01*
X106091107Y-52874868D01*
X106071401Y-52860253D01*
X106053223Y-52843777D01*
X106036747Y-52825599D01*
X106022132Y-52805893D01*
X106009520Y-52784850D01*
X105999030Y-52762671D01*
X105990765Y-52739572D01*
X105984804Y-52715773D01*
X105981204Y-52691505D01*
X105980000Y-52667001D01*
X105980000Y-52016999D01*
X105981204Y-51992495D01*
X105984804Y-51968227D01*
X105990765Y-51944428D01*
X105999030Y-51921329D01*
X106009520Y-51899150D01*
X106022132Y-51878107D01*
X106036747Y-51858401D01*
X106053223Y-51840223D01*
X106071401Y-51823747D01*
X106091107Y-51809132D01*
X106112150Y-51796520D01*
X106134329Y-51786030D01*
X106157428Y-51777765D01*
X106181227Y-51771804D01*
X106205495Y-51768204D01*
X106229999Y-51767000D01*
X107130001Y-51767000D01*
X107154505Y-51768204D01*
X107154505Y-51768204D01*
G37*
D20*
G04 #@! TD*
G04 #@! TO.P,R5,2*
G04 #@! TO.N,Net-(R5-Pad2)*
X106680000Y-52342000D03*
D13*
G04 #@! TO.N,Net-(R6-Pad2)*
G04 #@! TO.C,R6*
G36*
X122140505Y-97225204D02*
X122164773Y-97228804D01*
X122188572Y-97234765D01*
X122211671Y-97243030D01*
X122233850Y-97253520D01*
X122254893Y-97266132D01*
X122274599Y-97280747D01*
X122292777Y-97297223D01*
X122309253Y-97315401D01*
X122323868Y-97335107D01*
X122336480Y-97356150D01*
X122346970Y-97378329D01*
X122355235Y-97401428D01*
X122361196Y-97425227D01*
X122364796Y-97449495D01*
X122366000Y-97473999D01*
X122366000Y-98124001D01*
X122364796Y-98148505D01*
X122361196Y-98172773D01*
X122355235Y-98196572D01*
X122346970Y-98219671D01*
X122336480Y-98241850D01*
X122323868Y-98262893D01*
X122309253Y-98282599D01*
X122292777Y-98300777D01*
X122274599Y-98317253D01*
X122254893Y-98331868D01*
X122233850Y-98344480D01*
X122211671Y-98354970D01*
X122188572Y-98363235D01*
X122164773Y-98369196D01*
X122140505Y-98372796D01*
X122116001Y-98374000D01*
X121215999Y-98374000D01*
X121191495Y-98372796D01*
X121167227Y-98369196D01*
X121143428Y-98363235D01*
X121120329Y-98354970D01*
X121098150Y-98344480D01*
X121077107Y-98331868D01*
X121057401Y-98317253D01*
X121039223Y-98300777D01*
X121022747Y-98282599D01*
X121008132Y-98262893D01*
X120995520Y-98241850D01*
X120985030Y-98219671D01*
X120976765Y-98196572D01*
X120970804Y-98172773D01*
X120967204Y-98148505D01*
X120966000Y-98124001D01*
X120966000Y-97473999D01*
X120967204Y-97449495D01*
X120970804Y-97425227D01*
X120976765Y-97401428D01*
X120985030Y-97378329D01*
X120995520Y-97356150D01*
X121008132Y-97335107D01*
X121022747Y-97315401D01*
X121039223Y-97297223D01*
X121057401Y-97280747D01*
X121077107Y-97266132D01*
X121098150Y-97253520D01*
X121120329Y-97243030D01*
X121143428Y-97234765D01*
X121167227Y-97228804D01*
X121191495Y-97225204D01*
X121215999Y-97224000D01*
X122116001Y-97224000D01*
X122140505Y-97225204D01*
X122140505Y-97225204D01*
G37*
D20*
G04 #@! TD*
G04 #@! TO.P,R6,2*
G04 #@! TO.N,Net-(R6-Pad2)*
X121666000Y-97799000D03*
D13*
G04 #@! TO.N,Net-(R6-Pad1)*
G04 #@! TO.C,R6*
G36*
X122140505Y-95175204D02*
X122164773Y-95178804D01*
X122188572Y-95184765D01*
X122211671Y-95193030D01*
X122233850Y-95203520D01*
X122254893Y-95216132D01*
X122274599Y-95230747D01*
X122292777Y-95247223D01*
X122309253Y-95265401D01*
X122323868Y-95285107D01*
X122336480Y-95306150D01*
X122346970Y-95328329D01*
X122355235Y-95351428D01*
X122361196Y-95375227D01*
X122364796Y-95399495D01*
X122366000Y-95423999D01*
X122366000Y-96074001D01*
X122364796Y-96098505D01*
X122361196Y-96122773D01*
X122355235Y-96146572D01*
X122346970Y-96169671D01*
X122336480Y-96191850D01*
X122323868Y-96212893D01*
X122309253Y-96232599D01*
X122292777Y-96250777D01*
X122274599Y-96267253D01*
X122254893Y-96281868D01*
X122233850Y-96294480D01*
X122211671Y-96304970D01*
X122188572Y-96313235D01*
X122164773Y-96319196D01*
X122140505Y-96322796D01*
X122116001Y-96324000D01*
X121215999Y-96324000D01*
X121191495Y-96322796D01*
X121167227Y-96319196D01*
X121143428Y-96313235D01*
X121120329Y-96304970D01*
X121098150Y-96294480D01*
X121077107Y-96281868D01*
X121057401Y-96267253D01*
X121039223Y-96250777D01*
X121022747Y-96232599D01*
X121008132Y-96212893D01*
X120995520Y-96191850D01*
X120985030Y-96169671D01*
X120976765Y-96146572D01*
X120970804Y-96122773D01*
X120967204Y-96098505D01*
X120966000Y-96074001D01*
X120966000Y-95423999D01*
X120967204Y-95399495D01*
X120970804Y-95375227D01*
X120976765Y-95351428D01*
X120985030Y-95328329D01*
X120995520Y-95306150D01*
X121008132Y-95285107D01*
X121022747Y-95265401D01*
X121039223Y-95247223D01*
X121057401Y-95230747D01*
X121077107Y-95216132D01*
X121098150Y-95203520D01*
X121120329Y-95193030D01*
X121143428Y-95184765D01*
X121167227Y-95178804D01*
X121191495Y-95175204D01*
X121215999Y-95174000D01*
X122116001Y-95174000D01*
X122140505Y-95175204D01*
X122140505Y-95175204D01*
G37*
D20*
G04 #@! TD*
G04 #@! TO.P,R6,1*
G04 #@! TO.N,Net-(R6-Pad1)*
X121666000Y-95749000D03*
D18*
G04 #@! TO.P,R7,2*
G04 #@! TO.N,Net-(C1-Pad1)*
X63500000Y-86360000D03*
D19*
G04 #@! TO.P,R7,1*
G04 #@! TO.N,Net-(R7-Pad1)*
X63500000Y-96520000D03*
G04 #@! TD*
G04 #@! TO.P,R8,1*
G04 #@! TO.N,Net-(C1-Pad1)*
X71882000Y-97409000D03*
D18*
G04 #@! TO.P,R8,2*
G04 #@! TO.N,/L*
X71882000Y-87249000D03*
G04 #@! TD*
D19*
G04 #@! TO.P,R9,1*
G04 #@! TO.N,/L*
X89027000Y-89027000D03*
D18*
G04 #@! TO.P,R9,2*
G04 #@! TO.N,Net-(C2-Pad1)*
X89027000Y-99187000D03*
G04 #@! TD*
D21*
G04 #@! TO.P,U1,1*
G04 #@! TO.N,Net-(R1-Pad1)*
X95504000Y-51816000D03*
D18*
G04 #@! TO.P,U1,3*
G04 #@! TO.N,GND*
X103124000Y-54356000D03*
G04 #@! TO.P,U1,2*
G04 #@! TO.N,Net-(R3-Pad2)*
X95504000Y-54356000D03*
G04 #@! TO.P,U1,4*
G04 #@! TO.N,Net-(R5-Pad2)*
X103124000Y-51816000D03*
G04 #@! TD*
D22*
G04 #@! TO.P,U2,1*
G04 #@! TO.N,Net-(R5-Pad2)*
X110765001Y-52345001D03*
D23*
G04 #@! TO.P,U2,2*
G04 #@! TO.N,Net-(U2-Pad2)*
X110765001Y-54885001D03*
G04 #@! TO.P,U2,3*
G04 #@! TO.N,Net-(U2-Pad3)*
X110765001Y-57425001D03*
G04 #@! TO.P,U2,4*
G04 #@! TO.N,Net-(U2-Pad4)*
X110765001Y-59965001D03*
G04 #@! TO.P,U2,5*
G04 #@! TO.N,Net-(U2-Pad5)*
X110765001Y-62505001D03*
G04 #@! TO.P,U2,6*
G04 #@! TO.N,Net-(U2-Pad6)*
X110765001Y-65045001D03*
G04 #@! TO.P,U2,7*
G04 #@! TO.N,Net-(U2-Pad7)*
X110765001Y-67585001D03*
G04 #@! TO.P,U2,8*
G04 #@! TO.N,Net-(U2-Pad8)*
X110765001Y-70125001D03*
G04 #@! TO.P,U2,9*
G04 #@! TO.N,Net-(U2-Pad9)*
X110765001Y-72665001D03*
G04 #@! TO.P,U2,10*
G04 #@! TO.N,Net-(U2-Pad10)*
X110765001Y-75205001D03*
G04 #@! TO.P,U2,11*
G04 #@! TO.N,Net-(U2-Pad11)*
X110765001Y-77745001D03*
G04 #@! TO.P,U2,12*
G04 #@! TO.N,Net-(U2-Pad12)*
X110765001Y-80285001D03*
G04 #@! TO.P,U2,13*
G04 #@! TO.N,Net-(U2-Pad13)*
X110765001Y-82825001D03*
G04 #@! TO.P,U2,14*
G04 #@! TO.N,Net-(U2-Pad14)*
X110765001Y-85365001D03*
G04 #@! TO.P,U2,15*
G04 #@! TO.N,Net-(U2-Pad15)*
X110765001Y-87905001D03*
G04 #@! TO.P,U2,16*
G04 #@! TO.N,Net-(U2-Pad16)*
X110765001Y-90445001D03*
G04 #@! TO.P,U2,17*
G04 #@! TO.N,Net-(U2-Pad17)*
X110765001Y-92985001D03*
G04 #@! TO.P,U2,18*
G04 #@! TO.N,Net-(U2-Pad18)*
X110765001Y-95525001D03*
G04 #@! TO.P,U2,19*
G04 #@! TO.N,GND*
X110765001Y-98065001D03*
G04 #@! TO.P,U2,20*
G04 #@! TO.N,VCC*
X110765001Y-100605001D03*
G04 #@! TO.P,U2,21*
G04 #@! TO.N,Net-(U2-Pad21)*
X126005001Y-100605001D03*
G04 #@! TO.P,U2,22*
G04 #@! TO.N,Net-(U2-Pad22)*
X126005001Y-98065001D03*
G04 #@! TO.P,U2,23*
G04 #@! TO.N,Net-(U2-Pad23)*
X126005001Y-95525001D03*
G04 #@! TO.P,U2,24*
G04 #@! TO.N,Net-(R6-Pad1)*
X126005001Y-92985001D03*
G04 #@! TO.P,U2,25*
G04 #@! TO.N,Net-(U2-Pad25)*
X126005001Y-90445001D03*
G04 #@! TO.P,U2,26*
G04 #@! TO.N,/Reset*
X126005001Y-87905001D03*
G04 #@! TO.P,U2,27*
G04 #@! TO.N,/nIRQ*
X126005001Y-85365001D03*
G04 #@! TO.P,U2,28*
G04 #@! TO.N,/DIO1*
X126005001Y-82825001D03*
G04 #@! TO.P,U2,29*
G04 #@! TO.N,/NSS*
X126005001Y-80285001D03*
G04 #@! TO.P,U2,30*
G04 #@! TO.N,/SCK*
X126005001Y-77745001D03*
G04 #@! TO.P,U2,31*
G04 #@! TO.N,/MISO*
X126005001Y-75205001D03*
G04 #@! TO.P,U2,32*
G04 #@! TO.N,/MOSI*
X126005001Y-72665001D03*
G04 #@! TO.P,U2,33*
G04 #@! TO.N,Net-(U2-Pad33)*
X126005001Y-70125001D03*
G04 #@! TO.P,U2,34*
G04 #@! TO.N,Net-(U2-Pad34)*
X126005001Y-67585001D03*
G04 #@! TO.P,U2,35*
G04 #@! TO.N,Net-(U2-Pad35)*
X126005001Y-65045001D03*
G04 #@! TO.P,U2,36*
G04 #@! TO.N,Net-(U2-Pad36)*
X126005001Y-62505001D03*
G04 #@! TO.P,U2,37*
G04 #@! TO.N,Net-(U2-Pad37)*
X126005001Y-59965001D03*
G04 #@! TO.P,U2,38*
G04 #@! TO.N,VCC*
X126005001Y-57425001D03*
G04 #@! TO.P,U2,39*
G04 #@! TO.N,Net-(U2-Pad39)*
X126005001Y-54885001D03*
G04 #@! TO.P,U2,40*
X126005001Y-52345001D03*
G04 #@! TD*
D21*
G04 #@! TO.P,U3,1*
G04 #@! TO.N,Net-(R6-Pad2)*
X102997000Y-92710000D03*
D18*
G04 #@! TO.P,U3,4*
G04 #@! TO.N,Net-(Q1-Pad3)*
X92837000Y-87630000D03*
G04 #@! TO.P,U3,2*
G04 #@! TO.N,GND*
X102997000Y-90170000D03*
G04 #@! TO.P,U3,5*
G04 #@! TO.N,Net-(U3-Pad5)*
X92837000Y-90170000D03*
G04 #@! TO.P,U3,3*
G04 #@! TO.N,Net-(U3-Pad3)*
X102997000Y-87630000D03*
G04 #@! TO.P,U3,6*
G04 #@! TO.N,Net-(R7-Pad1)*
X92837000Y-92710000D03*
G04 #@! TD*
D19*
G04 #@! TO.P,C2,1*
G04 #@! TO.N,Net-(C2-Pad1)*
X84709000Y-98933000D03*
G04 #@! TO.P,C2,2*
G04 #@! TO.N,Net-(C1-Pad2)*
X77209000Y-98933000D03*
G04 #@! TD*
D24*
G04 #@! TO.N,Net-(C1-Pad1)*
X67056000Y-94361000D02*
X67056000Y-92583000D01*
X68834000Y-94361000D02*
X71882000Y-97409000D01*
X67056000Y-94361000D02*
X68834000Y-94361000D01*
X67056000Y-92583000D02*
X65913000Y-92583000D01*
X63500000Y-90170000D02*
X63500000Y-86360000D01*
X65913000Y-92583000D02*
X63500000Y-90170000D01*
G04 #@! TO.N,Net-(C1-Pad2)*
X67056000Y-81407000D02*
X65659000Y-80010000D01*
X67056000Y-86861000D02*
X67056000Y-81407000D01*
X77209000Y-97543000D02*
X80264000Y-94488000D01*
X77209000Y-98933000D02*
X77209000Y-97543000D01*
X67056000Y-88780000D02*
X77209000Y-98933000D01*
X67056000Y-86861000D02*
X67056000Y-88780000D01*
G04 #@! TO.N,Net-(C2-Pad1)*
X84963000Y-99187000D02*
X84709000Y-98933000D01*
X89027000Y-99187000D02*
X84963000Y-99187000D01*
G04 #@! TO.N,/L*
X80772000Y-55372000D02*
X80772000Y-51816000D01*
X67056000Y-55372000D02*
X65532000Y-56896000D01*
X80772000Y-55372000D02*
X67056000Y-55372000D01*
X80772000Y-55372000D02*
X79629000Y-55372000D01*
X79629000Y-55372000D02*
X77470000Y-57531000D01*
X77470000Y-57531000D02*
X77470000Y-71501000D01*
X75779000Y-73192000D02*
X73184000Y-73192000D01*
X77470000Y-71501000D02*
X75779000Y-73192000D01*
X72681999Y-86449001D02*
X72681999Y-83655001D01*
X71882000Y-87249000D02*
X72681999Y-86449001D01*
X72681999Y-83655001D02*
X74422000Y-81915000D01*
X74422000Y-81915000D02*
X76962000Y-81915000D01*
X77470000Y-81407000D02*
X77470000Y-71501000D01*
X76962000Y-81915000D02*
X77470000Y-81407000D01*
X89027000Y-89027000D02*
X86106000Y-89027000D01*
X83185000Y-91948000D02*
X80264000Y-91948000D01*
X86106000Y-89027000D02*
X83185000Y-91948000D01*
X76581000Y-91948000D02*
X75692000Y-91059000D01*
X80264000Y-91948000D02*
X76581000Y-91948000D01*
X75692000Y-91059000D02*
X75692000Y-88900000D01*
X74041000Y-87249000D02*
X71882000Y-87249000D01*
X75692000Y-88900000D02*
X74041000Y-87249000D01*
X65532000Y-59690000D02*
X65532000Y-56896000D01*
G04 #@! TO.N,/N*
X72644000Y-59436000D02*
X72644000Y-62992000D01*
X69922000Y-74930000D02*
X73184000Y-78192000D01*
X65659000Y-74930000D02*
X69922000Y-74930000D01*
X67310000Y-62992000D02*
X65532000Y-64770000D01*
X72644000Y-62992000D02*
X67310000Y-62992000D01*
X65532000Y-74803000D02*
X65659000Y-74930000D01*
X65532000Y-64770000D02*
X65532000Y-74803000D01*
G04 #@! TO.N,Net-(Q1-Pad3)*
X80264000Y-87455500D02*
X81359500Y-86360000D01*
X80264000Y-89408000D02*
X80264000Y-87455500D01*
X91567000Y-86360000D02*
X92837000Y-87630000D01*
X81359500Y-86360000D02*
X91567000Y-86360000D01*
G04 #@! TO.N,Net-(R1-Pad1)*
X90932000Y-51816000D02*
X95504000Y-51816000D01*
X90932000Y-55372000D02*
X90932000Y-51816000D01*
G04 #@! TO.N,Net-(R3-Pad2)*
X95504000Y-57785000D02*
X95504000Y-54356000D01*
X93853000Y-59436000D02*
X95504000Y-57785000D01*
X82804000Y-59436000D02*
X93853000Y-59436000D01*
X82804000Y-62992000D02*
X82804000Y-59436000D01*
D25*
G04 #@! TO.N,Net-(R5-Pad2)*
X106683001Y-52345001D02*
X106680000Y-52342000D01*
X110765001Y-52345001D02*
X106683001Y-52345001D01*
X106154000Y-51816000D02*
X106680000Y-52342000D01*
X103124000Y-51816000D02*
X106154000Y-51816000D01*
G04 #@! TO.N,Net-(R6-Pad2)*
X118032000Y-102108000D02*
X116205000Y-102108000D01*
X121666000Y-98474000D02*
X118032000Y-102108000D01*
X121666000Y-97799000D02*
X121666000Y-98474000D01*
X116205000Y-102108000D02*
X116557000Y-102108000D01*
X102997000Y-95153000D02*
X102997000Y-92710000D01*
X104902000Y-97058000D02*
X102997000Y-95153000D01*
X104902000Y-98933000D02*
X104902000Y-97058000D01*
X116205000Y-102108000D02*
X108077000Y-102108000D01*
X108077000Y-102108000D02*
X104902000Y-98933000D01*
G04 #@! TO.N,Net-(R7-Pad1)*
X71501000Y-101346000D02*
X91567000Y-101346000D01*
X91567000Y-101346000D02*
X92837000Y-100076000D01*
X92837000Y-100076000D02*
X92837000Y-92710000D01*
X67474999Y-97319999D02*
X68580000Y-98425000D01*
X64299999Y-97319999D02*
X67474999Y-97319999D01*
X63500000Y-96520000D02*
X64299999Y-97319999D01*
X68453000Y-98298000D02*
X68580000Y-98425000D01*
X68580000Y-98425000D02*
X71501000Y-101346000D01*
G04 #@! TO.N,GND*
X103124000Y-54356000D02*
X105664000Y-54356000D01*
X105664000Y-54356000D02*
X106680000Y-55372000D01*
X106680000Y-55372000D02*
X106680000Y-67056000D01*
X105744000Y-67992000D02*
X102584000Y-67992000D01*
X106680000Y-67056000D02*
X105744000Y-67992000D01*
X109728000Y-97028000D02*
X110765001Y-98065001D01*
X108712000Y-97028000D02*
X109728000Y-97028000D01*
X102584000Y-69246000D02*
X107188000Y-73850000D01*
X102584000Y-67992000D02*
X102584000Y-69246000D01*
X107188000Y-95504000D02*
X108712000Y-97028000D01*
X107188000Y-91440000D02*
X107188000Y-95504000D01*
X107150001Y-89370001D02*
X107188000Y-89408000D01*
X103796999Y-89370001D02*
X107150001Y-89370001D01*
X102997000Y-90170000D02*
X103796999Y-89370001D01*
X107188000Y-73850000D02*
X107188000Y-89408000D01*
X107188000Y-89408000D02*
X107188000Y-91440000D01*
G04 #@! TO.N,/Reset*
X127082631Y-87905001D02*
X127992632Y-86995000D01*
X126005001Y-87905001D02*
X127082631Y-87905001D01*
X127992632Y-86995000D02*
X139065000Y-86995000D01*
X140192000Y-85868000D02*
X140192000Y-83692000D01*
X139065000Y-86995000D02*
X140192000Y-85868000D01*
G04 #@! TO.N,/nIRQ*
X138192000Y-85192000D02*
X138192000Y-83692000D01*
X137405000Y-85979000D02*
X138192000Y-85192000D01*
X127696630Y-85979000D02*
X137405000Y-85979000D01*
X127082631Y-85365001D02*
X127696630Y-85979000D01*
X126005001Y-85365001D02*
X127082631Y-85365001D01*
G04 #@! TO.N,/DIO1*
X136192000Y-82192000D02*
X136192000Y-83692000D01*
X135280000Y-81280000D02*
X136192000Y-82192000D01*
X128627632Y-81280000D02*
X135280000Y-81280000D01*
X127082631Y-82825001D02*
X128627632Y-81280000D01*
X126005001Y-82825001D02*
X127082631Y-82825001D01*
G04 #@! TO.N,/NSS*
X126005001Y-80285001D02*
X141710999Y-80285001D01*
X144192000Y-77804000D02*
X144192000Y-67692000D01*
X141710999Y-80285001D02*
X144192000Y-77804000D01*
G04 #@! TO.N,/SCK*
X126005001Y-77745001D02*
X135741999Y-77745001D01*
X138192000Y-75295000D02*
X138192000Y-67692000D01*
X135741999Y-77745001D02*
X138192000Y-75295000D01*
G04 #@! TO.N,/MISO*
X127082631Y-75205001D02*
X130048000Y-72239632D01*
X126005001Y-75205001D02*
X127082631Y-75205001D01*
X130048000Y-72239632D02*
X130048000Y-66421000D01*
X130048000Y-66421000D02*
X131445000Y-65024000D01*
X131445000Y-65024000D02*
X139446000Y-65024000D01*
X140192000Y-65770000D02*
X140192000Y-67692000D01*
X139446000Y-65024000D02*
X140192000Y-65770000D01*
G04 #@! TO.N,/MOSI*
X142192000Y-66192000D02*
X139881000Y-63881000D01*
X142192000Y-67692000D02*
X142192000Y-66192000D01*
X139881000Y-63881000D02*
X130556000Y-63881000D01*
X130556000Y-63881000D02*
X128651000Y-65786000D01*
X128651000Y-65786000D02*
X128651000Y-71628000D01*
X127613999Y-72665001D02*
X126005001Y-72665001D01*
X128651000Y-71628000D02*
X127613999Y-72665001D01*
G04 #@! TO.N,VCC*
X124481001Y-57425001D02*
X126005001Y-57425001D01*
X102584000Y-83392000D02*
X102584000Y-73120000D01*
X102584000Y-73120000D02*
X99568000Y-70104000D01*
X99568000Y-70104000D02*
X99568000Y-51308000D01*
X105880000Y-50292000D02*
X106680000Y-50292000D01*
X100584000Y-50292000D02*
X105880000Y-50292000D01*
X99568000Y-51308000D02*
X100584000Y-50292000D01*
X120396000Y-50292000D02*
X121920000Y-51816000D01*
X121920000Y-54864000D02*
X124481001Y-57425001D01*
X121920000Y-51816000D02*
X121920000Y-54864000D01*
X114554000Y-96816002D02*
X110765001Y-100605001D01*
X114554000Y-50292000D02*
X114554000Y-96816002D01*
X106680000Y-50292000D02*
X114554000Y-50292000D01*
X119888000Y-50292000D02*
X120396000Y-50292000D01*
X114554000Y-50292000D02*
X119888000Y-50292000D01*
X120396000Y-50292000D02*
X137541000Y-50292000D01*
X137541000Y-50292000D02*
X148082000Y-60833000D01*
X148082000Y-60833000D02*
X148082000Y-77216000D01*
X148082000Y-77216000D02*
X144780000Y-80518000D01*
X144780000Y-80518000D02*
X143129000Y-80518000D01*
X142192000Y-81455000D02*
X142192000Y-83692000D01*
X143129000Y-80518000D02*
X142192000Y-81455000D01*
G04 #@! TO.N,Net-(U2-Pad39)*
X126005001Y-54885001D02*
X138070001Y-54885001D01*
X146192000Y-63007000D02*
X146192000Y-67692000D01*
X138070001Y-54885001D02*
X146192000Y-63007000D01*
X126005001Y-52345001D02*
X126005001Y-54885001D01*
G04 #@! TO.N,Net-(R6-Pad1)*
X126005001Y-92985001D02*
X122406999Y-92985001D01*
X121666000Y-93726000D02*
X121666000Y-95749000D01*
X122406999Y-92985001D02*
X121666000Y-93726000D01*
G04 #@! TD*
M02*
