M48
;DRILL file {KiCad (5.0.2)-1} date 01.04.2019 14:51:44
;FORMAT={-:-/ absolute / metric / decimal}
FMAT,2
METRIC,TZ
T1C0.762
T2C0.800
T3C1.000
T4C1.100
T5C1.200
%
G90
G05
T1
X107.442Y-52.578
X107.442Y-55.118
X107.442Y-57.658
X107.442Y-60.198
X107.442Y-62.738
X107.442Y-65.278
X107.442Y-67.818
X107.442Y-70.358
X107.442Y-72.898
X107.442Y-75.438
X107.442Y-77.978
X107.442Y-80.518
X107.442Y-83.058
X107.442Y-85.598
X107.442Y-88.138
X107.442Y-90.678
X107.442Y-93.218
X107.442Y-95.758
X107.442Y-98.298
X107.442Y-100.838
X122.682Y-52.578
X122.682Y-55.118
X122.682Y-57.658
X122.682Y-60.198
X122.682Y-62.738
X122.682Y-65.278
X122.682Y-67.818
X122.682Y-70.358
X122.682Y-72.898
X122.682Y-75.438
X122.682Y-77.978
X122.682Y-80.518
X122.682Y-83.058
X122.682Y-85.598
X122.682Y-88.138
X122.682Y-90.678
X122.682Y-93.218
X122.682Y-95.758
X122.682Y-98.298
X122.682Y-100.838
T2
X72.644Y-59.436
X82.804Y-59.436
X62.23Y-86.487
X62.23Y-96.647
X72.517Y-51.689
X82.677Y-51.689
X89.027Y-89.027
X89.027Y-99.187
X72.644Y-62.992
X82.804Y-62.992
X77.209Y-98.933
X84.709Y-98.933
X95.123Y-90.043
X95.123Y-92.583
X95.123Y-95.123
X102.743Y-90.043
X102.743Y-92.583
X102.743Y-95.123
X71.882Y-87.249
X71.882Y-97.409
X72.517Y-55.245
X82.677Y-55.245
X92.837Y-52.197
X92.837Y-54.737
X100.457Y-52.197
X100.457Y-54.737
T3
X70.517Y-73.192
X70.517Y-78.192
X99.917Y-67.992
X99.917Y-83.392
X65.532Y-86.988
X65.532Y-94.488
T4
X80.264Y-89.408
X80.264Y-91.948
X80.264Y-94.488
T5
X64.77Y-75.057
X64.77Y-80.137
X64.77Y-59.69
X64.77Y-64.77
T0
M30
