G04 #@! TF.GenerationSoftware,KiCad,Pcbnew,(5.0.2)-1*
G04 #@! TF.CreationDate,2019-04-01T14:51:39+03:00*
G04 #@! TF.ProjectId,vent_sys,76656e74-5f73-4797-932e-6b696361645f,rev?*
G04 #@! TF.SameCoordinates,Original*
G04 #@! TF.FileFunction,Copper,L2,Bot*
G04 #@! TF.FilePolarity,Positive*
%FSLAX46Y46*%
G04 Gerber Fmt 4.6, Leading zero omitted, Abs format (unit mm)*
G04 Created by KiCad (PCBNEW (5.0.2)-1) date 01.04.2019 14:51:39*
%MOMM*%
%LPD*%
G01*
G04 APERTURE LIST*
G04 #@! TA.AperFunction,ComponentPad*
%ADD10C,1.524000*%
G04 #@! TD*
G04 #@! TA.AperFunction,ComponentPad*
%ADD11R,1.524000X1.524000*%
G04 #@! TD*
G04 #@! TA.AperFunction,ComponentPad*
%ADD12O,2.400000X1.600000*%
G04 #@! TD*
G04 #@! TA.AperFunction,ComponentPad*
%ADD13R,2.400000X1.600000*%
G04 #@! TD*
G04 #@! TA.AperFunction,SMDPad,CuDef*
%ADD14R,1.500000X2.000000*%
G04 #@! TD*
G04 #@! TA.AperFunction,ComponentPad*
%ADD15C,2.000000*%
G04 #@! TD*
G04 #@! TA.AperFunction,ComponentPad*
%ADD16O,3.600000X1.800000*%
G04 #@! TD*
G04 #@! TA.AperFunction,Conductor*
%ADD17C,0.100000*%
G04 #@! TD*
G04 #@! TA.AperFunction,ComponentPad*
%ADD18C,1.800000*%
G04 #@! TD*
G04 #@! TA.AperFunction,ComponentPad*
%ADD19O,3.016000X1.508000*%
G04 #@! TD*
G04 #@! TA.AperFunction,ComponentPad*
%ADD20O,2.000000X1.905000*%
G04 #@! TD*
G04 #@! TA.AperFunction,ComponentPad*
%ADD21R,2.000000X1.905000*%
G04 #@! TD*
G04 #@! TA.AperFunction,ComponentPad*
%ADD22O,1.600000X1.600000*%
G04 #@! TD*
G04 #@! TA.AperFunction,ComponentPad*
%ADD23C,1.600000*%
G04 #@! TD*
G04 #@! TA.AperFunction,SMDPad,CuDef*
%ADD24C,1.150000*%
G04 #@! TD*
G04 #@! TA.AperFunction,ComponentPad*
%ADD25R,1.600000X1.600000*%
G04 #@! TD*
G04 #@! TA.AperFunction,Conductor*
%ADD26C,5.000000*%
G04 #@! TD*
G04 #@! TA.AperFunction,Conductor*
%ADD27C,1.000000*%
G04 #@! TD*
G04 #@! TA.AperFunction,Conductor*
%ADD28C,0.500000*%
G04 #@! TD*
G04 APERTURE END LIST*
D10*
G04 #@! TO.P,U2,40*
G04 #@! TO.N,Net-(U2-Pad39)*
X122682000Y-52578000D03*
G04 #@! TO.P,U2,39*
X122682000Y-55118000D03*
G04 #@! TO.P,U2,38*
G04 #@! TO.N,VCC*
X122682000Y-57658000D03*
G04 #@! TO.P,U2,37*
G04 #@! TO.N,Net-(U2-Pad37)*
X122682000Y-60198000D03*
G04 #@! TO.P,U2,36*
G04 #@! TO.N,Net-(U2-Pad36)*
X122682000Y-62738000D03*
G04 #@! TO.P,U2,35*
G04 #@! TO.N,Net-(U2-Pad35)*
X122682000Y-65278000D03*
G04 #@! TO.P,U2,34*
G04 #@! TO.N,Net-(U2-Pad34)*
X122682000Y-67818000D03*
G04 #@! TO.P,U2,33*
G04 #@! TO.N,Net-(U2-Pad33)*
X122682000Y-70358000D03*
G04 #@! TO.P,U2,32*
G04 #@! TO.N,/MOSI*
X122682000Y-72898000D03*
G04 #@! TO.P,U2,31*
G04 #@! TO.N,/MISO*
X122682000Y-75438000D03*
G04 #@! TO.P,U2,30*
G04 #@! TO.N,/SCK*
X122682000Y-77978000D03*
G04 #@! TO.P,U2,29*
G04 #@! TO.N,/NSS*
X122682000Y-80518000D03*
G04 #@! TO.P,U2,28*
G04 #@! TO.N,/DIO1*
X122682000Y-83058000D03*
G04 #@! TO.P,U2,27*
G04 #@! TO.N,/nIRQ*
X122682000Y-85598000D03*
G04 #@! TO.P,U2,26*
G04 #@! TO.N,/Reset*
X122682000Y-88138000D03*
G04 #@! TO.P,U2,25*
G04 #@! TO.N,Net-(U2-Pad25)*
X122682000Y-90678000D03*
G04 #@! TO.P,U2,24*
G04 #@! TO.N,Net-(R6-Pad1)*
X122682000Y-93218000D03*
G04 #@! TO.P,U2,23*
G04 #@! TO.N,Net-(U2-Pad23)*
X122682000Y-95758000D03*
G04 #@! TO.P,U2,22*
G04 #@! TO.N,Net-(U2-Pad22)*
X122682000Y-98298000D03*
G04 #@! TO.P,U2,21*
G04 #@! TO.N,Net-(U2-Pad21)*
X122682000Y-100838000D03*
G04 #@! TO.P,U2,20*
G04 #@! TO.N,VCC*
X107442000Y-100838000D03*
G04 #@! TO.P,U2,19*
G04 #@! TO.N,GND*
X107442000Y-98298000D03*
G04 #@! TO.P,U2,18*
G04 #@! TO.N,Net-(U2-Pad18)*
X107442000Y-95758000D03*
G04 #@! TO.P,U2,17*
G04 #@! TO.N,Net-(U2-Pad17)*
X107442000Y-93218000D03*
G04 #@! TO.P,U2,16*
G04 #@! TO.N,Net-(U2-Pad16)*
X107442000Y-90678000D03*
G04 #@! TO.P,U2,15*
G04 #@! TO.N,Net-(U2-Pad15)*
X107442000Y-88138000D03*
G04 #@! TO.P,U2,14*
G04 #@! TO.N,Net-(U2-Pad14)*
X107442000Y-85598000D03*
G04 #@! TO.P,U2,13*
G04 #@! TO.N,Net-(U2-Pad13)*
X107442000Y-83058000D03*
G04 #@! TO.P,U2,12*
G04 #@! TO.N,Net-(U2-Pad12)*
X107442000Y-80518000D03*
G04 #@! TO.P,U2,11*
G04 #@! TO.N,Net-(U2-Pad11)*
X107442000Y-77978000D03*
G04 #@! TO.P,U2,10*
G04 #@! TO.N,Net-(U2-Pad10)*
X107442000Y-75438000D03*
G04 #@! TO.P,U2,9*
G04 #@! TO.N,Net-(U2-Pad9)*
X107442000Y-72898000D03*
G04 #@! TO.P,U2,8*
G04 #@! TO.N,Net-(U2-Pad8)*
X107442000Y-70358000D03*
G04 #@! TO.P,U2,7*
G04 #@! TO.N,Net-(U2-Pad7)*
X107442000Y-67818000D03*
G04 #@! TO.P,U2,6*
G04 #@! TO.N,Net-(U2-Pad6)*
X107442000Y-65278000D03*
G04 #@! TO.P,U2,5*
G04 #@! TO.N,Net-(U2-Pad5)*
X107442000Y-62738000D03*
G04 #@! TO.P,U2,4*
G04 #@! TO.N,Net-(U2-Pad4)*
X107442000Y-60198000D03*
G04 #@! TO.P,U2,3*
G04 #@! TO.N,Net-(U2-Pad3)*
X107442000Y-57658000D03*
G04 #@! TO.P,U2,2*
G04 #@! TO.N,Net-(U2-Pad2)*
X107442000Y-55118000D03*
D11*
G04 #@! TO.P,U2,1*
G04 #@! TO.N,Net-(R5-Pad2)*
X107442000Y-52578000D03*
G04 #@! TD*
D12*
G04 #@! TO.P,U3,6*
G04 #@! TO.N,Net-(R7-Pad1)*
X95123000Y-95123000D03*
G04 #@! TO.P,U3,3*
G04 #@! TO.N,Net-(U3-Pad3)*
X102743000Y-90043000D03*
G04 #@! TO.P,U3,5*
G04 #@! TO.N,Net-(U3-Pad5)*
X95123000Y-92583000D03*
G04 #@! TO.P,U3,2*
G04 #@! TO.N,GND*
X102743000Y-92583000D03*
G04 #@! TO.P,U3,4*
G04 #@! TO.N,Net-(Q1-Pad3)*
X95123000Y-90043000D03*
D13*
G04 #@! TO.P,U3,1*
G04 #@! TO.N,Net-(R6-Pad2)*
X102743000Y-95123000D03*
G04 #@! TD*
D14*
G04 #@! TO.P,U4,1*
G04 #@! TO.N,Net-(U4-Pad1)*
X142509000Y-83057000D03*
G04 #@! TO.P,U4,2*
G04 #@! TO.N,Net-(U4-Pad2)*
X140509000Y-83057000D03*
G04 #@! TO.P,U4,3*
G04 #@! TO.N,VCC*
X138509000Y-83057000D03*
G04 #@! TO.P,U4,4*
G04 #@! TO.N,/Reset*
X136509000Y-83057000D03*
G04 #@! TO.P,U4,5*
G04 #@! TO.N,/nIRQ*
X134509000Y-83057000D03*
G04 #@! TO.P,U4,6*
G04 #@! TO.N,/DIO1*
X132509000Y-83057000D03*
G04 #@! TO.P,U4,7*
G04 #@! TO.N,Net-(U4-Pad7)*
X130509000Y-83057000D03*
G04 #@! TO.P,U4,8*
G04 #@! TO.N,Net-(U4-Pad8)*
X128509000Y-83057000D03*
G04 #@! TO.P,U4,9*
G04 #@! TO.N,Net-(U4-Pad9)*
X128509000Y-67057000D03*
G04 #@! TO.P,U4,10*
G04 #@! TO.N,Net-(U4-Pad10)*
X130509000Y-67057000D03*
G04 #@! TO.P,U4,11*
G04 #@! TO.N,Net-(U4-Pad11)*
X132509000Y-67057000D03*
G04 #@! TO.P,U4,12*
G04 #@! TO.N,/SCK*
X134509000Y-67057000D03*
G04 #@! TO.P,U4,13*
G04 #@! TO.N,/MISO*
X136509000Y-67057000D03*
G04 #@! TO.P,U4,14*
G04 #@! TO.N,/MOSI*
X138509000Y-67057000D03*
G04 #@! TO.P,U4,15*
G04 #@! TO.N,/NSS*
X140509000Y-67057000D03*
G04 #@! TO.P,U4,16*
G04 #@! TO.N,Net-(U2-Pad39)*
X142509000Y-67057000D03*
G04 #@! TD*
D15*
G04 #@! TO.P,C1,2*
G04 #@! TO.N,Net-(C1-Pad2)*
X65532000Y-86988000D03*
G04 #@! TO.P,C1,1*
G04 #@! TO.N,Net-(C1-Pad1)*
X65532000Y-94488000D03*
G04 #@! TD*
D16*
G04 #@! TO.P,J1,2*
G04 #@! TO.N,/L*
X64770000Y-59690000D03*
D17*
G04 #@! TD*
G04 #@! TO.N,/N*
G04 #@! TO.C,J1*
G36*
X66344504Y-63871204D02*
X66368773Y-63874804D01*
X66392571Y-63880765D01*
X66415671Y-63889030D01*
X66437849Y-63899520D01*
X66458893Y-63912133D01*
X66478598Y-63926747D01*
X66496777Y-63943223D01*
X66513253Y-63961402D01*
X66527867Y-63981107D01*
X66540480Y-64002151D01*
X66550970Y-64024329D01*
X66559235Y-64047429D01*
X66565196Y-64071227D01*
X66568796Y-64095496D01*
X66570000Y-64120000D01*
X66570000Y-65420000D01*
X66568796Y-65444504D01*
X66565196Y-65468773D01*
X66559235Y-65492571D01*
X66550970Y-65515671D01*
X66540480Y-65537849D01*
X66527867Y-65558893D01*
X66513253Y-65578598D01*
X66496777Y-65596777D01*
X66478598Y-65613253D01*
X66458893Y-65627867D01*
X66437849Y-65640480D01*
X66415671Y-65650970D01*
X66392571Y-65659235D01*
X66368773Y-65665196D01*
X66344504Y-65668796D01*
X66320000Y-65670000D01*
X63220000Y-65670000D01*
X63195496Y-65668796D01*
X63171227Y-65665196D01*
X63147429Y-65659235D01*
X63124329Y-65650970D01*
X63102151Y-65640480D01*
X63081107Y-65627867D01*
X63061402Y-65613253D01*
X63043223Y-65596777D01*
X63026747Y-65578598D01*
X63012133Y-65558893D01*
X62999520Y-65537849D01*
X62989030Y-65515671D01*
X62980765Y-65492571D01*
X62974804Y-65468773D01*
X62971204Y-65444504D01*
X62970000Y-65420000D01*
X62970000Y-64120000D01*
X62971204Y-64095496D01*
X62974804Y-64071227D01*
X62980765Y-64047429D01*
X62989030Y-64024329D01*
X62999520Y-64002151D01*
X63012133Y-63981107D01*
X63026747Y-63961402D01*
X63043223Y-63943223D01*
X63061402Y-63926747D01*
X63081107Y-63912133D01*
X63102151Y-63899520D01*
X63124329Y-63889030D01*
X63147429Y-63880765D01*
X63171227Y-63874804D01*
X63195496Y-63871204D01*
X63220000Y-63870000D01*
X66320000Y-63870000D01*
X66344504Y-63871204D01*
X66344504Y-63871204D01*
G37*
D18*
G04 #@! TO.P,J1,1*
G04 #@! TO.N,/N*
X64770000Y-64770000D03*
G04 #@! TD*
D16*
G04 #@! TO.P,J2,2*
G04 #@! TO.N,/N*
X64770000Y-75057000D03*
D17*
G04 #@! TD*
G04 #@! TO.N,Net-(C1-Pad2)*
G04 #@! TO.C,J2*
G36*
X66344504Y-79238204D02*
X66368773Y-79241804D01*
X66392571Y-79247765D01*
X66415671Y-79256030D01*
X66437849Y-79266520D01*
X66458893Y-79279133D01*
X66478598Y-79293747D01*
X66496777Y-79310223D01*
X66513253Y-79328402D01*
X66527867Y-79348107D01*
X66540480Y-79369151D01*
X66550970Y-79391329D01*
X66559235Y-79414429D01*
X66565196Y-79438227D01*
X66568796Y-79462496D01*
X66570000Y-79487000D01*
X66570000Y-80787000D01*
X66568796Y-80811504D01*
X66565196Y-80835773D01*
X66559235Y-80859571D01*
X66550970Y-80882671D01*
X66540480Y-80904849D01*
X66527867Y-80925893D01*
X66513253Y-80945598D01*
X66496777Y-80963777D01*
X66478598Y-80980253D01*
X66458893Y-80994867D01*
X66437849Y-81007480D01*
X66415671Y-81017970D01*
X66392571Y-81026235D01*
X66368773Y-81032196D01*
X66344504Y-81035796D01*
X66320000Y-81037000D01*
X63220000Y-81037000D01*
X63195496Y-81035796D01*
X63171227Y-81032196D01*
X63147429Y-81026235D01*
X63124329Y-81017970D01*
X63102151Y-81007480D01*
X63081107Y-80994867D01*
X63061402Y-80980253D01*
X63043223Y-80963777D01*
X63026747Y-80945598D01*
X63012133Y-80925893D01*
X62999520Y-80904849D01*
X62989030Y-80882671D01*
X62980765Y-80859571D01*
X62974804Y-80835773D01*
X62971204Y-80811504D01*
X62970000Y-80787000D01*
X62970000Y-79487000D01*
X62971204Y-79462496D01*
X62974804Y-79438227D01*
X62980765Y-79414429D01*
X62989030Y-79391329D01*
X62999520Y-79369151D01*
X63012133Y-79348107D01*
X63026747Y-79328402D01*
X63043223Y-79310223D01*
X63061402Y-79293747D01*
X63081107Y-79279133D01*
X63102151Y-79266520D01*
X63124329Y-79256030D01*
X63147429Y-79247765D01*
X63171227Y-79241804D01*
X63195496Y-79238204D01*
X63220000Y-79237000D01*
X66320000Y-79237000D01*
X66344504Y-79238204D01*
X66344504Y-79238204D01*
G37*
D18*
G04 #@! TO.P,J2,1*
G04 #@! TO.N,Net-(C1-Pad2)*
X64770000Y-80137000D03*
G04 #@! TD*
D19*
G04 #@! TO.P,PS1,4*
G04 #@! TO.N,VCC*
X99917000Y-83392000D03*
G04 #@! TO.P,PS1,3*
G04 #@! TO.N,GND*
X99917000Y-67992000D03*
G04 #@! TO.P,PS1,2*
G04 #@! TO.N,/N*
X70517000Y-78192000D03*
G04 #@! TO.P,PS1,1*
G04 #@! TO.N,/L*
X70517000Y-73192000D03*
G04 #@! TD*
D20*
G04 #@! TO.P,Q1,3*
G04 #@! TO.N,Net-(Q1-Pad3)*
X80264000Y-89408000D03*
G04 #@! TO.P,Q1,2*
G04 #@! TO.N,/L*
X80264000Y-91948000D03*
D21*
G04 #@! TO.P,Q1,1*
G04 #@! TO.N,Net-(C1-Pad2)*
X80264000Y-94488000D03*
G04 #@! TD*
D22*
G04 #@! TO.P,R1,2*
G04 #@! TO.N,/L*
X72517000Y-51689000D03*
D23*
G04 #@! TO.P,R1,1*
G04 #@! TO.N,Net-(R1-Pad1)*
X82677000Y-51689000D03*
G04 #@! TD*
D22*
G04 #@! TO.P,R2,2*
G04 #@! TO.N,/L*
X72517000Y-55245000D03*
D23*
G04 #@! TO.P,R2,1*
G04 #@! TO.N,Net-(R1-Pad1)*
X82677000Y-55245000D03*
G04 #@! TD*
D22*
G04 #@! TO.P,R3,2*
G04 #@! TO.N,Net-(R3-Pad2)*
X82804000Y-62992000D03*
D23*
G04 #@! TO.P,R3,1*
G04 #@! TO.N,/N*
X72644000Y-62992000D03*
G04 #@! TD*
D22*
G04 #@! TO.P,R4,2*
G04 #@! TO.N,/N*
X72644000Y-59436000D03*
D23*
G04 #@! TO.P,R4,1*
G04 #@! TO.N,Net-(R3-Pad2)*
X82804000Y-59436000D03*
G04 #@! TD*
D17*
G04 #@! TO.N,Net-(R5-Pad2)*
G04 #@! TO.C,R5*
G36*
X104233505Y-53038204D02*
X104257773Y-53041804D01*
X104281572Y-53047765D01*
X104304671Y-53056030D01*
X104326850Y-53066520D01*
X104347893Y-53079132D01*
X104367599Y-53093747D01*
X104385777Y-53110223D01*
X104402253Y-53128401D01*
X104416868Y-53148107D01*
X104429480Y-53169150D01*
X104439970Y-53191329D01*
X104448235Y-53214428D01*
X104454196Y-53238227D01*
X104457796Y-53262495D01*
X104459000Y-53286999D01*
X104459000Y-53937001D01*
X104457796Y-53961505D01*
X104454196Y-53985773D01*
X104448235Y-54009572D01*
X104439970Y-54032671D01*
X104429480Y-54054850D01*
X104416868Y-54075893D01*
X104402253Y-54095599D01*
X104385777Y-54113777D01*
X104367599Y-54130253D01*
X104347893Y-54144868D01*
X104326850Y-54157480D01*
X104304671Y-54167970D01*
X104281572Y-54176235D01*
X104257773Y-54182196D01*
X104233505Y-54185796D01*
X104209001Y-54187000D01*
X103308999Y-54187000D01*
X103284495Y-54185796D01*
X103260227Y-54182196D01*
X103236428Y-54176235D01*
X103213329Y-54167970D01*
X103191150Y-54157480D01*
X103170107Y-54144868D01*
X103150401Y-54130253D01*
X103132223Y-54113777D01*
X103115747Y-54095599D01*
X103101132Y-54075893D01*
X103088520Y-54054850D01*
X103078030Y-54032671D01*
X103069765Y-54009572D01*
X103063804Y-53985773D01*
X103060204Y-53961505D01*
X103059000Y-53937001D01*
X103059000Y-53286999D01*
X103060204Y-53262495D01*
X103063804Y-53238227D01*
X103069765Y-53214428D01*
X103078030Y-53191329D01*
X103088520Y-53169150D01*
X103101132Y-53148107D01*
X103115747Y-53128401D01*
X103132223Y-53110223D01*
X103150401Y-53093747D01*
X103170107Y-53079132D01*
X103191150Y-53066520D01*
X103213329Y-53056030D01*
X103236428Y-53047765D01*
X103260227Y-53041804D01*
X103284495Y-53038204D01*
X103308999Y-53037000D01*
X104209001Y-53037000D01*
X104233505Y-53038204D01*
X104233505Y-53038204D01*
G37*
D24*
G04 #@! TD*
G04 #@! TO.P,R5,2*
G04 #@! TO.N,Net-(R5-Pad2)*
X103759000Y-53612000D03*
D17*
G04 #@! TO.N,VCC*
G04 #@! TO.C,R5*
G36*
X104233505Y-50988204D02*
X104257773Y-50991804D01*
X104281572Y-50997765D01*
X104304671Y-51006030D01*
X104326850Y-51016520D01*
X104347893Y-51029132D01*
X104367599Y-51043747D01*
X104385777Y-51060223D01*
X104402253Y-51078401D01*
X104416868Y-51098107D01*
X104429480Y-51119150D01*
X104439970Y-51141329D01*
X104448235Y-51164428D01*
X104454196Y-51188227D01*
X104457796Y-51212495D01*
X104459000Y-51236999D01*
X104459000Y-51887001D01*
X104457796Y-51911505D01*
X104454196Y-51935773D01*
X104448235Y-51959572D01*
X104439970Y-51982671D01*
X104429480Y-52004850D01*
X104416868Y-52025893D01*
X104402253Y-52045599D01*
X104385777Y-52063777D01*
X104367599Y-52080253D01*
X104347893Y-52094868D01*
X104326850Y-52107480D01*
X104304671Y-52117970D01*
X104281572Y-52126235D01*
X104257773Y-52132196D01*
X104233505Y-52135796D01*
X104209001Y-52137000D01*
X103308999Y-52137000D01*
X103284495Y-52135796D01*
X103260227Y-52132196D01*
X103236428Y-52126235D01*
X103213329Y-52117970D01*
X103191150Y-52107480D01*
X103170107Y-52094868D01*
X103150401Y-52080253D01*
X103132223Y-52063777D01*
X103115747Y-52045599D01*
X103101132Y-52025893D01*
X103088520Y-52004850D01*
X103078030Y-51982671D01*
X103069765Y-51959572D01*
X103063804Y-51935773D01*
X103060204Y-51911505D01*
X103059000Y-51887001D01*
X103059000Y-51236999D01*
X103060204Y-51212495D01*
X103063804Y-51188227D01*
X103069765Y-51164428D01*
X103078030Y-51141329D01*
X103088520Y-51119150D01*
X103101132Y-51098107D01*
X103115747Y-51078401D01*
X103132223Y-51060223D01*
X103150401Y-51043747D01*
X103170107Y-51029132D01*
X103191150Y-51016520D01*
X103213329Y-51006030D01*
X103236428Y-50997765D01*
X103260227Y-50991804D01*
X103284495Y-50988204D01*
X103308999Y-50987000D01*
X104209001Y-50987000D01*
X104233505Y-50988204D01*
X104233505Y-50988204D01*
G37*
D24*
G04 #@! TD*
G04 #@! TO.P,R5,1*
G04 #@! TO.N,VCC*
X103759000Y-51562000D03*
D17*
G04 #@! TO.N,Net-(R6-Pad2)*
G04 #@! TO.C,R6*
G36*
X119219505Y-94694204D02*
X119243773Y-94697804D01*
X119267572Y-94703765D01*
X119290671Y-94712030D01*
X119312850Y-94722520D01*
X119333893Y-94735132D01*
X119353599Y-94749747D01*
X119371777Y-94766223D01*
X119388253Y-94784401D01*
X119402868Y-94804107D01*
X119415480Y-94825150D01*
X119425970Y-94847329D01*
X119434235Y-94870428D01*
X119440196Y-94894227D01*
X119443796Y-94918495D01*
X119445000Y-94942999D01*
X119445000Y-95593001D01*
X119443796Y-95617505D01*
X119440196Y-95641773D01*
X119434235Y-95665572D01*
X119425970Y-95688671D01*
X119415480Y-95710850D01*
X119402868Y-95731893D01*
X119388253Y-95751599D01*
X119371777Y-95769777D01*
X119353599Y-95786253D01*
X119333893Y-95800868D01*
X119312850Y-95813480D01*
X119290671Y-95823970D01*
X119267572Y-95832235D01*
X119243773Y-95838196D01*
X119219505Y-95841796D01*
X119195001Y-95843000D01*
X118294999Y-95843000D01*
X118270495Y-95841796D01*
X118246227Y-95838196D01*
X118222428Y-95832235D01*
X118199329Y-95823970D01*
X118177150Y-95813480D01*
X118156107Y-95800868D01*
X118136401Y-95786253D01*
X118118223Y-95769777D01*
X118101747Y-95751599D01*
X118087132Y-95731893D01*
X118074520Y-95710850D01*
X118064030Y-95688671D01*
X118055765Y-95665572D01*
X118049804Y-95641773D01*
X118046204Y-95617505D01*
X118045000Y-95593001D01*
X118045000Y-94942999D01*
X118046204Y-94918495D01*
X118049804Y-94894227D01*
X118055765Y-94870428D01*
X118064030Y-94847329D01*
X118074520Y-94825150D01*
X118087132Y-94804107D01*
X118101747Y-94784401D01*
X118118223Y-94766223D01*
X118136401Y-94749747D01*
X118156107Y-94735132D01*
X118177150Y-94722520D01*
X118199329Y-94712030D01*
X118222428Y-94703765D01*
X118246227Y-94697804D01*
X118270495Y-94694204D01*
X118294999Y-94693000D01*
X119195001Y-94693000D01*
X119219505Y-94694204D01*
X119219505Y-94694204D01*
G37*
D24*
G04 #@! TD*
G04 #@! TO.P,R6,2*
G04 #@! TO.N,Net-(R6-Pad2)*
X118745000Y-95268000D03*
D17*
G04 #@! TO.N,Net-(R6-Pad1)*
G04 #@! TO.C,R6*
G36*
X119219505Y-92644204D02*
X119243773Y-92647804D01*
X119267572Y-92653765D01*
X119290671Y-92662030D01*
X119312850Y-92672520D01*
X119333893Y-92685132D01*
X119353599Y-92699747D01*
X119371777Y-92716223D01*
X119388253Y-92734401D01*
X119402868Y-92754107D01*
X119415480Y-92775150D01*
X119425970Y-92797329D01*
X119434235Y-92820428D01*
X119440196Y-92844227D01*
X119443796Y-92868495D01*
X119445000Y-92892999D01*
X119445000Y-93543001D01*
X119443796Y-93567505D01*
X119440196Y-93591773D01*
X119434235Y-93615572D01*
X119425970Y-93638671D01*
X119415480Y-93660850D01*
X119402868Y-93681893D01*
X119388253Y-93701599D01*
X119371777Y-93719777D01*
X119353599Y-93736253D01*
X119333893Y-93750868D01*
X119312850Y-93763480D01*
X119290671Y-93773970D01*
X119267572Y-93782235D01*
X119243773Y-93788196D01*
X119219505Y-93791796D01*
X119195001Y-93793000D01*
X118294999Y-93793000D01*
X118270495Y-93791796D01*
X118246227Y-93788196D01*
X118222428Y-93782235D01*
X118199329Y-93773970D01*
X118177150Y-93763480D01*
X118156107Y-93750868D01*
X118136401Y-93736253D01*
X118118223Y-93719777D01*
X118101747Y-93701599D01*
X118087132Y-93681893D01*
X118074520Y-93660850D01*
X118064030Y-93638671D01*
X118055765Y-93615572D01*
X118049804Y-93591773D01*
X118046204Y-93567505D01*
X118045000Y-93543001D01*
X118045000Y-92892999D01*
X118046204Y-92868495D01*
X118049804Y-92844227D01*
X118055765Y-92820428D01*
X118064030Y-92797329D01*
X118074520Y-92775150D01*
X118087132Y-92754107D01*
X118101747Y-92734401D01*
X118118223Y-92716223D01*
X118136401Y-92699747D01*
X118156107Y-92685132D01*
X118177150Y-92672520D01*
X118199329Y-92662030D01*
X118222428Y-92653765D01*
X118246227Y-92647804D01*
X118270495Y-92644204D01*
X118294999Y-92643000D01*
X119195001Y-92643000D01*
X119219505Y-92644204D01*
X119219505Y-92644204D01*
G37*
D24*
G04 #@! TD*
G04 #@! TO.P,R6,1*
G04 #@! TO.N,Net-(R6-Pad1)*
X118745000Y-93218000D03*
D22*
G04 #@! TO.P,R7,2*
G04 #@! TO.N,Net-(C1-Pad1)*
X62230000Y-86487000D03*
D23*
G04 #@! TO.P,R7,1*
G04 #@! TO.N,Net-(R7-Pad1)*
X62230000Y-96647000D03*
G04 #@! TD*
D22*
G04 #@! TO.P,R8,2*
G04 #@! TO.N,/L*
X71882000Y-87249000D03*
D23*
G04 #@! TO.P,R8,1*
G04 #@! TO.N,Net-(C1-Pad1)*
X71882000Y-97409000D03*
G04 #@! TD*
D22*
G04 #@! TO.P,R9,2*
G04 #@! TO.N,Net-(C2-Pad1)*
X89027000Y-99187000D03*
D23*
G04 #@! TO.P,R9,1*
G04 #@! TO.N,/L*
X89027000Y-89027000D03*
G04 #@! TD*
D22*
G04 #@! TO.P,U1,4*
G04 #@! TO.N,Net-(R5-Pad2)*
X100457000Y-52197000D03*
G04 #@! TO.P,U1,2*
G04 #@! TO.N,Net-(R3-Pad2)*
X92837000Y-54737000D03*
G04 #@! TO.P,U1,3*
G04 #@! TO.N,GND*
X100457000Y-54737000D03*
D25*
G04 #@! TO.P,U1,1*
G04 #@! TO.N,Net-(R1-Pad1)*
X92837000Y-52197000D03*
G04 #@! TD*
D23*
G04 #@! TO.P,C2,2*
G04 #@! TO.N,Net-(C1-Pad2)*
X77209000Y-98933000D03*
G04 #@! TO.P,C2,1*
G04 #@! TO.N,Net-(C2-Pad1)*
X84709000Y-98933000D03*
G04 #@! TD*
D26*
G04 #@! TO.N,*
X112649000Y-56007000D02*
X112649000Y-86614000D01*
D27*
G04 #@! TO.N,Net-(C1-Pad1)*
X62230000Y-91186000D02*
X65532000Y-94488000D01*
X62230000Y-86487000D02*
X62230000Y-91186000D01*
X68961000Y-94488000D02*
X71882000Y-97409000D01*
X65532000Y-94488000D02*
X68961000Y-94488000D01*
G04 #@! TO.N,Net-(C1-Pad2)*
X77209000Y-97543000D02*
X80264000Y-94488000D01*
X77209000Y-98933000D02*
X77209000Y-97543000D01*
X64770000Y-86226000D02*
X65532000Y-86988000D01*
X64770000Y-80137000D02*
X64770000Y-86226000D01*
X77209000Y-98665000D02*
X77209000Y-98933000D01*
X65532000Y-86988000D02*
X77209000Y-98665000D01*
G04 #@! TO.N,Net-(C2-Pad1)*
X84963000Y-99187000D02*
X84709000Y-98933000D01*
X89027000Y-99187000D02*
X84963000Y-99187000D01*
G04 #@! TO.N,/L*
X77470000Y-57531000D02*
X77470000Y-71501000D01*
X77470000Y-71501000D02*
X75779000Y-73192000D01*
X72681999Y-86449001D02*
X72681999Y-83655001D01*
X71882000Y-87249000D02*
X72681999Y-86449001D01*
X72681999Y-83655001D02*
X74422000Y-81915000D01*
X74422000Y-81915000D02*
X76962000Y-81915000D01*
X77470000Y-81407000D02*
X77470000Y-71501000D01*
X76962000Y-81915000D02*
X77470000Y-81407000D01*
X89027000Y-89027000D02*
X86106000Y-89027000D01*
X83185000Y-91948000D02*
X80264000Y-91948000D01*
X86106000Y-89027000D02*
X83185000Y-91948000D01*
X76581000Y-91948000D02*
X75692000Y-91059000D01*
X80264000Y-91948000D02*
X76581000Y-91948000D01*
X75692000Y-91059000D02*
X75692000Y-88900000D01*
X74041000Y-87249000D02*
X71882000Y-87249000D01*
X75692000Y-88900000D02*
X74041000Y-87249000D01*
X72517000Y-55245000D02*
X72517000Y-51689000D01*
X67183000Y-55245000D02*
X72517000Y-55245000D01*
X75934370Y-57531000D02*
X77470000Y-57531000D01*
X73648370Y-55245000D02*
X75934370Y-57531000D01*
X72517000Y-55245000D02*
X73648370Y-55245000D01*
X70517000Y-73192000D02*
X75779000Y-73192000D01*
X64770000Y-59690000D02*
X64770000Y-56007000D01*
X65532000Y-55245000D02*
X67183000Y-55245000D01*
X64770000Y-56007000D02*
X65532000Y-55245000D01*
G04 #@! TO.N,/N*
X72644000Y-59436000D02*
X72644000Y-62992000D01*
X72644000Y-62992000D02*
X67310000Y-62992000D01*
X65532000Y-74803000D02*
X65659000Y-74930000D01*
X67382000Y-75057000D02*
X70517000Y-78192000D01*
X64770000Y-75057000D02*
X67382000Y-75057000D01*
X64770000Y-73157000D02*
X64770000Y-64770000D01*
X64770000Y-75057000D02*
X64770000Y-73157000D01*
X65548000Y-62992000D02*
X67310000Y-62992000D01*
X64770000Y-63770000D02*
X65548000Y-62992000D01*
X64770000Y-64770000D02*
X64770000Y-63770000D01*
G04 #@! TO.N,Net-(Q1-Pad3)*
X80264000Y-87455500D02*
X80264000Y-89408000D01*
X81359500Y-86360000D02*
X80264000Y-87455500D01*
X92691000Y-86360000D02*
X81359500Y-86360000D01*
X95123000Y-90043000D02*
X95123000Y-88792000D01*
X95123000Y-88792000D02*
X92691000Y-86360000D01*
G04 #@! TO.N,Net-(R1-Pad1)*
X82677000Y-55245000D02*
X82677000Y-51689000D01*
X92329000Y-51689000D02*
X92837000Y-52197000D01*
X82677000Y-51689000D02*
X92329000Y-51689000D01*
G04 #@! TO.N,Net-(R3-Pad2)*
X82804000Y-62992000D02*
X82804000Y-59436000D01*
X87503000Y-54737000D02*
X92837000Y-54737000D01*
X82804000Y-59436000D02*
X87503000Y-54737000D01*
D28*
G04 #@! TO.N,Net-(R5-Pad2)*
X103759000Y-53612000D02*
X105138000Y-53612000D01*
X106172000Y-52578000D02*
X107442000Y-52578000D01*
X105138000Y-53612000D02*
X106172000Y-52578000D01*
X101872000Y-53612000D02*
X103759000Y-53612000D01*
X100457000Y-52197000D02*
X101872000Y-53612000D01*
G04 #@! TO.N,Net-(R6-Pad2)*
X118121628Y-95891372D02*
X118121628Y-100953372D01*
X118745000Y-95268000D02*
X118121628Y-95891372D01*
X118121628Y-100953372D02*
X116730010Y-102344990D01*
X116730010Y-102344990D02*
X103614990Y-102344990D01*
X103614990Y-102344990D02*
X102743000Y-101473000D01*
X102743000Y-101473000D02*
X102743000Y-95123000D01*
G04 #@! TO.N,Net-(R7-Pad1)*
X62230000Y-99568000D02*
X62230000Y-96647000D01*
X64516000Y-101854000D02*
X62230000Y-99568000D01*
X90678000Y-101854000D02*
X64516000Y-101854000D01*
X95123000Y-95123000D02*
X95123000Y-97409000D01*
X95123000Y-97409000D02*
X90678000Y-101854000D01*
G04 #@! TO.N,GND*
X105791000Y-98298000D02*
X107442000Y-98298000D01*
X105156000Y-97663000D02*
X105791000Y-98298000D01*
X105156000Y-71818000D02*
X105156000Y-91821000D01*
X105156000Y-91567000D02*
X105156000Y-91821000D01*
X102743000Y-92583000D02*
X105156000Y-92583000D01*
X105156000Y-91821000D02*
X105156000Y-92583000D01*
X105156000Y-92583000D02*
X105156000Y-97663000D01*
X105156000Y-71223000D02*
X105156000Y-71818000D01*
X101925000Y-67992000D02*
X105156000Y-71223000D01*
X99917000Y-67992000D02*
X101925000Y-67992000D01*
X100457000Y-67452000D02*
X99917000Y-67992000D01*
X100457000Y-54737000D02*
X100457000Y-67452000D01*
X107442000Y-98298000D02*
X112903000Y-92837000D01*
X112903000Y-92837000D02*
X112903000Y-90297000D01*
G04 #@! TO.N,/Reset*
X122682000Y-88138000D02*
X135382000Y-88138000D01*
X136509000Y-87011000D02*
X136509000Y-83057000D01*
X135382000Y-88138000D02*
X136509000Y-87011000D01*
G04 #@! TO.N,/nIRQ*
X123759630Y-85598000D02*
X124648630Y-86487000D01*
X122682000Y-85598000D02*
X123759630Y-85598000D01*
X124648630Y-86487000D02*
X133985000Y-86487000D01*
X134509000Y-85963000D02*
X134509000Y-83057000D01*
X133985000Y-86487000D02*
X134509000Y-85963000D01*
G04 #@! TO.N,/DIO1*
X122682000Y-83058000D02*
X125095000Y-83058000D01*
X125095000Y-83058000D02*
X127508000Y-80645000D01*
X127508000Y-80645000D02*
X131699000Y-80645000D01*
X132509000Y-81455000D02*
X132509000Y-83057000D01*
X131699000Y-80645000D02*
X132509000Y-81455000D01*
G04 #@! TO.N,/NSS*
X122682000Y-80518000D02*
X125857000Y-80518000D01*
X125857000Y-80518000D02*
X127889000Y-78486000D01*
X127889000Y-78486000D02*
X138176000Y-78486000D01*
X140509000Y-76153000D02*
X140509000Y-67057000D01*
X138176000Y-78486000D02*
X140509000Y-76153000D01*
G04 #@! TO.N,/SCK*
X123443999Y-77216001D02*
X133095999Y-77216001D01*
X122682000Y-77978000D02*
X123443999Y-77216001D01*
X134509000Y-75803000D02*
X134509000Y-67057000D01*
X133095999Y-77216001D02*
X134509000Y-75803000D01*
G04 #@! TO.N,/MISO*
X136509000Y-65557000D02*
X135595000Y-64643000D01*
X136509000Y-67057000D02*
X136509000Y-65557000D01*
X135595000Y-64643000D02*
X127508000Y-64643000D01*
X127508000Y-64643000D02*
X126238000Y-65913000D01*
X126238000Y-65913000D02*
X126238000Y-74676000D01*
X125476000Y-75438000D02*
X122682000Y-75438000D01*
X126238000Y-74676000D02*
X125476000Y-75438000D01*
G04 #@! TO.N,/MOSI*
X123759630Y-72898000D02*
X124968000Y-71689630D01*
X122682000Y-72898000D02*
X123759630Y-72898000D01*
X124968000Y-71689630D02*
X124968000Y-64516000D01*
X124968000Y-64516000D02*
X126492000Y-62992000D01*
X126492000Y-62992000D02*
X137668000Y-62992000D01*
X138509000Y-63833000D02*
X138509000Y-67057000D01*
X137668000Y-62992000D02*
X138509000Y-63833000D01*
G04 #@! TO.N,VCC*
X119888000Y-50292000D02*
X120396000Y-50292000D01*
X120396000Y-50292000D02*
X137541000Y-50292000D01*
X105029000Y-50292000D02*
X103759000Y-51562000D01*
X114554000Y-50292000D02*
X105029000Y-50292000D01*
X122682000Y-57658000D02*
X121604370Y-57658000D01*
X114554000Y-50292000D02*
X115570000Y-50292000D01*
X115570000Y-50292000D02*
X119888000Y-50292000D01*
X115570000Y-51054000D02*
X115570000Y-50292000D01*
X115570000Y-51623630D02*
X115570000Y-51054000D01*
X109601000Y-100838000D02*
X107442000Y-100838000D01*
X137922000Y-50292000D02*
X138811000Y-50292000D01*
X137922000Y-50292000D02*
X138176000Y-50292000D01*
X137541000Y-50292000D02*
X137922000Y-50292000D01*
X138811000Y-50292000D02*
X144272000Y-55753000D01*
X144272000Y-55753000D02*
X144272000Y-77343000D01*
X144272000Y-77343000D02*
X142367000Y-79248000D01*
X142367000Y-79248000D02*
X139827000Y-79248000D01*
X138509000Y-80566000D02*
X138509000Y-83057000D01*
X139827000Y-79248000D02*
X138509000Y-80566000D01*
X98298000Y-51308000D02*
X99314000Y-50292000D01*
X98298000Y-64135000D02*
X98298000Y-51308000D01*
X99917000Y-82138000D02*
X100584000Y-81471000D01*
X99917000Y-83392000D02*
X99917000Y-82138000D01*
X100584000Y-81471000D02*
X100584000Y-72390000D01*
X100584000Y-72390000D02*
X96901000Y-68707000D01*
X96901000Y-68707000D02*
X96901000Y-65532000D01*
X99314000Y-50292000D02*
X105029000Y-50292000D01*
X96901000Y-65532000D02*
X98298000Y-64135000D01*
X115570000Y-94869000D02*
X110744000Y-99695000D01*
X111125000Y-99314000D02*
X110744000Y-99695000D01*
X110744000Y-99695000D02*
X109601000Y-100838000D01*
X115570000Y-94869000D02*
X115570000Y-89789000D01*
X121604370Y-57658000D02*
X118618000Y-54671630D01*
X118618000Y-86741000D02*
X118618000Y-54671630D01*
X115570000Y-89789000D02*
X118618000Y-86741000D01*
X118618000Y-54671630D02*
X115570000Y-51623630D01*
G04 #@! TO.N,Net-(U2-Pad39)*
X122682000Y-55118000D02*
X122682000Y-52578000D01*
X122682000Y-55118000D02*
X140716000Y-55118000D01*
X142509000Y-56911000D02*
X142509000Y-67057000D01*
X140716000Y-55118000D02*
X142509000Y-56911000D01*
G04 #@! TO.N,Net-(R6-Pad1)*
X122682000Y-93218000D02*
X118745000Y-93218000D01*
G04 #@! TD*
M02*
