M48
;DRILL file {KiCad (5.0.2)-1} date 27.03.2019 17:42:59
;FORMAT={-:-/ absolute / metric / decimal}
FMAT,2
METRIC,TZ
T1C0.762
T2C0.800
T3C1.000
T4C1.100
T5C1.200
%
G90
G05
T1
X110.765Y-52.345
X110.765Y-54.885
X110.765Y-57.425
X110.765Y-59.965
X110.765Y-62.505
X110.765Y-65.045
X110.765Y-67.585
X110.765Y-70.125
X110.765Y-72.665
X110.765Y-75.205
X110.765Y-77.745
X110.765Y-80.285
X110.765Y-82.825
X110.765Y-85.365
X110.765Y-87.905
X110.765Y-90.445
X110.765Y-92.985
X110.765Y-95.525
X110.765Y-98.065
X110.765Y-100.605
X126.005Y-52.345
X126.005Y-54.885
X126.005Y-57.425
X126.005Y-59.965
X126.005Y-62.505
X126.005Y-65.045
X126.005Y-67.585
X126.005Y-70.125
X126.005Y-72.665
X126.005Y-75.205
X126.005Y-77.745
X126.005Y-80.285
X126.005Y-82.825
X126.005Y-85.365
X126.005Y-87.905
X126.005Y-90.445
X126.005Y-92.985
X126.005Y-95.525
X126.005Y-98.065
X126.005Y-100.605
T2
X63.5Y-86.36
X63.5Y-96.52
X89.027Y-89.027
X89.027Y-99.187
X80.772Y-55.372
X90.932Y-55.372
X72.644Y-59.436
X82.804Y-59.436
X77.209Y-98.933
X84.709Y-98.933
X71.882Y-87.249
X71.882Y-97.409
X80.772Y-51.816
X90.932Y-51.816
X95.504Y-51.816
X95.504Y-54.356
X103.124Y-51.816
X103.124Y-54.356
X72.644Y-62.992
X82.804Y-62.992
X92.837Y-87.63
X92.837Y-90.17
X92.837Y-92.71
X102.997Y-87.63
X102.997Y-90.17
X102.997Y-92.71
T3
X73.184Y-73.192
X73.184Y-78.192
X102.584Y-67.992
X102.584Y-83.392
X67.056Y-86.861
X67.056Y-94.361
T4
X80.264Y-89.408
X80.264Y-91.948
X80.264Y-94.488
T5
X65.659Y-74.93
X65.659Y-80.01
X65.532Y-59.69
X65.532Y-64.77
T0
M30
