G04 #@! TF.GenerationSoftware,KiCad,Pcbnew,(5.0.2)-1*
G04 #@! TF.CreationDate,2019-03-27T17:40:45+02:00*
G04 #@! TF.ProjectId,vent_sys,76656e74-5f73-4797-932e-6b696361645f,rev?*
G04 #@! TF.SameCoordinates,Original*
G04 #@! TF.FileFunction,Soldermask,Top*
G04 #@! TF.FilePolarity,Negative*
%FSLAX46Y46*%
G04 Gerber Fmt 4.6, Leading zero omitted, Abs format (unit mm)*
G04 Created by KiCad (PCBNEW (5.0.2)-1) date 27.03.2019 17:40:45*
%MOMM*%
%LPD*%
G01*
G04 APERTURE LIST*
%ADD10C,0.100000*%
G04 APERTURE END LIST*
D10*
G36*
X126242143Y-99823243D02*
X126390103Y-99884531D01*
X126523259Y-99973503D01*
X126636499Y-100086743D01*
X126725471Y-100219899D01*
X126786759Y-100367859D01*
X126818001Y-100524926D01*
X126818001Y-100685076D01*
X126786759Y-100842143D01*
X126725471Y-100990103D01*
X126636499Y-101123259D01*
X126523259Y-101236499D01*
X126390103Y-101325471D01*
X126242143Y-101386759D01*
X126085076Y-101418001D01*
X125924926Y-101418001D01*
X125767859Y-101386759D01*
X125619899Y-101325471D01*
X125486743Y-101236499D01*
X125373503Y-101123259D01*
X125284531Y-100990103D01*
X125223243Y-100842143D01*
X125192001Y-100685076D01*
X125192001Y-100524926D01*
X125223243Y-100367859D01*
X125284531Y-100219899D01*
X125373503Y-100086743D01*
X125486743Y-99973503D01*
X125619899Y-99884531D01*
X125767859Y-99823243D01*
X125924926Y-99792001D01*
X126085076Y-99792001D01*
X126242143Y-99823243D01*
X126242143Y-99823243D01*
G37*
G36*
X111002143Y-99823243D02*
X111150103Y-99884531D01*
X111283259Y-99973503D01*
X111396499Y-100086743D01*
X111485471Y-100219899D01*
X111546759Y-100367859D01*
X111578001Y-100524926D01*
X111578001Y-100685076D01*
X111546759Y-100842143D01*
X111485471Y-100990103D01*
X111396499Y-101123259D01*
X111283259Y-101236499D01*
X111150103Y-101325471D01*
X111002143Y-101386759D01*
X110845076Y-101418001D01*
X110684926Y-101418001D01*
X110527859Y-101386759D01*
X110379899Y-101325471D01*
X110246743Y-101236499D01*
X110133503Y-101123259D01*
X110044531Y-100990103D01*
X109983243Y-100842143D01*
X109952001Y-100685076D01*
X109952001Y-100524926D01*
X109983243Y-100367859D01*
X110044531Y-100219899D01*
X110133503Y-100086743D01*
X110246743Y-99973503D01*
X110379899Y-99884531D01*
X110527859Y-99823243D01*
X110684926Y-99792001D01*
X110845076Y-99792001D01*
X111002143Y-99823243D01*
X111002143Y-99823243D01*
G37*
G36*
X89193821Y-98348313D02*
X89193824Y-98348314D01*
X89193825Y-98348314D01*
X89354239Y-98396975D01*
X89354241Y-98396976D01*
X89354244Y-98396977D01*
X89502078Y-98475995D01*
X89631659Y-98582341D01*
X89738005Y-98711922D01*
X89817023Y-98859756D01*
X89865687Y-99020179D01*
X89882117Y-99187000D01*
X89865687Y-99353821D01*
X89817023Y-99514244D01*
X89738005Y-99662078D01*
X89631659Y-99791659D01*
X89502078Y-99898005D01*
X89354244Y-99977023D01*
X89354241Y-99977024D01*
X89354239Y-99977025D01*
X89193825Y-100025686D01*
X89193824Y-100025686D01*
X89193821Y-100025687D01*
X89068804Y-100038000D01*
X88985196Y-100038000D01*
X88860179Y-100025687D01*
X88860176Y-100025686D01*
X88860175Y-100025686D01*
X88699761Y-99977025D01*
X88699759Y-99977024D01*
X88699756Y-99977023D01*
X88551922Y-99898005D01*
X88422341Y-99791659D01*
X88315995Y-99662078D01*
X88236977Y-99514244D01*
X88188313Y-99353821D01*
X88171883Y-99187000D01*
X88188313Y-99020179D01*
X88236977Y-98859756D01*
X88315995Y-98711922D01*
X88422341Y-98582341D01*
X88551922Y-98475995D01*
X88699756Y-98396977D01*
X88699759Y-98396976D01*
X88699761Y-98396975D01*
X88860175Y-98348314D01*
X88860176Y-98348314D01*
X88860179Y-98348313D01*
X88985196Y-98336000D01*
X89068804Y-98336000D01*
X89193821Y-98348313D01*
X89193821Y-98348313D01*
G37*
G36*
X77457228Y-98114703D02*
X77612100Y-98178853D01*
X77751481Y-98271985D01*
X77870015Y-98390519D01*
X77963147Y-98529900D01*
X78027297Y-98684772D01*
X78060000Y-98849184D01*
X78060000Y-99016816D01*
X78027297Y-99181228D01*
X77963147Y-99336100D01*
X77870015Y-99475481D01*
X77751481Y-99594015D01*
X77612100Y-99687147D01*
X77457228Y-99751297D01*
X77292816Y-99784000D01*
X77125184Y-99784000D01*
X76960772Y-99751297D01*
X76805900Y-99687147D01*
X76666519Y-99594015D01*
X76547985Y-99475481D01*
X76454853Y-99336100D01*
X76390703Y-99181228D01*
X76358000Y-99016816D01*
X76358000Y-98849184D01*
X76390703Y-98684772D01*
X76454853Y-98529900D01*
X76547985Y-98390519D01*
X76666519Y-98271985D01*
X76805900Y-98178853D01*
X76960772Y-98114703D01*
X77125184Y-98082000D01*
X77292816Y-98082000D01*
X77457228Y-98114703D01*
X77457228Y-98114703D01*
G37*
G36*
X84957228Y-98114703D02*
X85112100Y-98178853D01*
X85251481Y-98271985D01*
X85370015Y-98390519D01*
X85463147Y-98529900D01*
X85527297Y-98684772D01*
X85560000Y-98849184D01*
X85560000Y-99016816D01*
X85527297Y-99181228D01*
X85463147Y-99336100D01*
X85370015Y-99475481D01*
X85251481Y-99594015D01*
X85112100Y-99687147D01*
X84957228Y-99751297D01*
X84792816Y-99784000D01*
X84625184Y-99784000D01*
X84460772Y-99751297D01*
X84305900Y-99687147D01*
X84166519Y-99594015D01*
X84047985Y-99475481D01*
X83954853Y-99336100D01*
X83890703Y-99181228D01*
X83858000Y-99016816D01*
X83858000Y-98849184D01*
X83890703Y-98684772D01*
X83954853Y-98529900D01*
X84047985Y-98390519D01*
X84166519Y-98271985D01*
X84305900Y-98178853D01*
X84460772Y-98114703D01*
X84625184Y-98082000D01*
X84792816Y-98082000D01*
X84957228Y-98114703D01*
X84957228Y-98114703D01*
G37*
G36*
X126242143Y-97283243D02*
X126390103Y-97344531D01*
X126523259Y-97433503D01*
X126636499Y-97546743D01*
X126725471Y-97679899D01*
X126786759Y-97827859D01*
X126818001Y-97984926D01*
X126818001Y-98145076D01*
X126786759Y-98302143D01*
X126725471Y-98450103D01*
X126708170Y-98475996D01*
X126637113Y-98582341D01*
X126636499Y-98583259D01*
X126523259Y-98696499D01*
X126390103Y-98785471D01*
X126242143Y-98846759D01*
X126085076Y-98878001D01*
X125924926Y-98878001D01*
X125767859Y-98846759D01*
X125619899Y-98785471D01*
X125486743Y-98696499D01*
X125373503Y-98583259D01*
X125372890Y-98582341D01*
X125301832Y-98475996D01*
X125284531Y-98450103D01*
X125223243Y-98302143D01*
X125192001Y-98145076D01*
X125192001Y-97984926D01*
X125223243Y-97827859D01*
X125284531Y-97679899D01*
X125373503Y-97546743D01*
X125486743Y-97433503D01*
X125619899Y-97344531D01*
X125767859Y-97283243D01*
X125924926Y-97252001D01*
X126085076Y-97252001D01*
X126242143Y-97283243D01*
X126242143Y-97283243D01*
G37*
G36*
X111002143Y-97283243D02*
X111150103Y-97344531D01*
X111283259Y-97433503D01*
X111396499Y-97546743D01*
X111485471Y-97679899D01*
X111546759Y-97827859D01*
X111578001Y-97984926D01*
X111578001Y-98145076D01*
X111546759Y-98302143D01*
X111485471Y-98450103D01*
X111468170Y-98475996D01*
X111397113Y-98582341D01*
X111396499Y-98583259D01*
X111283259Y-98696499D01*
X111150103Y-98785471D01*
X111002143Y-98846759D01*
X110845076Y-98878001D01*
X110684926Y-98878001D01*
X110527859Y-98846759D01*
X110379899Y-98785471D01*
X110246743Y-98696499D01*
X110133503Y-98583259D01*
X110132890Y-98582341D01*
X110061832Y-98475996D01*
X110044531Y-98450103D01*
X109983243Y-98302143D01*
X109952001Y-98145076D01*
X109952001Y-97984926D01*
X109983243Y-97827859D01*
X110044531Y-97679899D01*
X110133503Y-97546743D01*
X110246743Y-97433503D01*
X110379899Y-97344531D01*
X110527859Y-97283243D01*
X110684926Y-97252001D01*
X110845076Y-97252001D01*
X111002143Y-97283243D01*
X111002143Y-97283243D01*
G37*
G36*
X72130228Y-96590703D02*
X72285100Y-96654853D01*
X72424481Y-96747985D01*
X72543015Y-96866519D01*
X72636147Y-97005900D01*
X72700297Y-97160772D01*
X72733000Y-97325184D01*
X72733000Y-97492816D01*
X72700297Y-97657228D01*
X72636147Y-97812100D01*
X72543015Y-97951481D01*
X72424481Y-98070015D01*
X72285100Y-98163147D01*
X72130228Y-98227297D01*
X71965816Y-98260000D01*
X71798184Y-98260000D01*
X71633772Y-98227297D01*
X71478900Y-98163147D01*
X71339519Y-98070015D01*
X71220985Y-97951481D01*
X71127853Y-97812100D01*
X71063703Y-97657228D01*
X71031000Y-97492816D01*
X71031000Y-97325184D01*
X71063703Y-97160772D01*
X71127853Y-97005900D01*
X71220985Y-96866519D01*
X71339519Y-96747985D01*
X71478900Y-96654853D01*
X71633772Y-96590703D01*
X71798184Y-96558000D01*
X71965816Y-96558000D01*
X72130228Y-96590703D01*
X72130228Y-96590703D01*
G37*
G36*
X63748228Y-95701703D02*
X63903100Y-95765853D01*
X64042481Y-95858985D01*
X64161015Y-95977519D01*
X64254147Y-96116900D01*
X64318297Y-96271772D01*
X64351000Y-96436184D01*
X64351000Y-96603816D01*
X64318297Y-96768228D01*
X64254147Y-96923100D01*
X64161015Y-97062481D01*
X64042481Y-97181015D01*
X63903100Y-97274147D01*
X63748228Y-97338297D01*
X63583816Y-97371000D01*
X63416184Y-97371000D01*
X63251772Y-97338297D01*
X63096900Y-97274147D01*
X62957519Y-97181015D01*
X62838985Y-97062481D01*
X62745853Y-96923100D01*
X62681703Y-96768228D01*
X62649000Y-96603816D01*
X62649000Y-96436184D01*
X62681703Y-96271772D01*
X62745853Y-96116900D01*
X62838985Y-95977519D01*
X62957519Y-95858985D01*
X63096900Y-95765853D01*
X63251772Y-95701703D01*
X63416184Y-95669000D01*
X63583816Y-95669000D01*
X63748228Y-95701703D01*
X63748228Y-95701703D01*
G37*
G36*
X126242143Y-94743243D02*
X126390103Y-94804531D01*
X126523259Y-94893503D01*
X126636499Y-95006743D01*
X126725471Y-95139899D01*
X126786759Y-95287859D01*
X126818001Y-95444926D01*
X126818001Y-95605076D01*
X126786759Y-95762143D01*
X126725471Y-95910103D01*
X126636499Y-96043259D01*
X126523259Y-96156499D01*
X126390103Y-96245471D01*
X126242143Y-96306759D01*
X126085076Y-96338001D01*
X125924926Y-96338001D01*
X125767859Y-96306759D01*
X125619899Y-96245471D01*
X125486743Y-96156499D01*
X125373503Y-96043259D01*
X125284531Y-95910103D01*
X125223243Y-95762143D01*
X125192001Y-95605076D01*
X125192001Y-95444926D01*
X125223243Y-95287859D01*
X125284531Y-95139899D01*
X125373503Y-95006743D01*
X125486743Y-94893503D01*
X125619899Y-94804531D01*
X125767859Y-94743243D01*
X125924926Y-94712001D01*
X126085076Y-94712001D01*
X126242143Y-94743243D01*
X126242143Y-94743243D01*
G37*
G36*
X111002143Y-94743243D02*
X111150103Y-94804531D01*
X111283259Y-94893503D01*
X111396499Y-95006743D01*
X111485471Y-95139899D01*
X111546759Y-95287859D01*
X111578001Y-95444926D01*
X111578001Y-95605076D01*
X111546759Y-95762143D01*
X111485471Y-95910103D01*
X111396499Y-96043259D01*
X111283259Y-96156499D01*
X111150103Y-96245471D01*
X111002143Y-96306759D01*
X110845076Y-96338001D01*
X110684926Y-96338001D01*
X110527859Y-96306759D01*
X110379899Y-96245471D01*
X110246743Y-96156499D01*
X110133503Y-96043259D01*
X110044531Y-95910103D01*
X109983243Y-95762143D01*
X109952001Y-95605076D01*
X109952001Y-95444926D01*
X109983243Y-95287859D01*
X110044531Y-95139899D01*
X110133503Y-95006743D01*
X110246743Y-94893503D01*
X110379899Y-94804531D01*
X110527859Y-94743243D01*
X110684926Y-94712001D01*
X110845076Y-94712001D01*
X111002143Y-94743243D01*
X111002143Y-94743243D01*
G37*
G36*
X81315000Y-95491500D02*
X79213000Y-95491500D01*
X79213000Y-93484500D01*
X81315000Y-93484500D01*
X81315000Y-95491500D01*
X81315000Y-95491500D01*
G37*
G36*
X67362565Y-93350389D02*
X67553834Y-93429615D01*
X67725976Y-93544637D01*
X67872363Y-93691024D01*
X67987385Y-93863166D01*
X68066611Y-94054435D01*
X68107000Y-94257484D01*
X68107000Y-94464516D01*
X68066611Y-94667565D01*
X67987385Y-94858834D01*
X67872363Y-95030976D01*
X67725976Y-95177363D01*
X67553834Y-95292385D01*
X67362565Y-95371611D01*
X67159516Y-95412000D01*
X66952484Y-95412000D01*
X66749435Y-95371611D01*
X66558166Y-95292385D01*
X66386024Y-95177363D01*
X66239637Y-95030976D01*
X66124615Y-94858834D01*
X66045389Y-94667565D01*
X66005000Y-94464516D01*
X66005000Y-94257484D01*
X66045389Y-94054435D01*
X66124615Y-93863166D01*
X66239637Y-93691024D01*
X66386024Y-93544637D01*
X66558166Y-93429615D01*
X66749435Y-93350389D01*
X66952484Y-93310000D01*
X67159516Y-93310000D01*
X67362565Y-93350389D01*
X67362565Y-93350389D01*
G37*
G36*
X111002143Y-92203243D02*
X111150103Y-92264531D01*
X111283259Y-92353503D01*
X111396499Y-92466743D01*
X111485471Y-92599899D01*
X111546759Y-92747859D01*
X111578001Y-92904926D01*
X111578001Y-93065076D01*
X111546759Y-93222143D01*
X111510367Y-93310000D01*
X111485472Y-93370101D01*
X111398662Y-93500023D01*
X111396499Y-93503259D01*
X111283259Y-93616499D01*
X111150103Y-93705471D01*
X111002143Y-93766759D01*
X110845076Y-93798001D01*
X110684926Y-93798001D01*
X110527859Y-93766759D01*
X110379899Y-93705471D01*
X110246743Y-93616499D01*
X110133503Y-93503259D01*
X110131341Y-93500023D01*
X110044530Y-93370101D01*
X110019635Y-93310000D01*
X109983243Y-93222143D01*
X109952001Y-93065076D01*
X109952001Y-92904926D01*
X109983243Y-92747859D01*
X110044531Y-92599899D01*
X110133503Y-92466743D01*
X110246743Y-92353503D01*
X110379899Y-92264531D01*
X110527859Y-92203243D01*
X110684926Y-92172001D01*
X110845076Y-92172001D01*
X111002143Y-92203243D01*
X111002143Y-92203243D01*
G37*
G36*
X126242143Y-92203243D02*
X126390103Y-92264531D01*
X126523259Y-92353503D01*
X126636499Y-92466743D01*
X126725471Y-92599899D01*
X126786759Y-92747859D01*
X126818001Y-92904926D01*
X126818001Y-93065076D01*
X126786759Y-93222143D01*
X126750367Y-93310000D01*
X126725472Y-93370101D01*
X126638662Y-93500023D01*
X126636499Y-93503259D01*
X126523259Y-93616499D01*
X126390103Y-93705471D01*
X126242143Y-93766759D01*
X126085076Y-93798001D01*
X125924926Y-93798001D01*
X125767859Y-93766759D01*
X125619899Y-93705471D01*
X125486743Y-93616499D01*
X125373503Y-93503259D01*
X125371341Y-93500023D01*
X125284530Y-93370101D01*
X125259635Y-93310000D01*
X125223243Y-93222143D01*
X125192001Y-93065076D01*
X125192001Y-92904926D01*
X125223243Y-92747859D01*
X125284531Y-92599899D01*
X125373503Y-92466743D01*
X125486743Y-92353503D01*
X125619899Y-92264531D01*
X125767859Y-92203243D01*
X125924926Y-92172001D01*
X126085076Y-92172001D01*
X126242143Y-92203243D01*
X126242143Y-92203243D01*
G37*
G36*
X103848000Y-93561000D02*
X102146000Y-93561000D01*
X102146000Y-91859000D01*
X103848000Y-91859000D01*
X103848000Y-93561000D01*
X103848000Y-93561000D01*
G37*
G36*
X93003821Y-91871313D02*
X93003824Y-91871314D01*
X93003825Y-91871314D01*
X93164239Y-91919975D01*
X93164241Y-91919976D01*
X93164244Y-91919977D01*
X93312078Y-91998995D01*
X93441659Y-92105341D01*
X93548005Y-92234922D01*
X93627023Y-92382756D01*
X93627024Y-92382759D01*
X93627025Y-92382761D01*
X93652501Y-92466744D01*
X93675687Y-92543179D01*
X93692117Y-92710000D01*
X93675687Y-92876821D01*
X93675686Y-92876824D01*
X93675686Y-92876825D01*
X93653034Y-92951500D01*
X93627023Y-93037244D01*
X93548005Y-93185078D01*
X93441659Y-93314659D01*
X93312078Y-93421005D01*
X93164244Y-93500023D01*
X93164241Y-93500024D01*
X93164239Y-93500025D01*
X93003825Y-93548686D01*
X93003824Y-93548686D01*
X93003821Y-93548687D01*
X92878804Y-93561000D01*
X92795196Y-93561000D01*
X92670179Y-93548687D01*
X92670176Y-93548686D01*
X92670175Y-93548686D01*
X92509761Y-93500025D01*
X92509759Y-93500024D01*
X92509756Y-93500023D01*
X92361922Y-93421005D01*
X92232341Y-93314659D01*
X92125995Y-93185078D01*
X92046977Y-93037244D01*
X92020967Y-92951500D01*
X91998314Y-92876825D01*
X91998314Y-92876824D01*
X91998313Y-92876821D01*
X91981883Y-92710000D01*
X91998313Y-92543179D01*
X92021499Y-92466744D01*
X92046975Y-92382761D01*
X92046976Y-92382759D01*
X92046977Y-92382756D01*
X92125995Y-92234922D01*
X92232341Y-92105341D01*
X92361922Y-91998995D01*
X92509756Y-91919977D01*
X92509759Y-91919976D01*
X92509761Y-91919975D01*
X92670175Y-91871314D01*
X92670176Y-91871314D01*
X92670179Y-91871313D01*
X92795196Y-91859000D01*
X92878804Y-91859000D01*
X93003821Y-91871313D01*
X93003821Y-91871313D01*
G37*
G36*
X80419764Y-90950308D02*
X80508220Y-90959020D01*
X80697381Y-91016401D01*
X80871712Y-91109583D01*
X81024515Y-91234985D01*
X81149917Y-91387788D01*
X81243099Y-91562119D01*
X81300480Y-91751280D01*
X81319855Y-91948000D01*
X81300480Y-92144720D01*
X81243099Y-92333881D01*
X81149917Y-92508212D01*
X81024515Y-92661015D01*
X80871712Y-92786417D01*
X80697381Y-92879599D01*
X80508220Y-92936980D01*
X80419764Y-92945692D01*
X80360796Y-92951500D01*
X80167204Y-92951500D01*
X80108236Y-92945692D01*
X80019780Y-92936980D01*
X79830619Y-92879599D01*
X79656288Y-92786417D01*
X79503485Y-92661015D01*
X79378083Y-92508212D01*
X79284901Y-92333881D01*
X79227520Y-92144720D01*
X79208145Y-91948000D01*
X79227520Y-91751280D01*
X79284901Y-91562119D01*
X79378083Y-91387788D01*
X79503485Y-91234985D01*
X79656288Y-91109583D01*
X79830619Y-91016401D01*
X80019780Y-90959020D01*
X80108236Y-90950308D01*
X80167204Y-90944500D01*
X80360796Y-90944500D01*
X80419764Y-90950308D01*
X80419764Y-90950308D01*
G37*
G36*
X126242143Y-89663243D02*
X126390103Y-89724531D01*
X126523259Y-89813503D01*
X126636499Y-89926743D01*
X126725471Y-90059899D01*
X126786759Y-90207859D01*
X126818001Y-90364926D01*
X126818001Y-90525076D01*
X126786759Y-90682143D01*
X126748437Y-90774659D01*
X126725472Y-90830101D01*
X126638662Y-90960023D01*
X126636499Y-90963259D01*
X126523259Y-91076499D01*
X126390103Y-91165471D01*
X126242143Y-91226759D01*
X126085076Y-91258001D01*
X125924926Y-91258001D01*
X125767859Y-91226759D01*
X125619899Y-91165471D01*
X125486743Y-91076499D01*
X125373503Y-90963259D01*
X125371341Y-90960023D01*
X125284530Y-90830101D01*
X125261565Y-90774659D01*
X125223243Y-90682143D01*
X125192001Y-90525076D01*
X125192001Y-90364926D01*
X125223243Y-90207859D01*
X125284531Y-90059899D01*
X125373503Y-89926743D01*
X125486743Y-89813503D01*
X125619899Y-89724531D01*
X125767859Y-89663243D01*
X125924926Y-89632001D01*
X126085076Y-89632001D01*
X126242143Y-89663243D01*
X126242143Y-89663243D01*
G37*
G36*
X111002143Y-89663243D02*
X111150103Y-89724531D01*
X111283259Y-89813503D01*
X111396499Y-89926743D01*
X111485471Y-90059899D01*
X111546759Y-90207859D01*
X111578001Y-90364926D01*
X111578001Y-90525076D01*
X111546759Y-90682143D01*
X111508437Y-90774659D01*
X111485472Y-90830101D01*
X111398662Y-90960023D01*
X111396499Y-90963259D01*
X111283259Y-91076499D01*
X111150103Y-91165471D01*
X111002143Y-91226759D01*
X110845076Y-91258001D01*
X110684926Y-91258001D01*
X110527859Y-91226759D01*
X110379899Y-91165471D01*
X110246743Y-91076499D01*
X110133503Y-90963259D01*
X110131341Y-90960023D01*
X110044530Y-90830101D01*
X110021565Y-90774659D01*
X109983243Y-90682143D01*
X109952001Y-90525076D01*
X109952001Y-90364926D01*
X109983243Y-90207859D01*
X110044531Y-90059899D01*
X110133503Y-89926743D01*
X110246743Y-89813503D01*
X110379899Y-89724531D01*
X110527859Y-89663243D01*
X110684926Y-89632001D01*
X110845076Y-89632001D01*
X111002143Y-89663243D01*
X111002143Y-89663243D01*
G37*
G36*
X93003821Y-89331313D02*
X93003824Y-89331314D01*
X93003825Y-89331314D01*
X93164239Y-89379975D01*
X93164241Y-89379976D01*
X93164244Y-89379977D01*
X93312078Y-89458995D01*
X93441659Y-89565341D01*
X93548005Y-89694922D01*
X93627023Y-89842756D01*
X93627024Y-89842759D01*
X93627025Y-89842761D01*
X93652501Y-89926744D01*
X93675687Y-90003179D01*
X93692117Y-90170000D01*
X93675687Y-90336821D01*
X93675686Y-90336824D01*
X93675686Y-90336825D01*
X93653034Y-90411500D01*
X93627023Y-90497244D01*
X93548005Y-90645078D01*
X93441659Y-90774659D01*
X93312078Y-90881005D01*
X93164244Y-90960023D01*
X93164241Y-90960024D01*
X93164239Y-90960025D01*
X93003825Y-91008686D01*
X93003824Y-91008686D01*
X93003821Y-91008687D01*
X92878804Y-91021000D01*
X92795196Y-91021000D01*
X92670179Y-91008687D01*
X92670176Y-91008686D01*
X92670175Y-91008686D01*
X92509761Y-90960025D01*
X92509759Y-90960024D01*
X92509756Y-90960023D01*
X92361922Y-90881005D01*
X92232341Y-90774659D01*
X92125995Y-90645078D01*
X92046977Y-90497244D01*
X92020967Y-90411500D01*
X91998314Y-90336825D01*
X91998314Y-90336824D01*
X91998313Y-90336821D01*
X91981883Y-90170000D01*
X91998313Y-90003179D01*
X92021499Y-89926744D01*
X92046975Y-89842761D01*
X92046976Y-89842759D01*
X92046977Y-89842756D01*
X92125995Y-89694922D01*
X92232341Y-89565341D01*
X92361922Y-89458995D01*
X92509756Y-89379977D01*
X92509759Y-89379976D01*
X92509761Y-89379975D01*
X92670175Y-89331314D01*
X92670176Y-89331314D01*
X92670179Y-89331313D01*
X92795196Y-89319000D01*
X92878804Y-89319000D01*
X93003821Y-89331313D01*
X93003821Y-89331313D01*
G37*
G36*
X103163821Y-89331313D02*
X103163824Y-89331314D01*
X103163825Y-89331314D01*
X103324239Y-89379975D01*
X103324241Y-89379976D01*
X103324244Y-89379977D01*
X103472078Y-89458995D01*
X103601659Y-89565341D01*
X103708005Y-89694922D01*
X103787023Y-89842756D01*
X103787024Y-89842759D01*
X103787025Y-89842761D01*
X103812501Y-89926744D01*
X103835687Y-90003179D01*
X103852117Y-90170000D01*
X103835687Y-90336821D01*
X103835686Y-90336824D01*
X103835686Y-90336825D01*
X103813034Y-90411500D01*
X103787023Y-90497244D01*
X103708005Y-90645078D01*
X103601659Y-90774659D01*
X103472078Y-90881005D01*
X103324244Y-90960023D01*
X103324241Y-90960024D01*
X103324239Y-90960025D01*
X103163825Y-91008686D01*
X103163824Y-91008686D01*
X103163821Y-91008687D01*
X103038804Y-91021000D01*
X102955196Y-91021000D01*
X102830179Y-91008687D01*
X102830176Y-91008686D01*
X102830175Y-91008686D01*
X102669761Y-90960025D01*
X102669759Y-90960024D01*
X102669756Y-90960023D01*
X102521922Y-90881005D01*
X102392341Y-90774659D01*
X102285995Y-90645078D01*
X102206977Y-90497244D01*
X102180967Y-90411500D01*
X102158314Y-90336825D01*
X102158314Y-90336824D01*
X102158313Y-90336821D01*
X102141883Y-90170000D01*
X102158313Y-90003179D01*
X102181499Y-89926744D01*
X102206975Y-89842761D01*
X102206976Y-89842759D01*
X102206977Y-89842756D01*
X102285995Y-89694922D01*
X102392341Y-89565341D01*
X102521922Y-89458995D01*
X102669756Y-89379977D01*
X102669759Y-89379976D01*
X102669761Y-89379975D01*
X102830175Y-89331314D01*
X102830176Y-89331314D01*
X102830179Y-89331313D01*
X102955196Y-89319000D01*
X103038804Y-89319000D01*
X103163821Y-89331313D01*
X103163821Y-89331313D01*
G37*
G36*
X80419764Y-88410308D02*
X80508220Y-88419020D01*
X80697381Y-88476401D01*
X80871712Y-88569583D01*
X81024515Y-88694985D01*
X81149917Y-88847788D01*
X81243099Y-89022119D01*
X81300480Y-89211280D01*
X81319855Y-89408000D01*
X81300480Y-89604720D01*
X81243099Y-89793881D01*
X81149917Y-89968212D01*
X81024515Y-90121015D01*
X80871712Y-90246417D01*
X80697381Y-90339599D01*
X80508220Y-90396980D01*
X80419764Y-90405692D01*
X80360796Y-90411500D01*
X80167204Y-90411500D01*
X80108236Y-90405692D01*
X80019780Y-90396980D01*
X79830619Y-90339599D01*
X79656288Y-90246417D01*
X79503485Y-90121015D01*
X79378083Y-89968212D01*
X79284901Y-89793881D01*
X79227520Y-89604720D01*
X79208145Y-89408000D01*
X79227520Y-89211280D01*
X79284901Y-89022119D01*
X79378083Y-88847788D01*
X79503485Y-88694985D01*
X79656288Y-88569583D01*
X79830619Y-88476401D01*
X80019780Y-88419020D01*
X80108236Y-88410308D01*
X80167204Y-88404500D01*
X80360796Y-88404500D01*
X80419764Y-88410308D01*
X80419764Y-88410308D01*
G37*
G36*
X89275228Y-88208703D02*
X89430100Y-88272853D01*
X89569481Y-88365985D01*
X89688015Y-88484519D01*
X89781147Y-88623900D01*
X89845297Y-88778772D01*
X89878000Y-88943184D01*
X89878000Y-89110816D01*
X89845297Y-89275228D01*
X89781147Y-89430100D01*
X89688015Y-89569481D01*
X89569481Y-89688015D01*
X89430100Y-89781147D01*
X89275228Y-89845297D01*
X89110816Y-89878000D01*
X88943184Y-89878000D01*
X88778772Y-89845297D01*
X88623900Y-89781147D01*
X88484519Y-89688015D01*
X88365985Y-89569481D01*
X88272853Y-89430100D01*
X88208703Y-89275228D01*
X88176000Y-89110816D01*
X88176000Y-88943184D01*
X88208703Y-88778772D01*
X88272853Y-88623900D01*
X88365985Y-88484519D01*
X88484519Y-88365985D01*
X88623900Y-88272853D01*
X88778772Y-88208703D01*
X88943184Y-88176000D01*
X89110816Y-88176000D01*
X89275228Y-88208703D01*
X89275228Y-88208703D01*
G37*
G36*
X111002143Y-87123243D02*
X111150103Y-87184531D01*
X111283259Y-87273503D01*
X111396499Y-87386743D01*
X111485471Y-87519899D01*
X111546759Y-87667859D01*
X111578001Y-87824926D01*
X111578001Y-87985076D01*
X111546759Y-88142143D01*
X111519188Y-88208704D01*
X111485472Y-88290101D01*
X111398662Y-88420023D01*
X111396499Y-88423259D01*
X111283259Y-88536499D01*
X111150103Y-88625471D01*
X111002143Y-88686759D01*
X110845076Y-88718001D01*
X110684926Y-88718001D01*
X110527859Y-88686759D01*
X110379899Y-88625471D01*
X110246743Y-88536499D01*
X110133503Y-88423259D01*
X110131341Y-88420023D01*
X110044530Y-88290101D01*
X110010814Y-88208704D01*
X109983243Y-88142143D01*
X109952001Y-87985076D01*
X109952001Y-87824926D01*
X109983243Y-87667859D01*
X110044531Y-87519899D01*
X110133503Y-87386743D01*
X110246743Y-87273503D01*
X110379899Y-87184531D01*
X110527859Y-87123243D01*
X110684926Y-87092001D01*
X110845076Y-87092001D01*
X111002143Y-87123243D01*
X111002143Y-87123243D01*
G37*
G36*
X126242143Y-87123243D02*
X126390103Y-87184531D01*
X126523259Y-87273503D01*
X126636499Y-87386743D01*
X126725471Y-87519899D01*
X126786759Y-87667859D01*
X126818001Y-87824926D01*
X126818001Y-87985076D01*
X126786759Y-88142143D01*
X126759188Y-88208704D01*
X126725472Y-88290101D01*
X126638662Y-88420023D01*
X126636499Y-88423259D01*
X126523259Y-88536499D01*
X126390103Y-88625471D01*
X126242143Y-88686759D01*
X126085076Y-88718001D01*
X125924926Y-88718001D01*
X125767859Y-88686759D01*
X125619899Y-88625471D01*
X125486743Y-88536499D01*
X125373503Y-88423259D01*
X125371341Y-88420023D01*
X125284530Y-88290101D01*
X125250814Y-88208704D01*
X125223243Y-88142143D01*
X125192001Y-87985076D01*
X125192001Y-87824926D01*
X125223243Y-87667859D01*
X125284531Y-87519899D01*
X125373503Y-87386743D01*
X125486743Y-87273503D01*
X125619899Y-87184531D01*
X125767859Y-87123243D01*
X125924926Y-87092001D01*
X126085076Y-87092001D01*
X126242143Y-87123243D01*
X126242143Y-87123243D01*
G37*
G36*
X93003821Y-86791313D02*
X93003824Y-86791314D01*
X93003825Y-86791314D01*
X93164239Y-86839975D01*
X93164241Y-86839976D01*
X93164244Y-86839977D01*
X93312078Y-86918995D01*
X93441659Y-87025341D01*
X93548005Y-87154922D01*
X93627023Y-87302756D01*
X93627024Y-87302759D01*
X93627025Y-87302761D01*
X93675686Y-87463175D01*
X93675687Y-87463179D01*
X93692117Y-87630000D01*
X93675687Y-87796821D01*
X93675686Y-87796824D01*
X93675686Y-87796825D01*
X93658446Y-87853659D01*
X93627023Y-87957244D01*
X93548005Y-88105078D01*
X93441659Y-88234659D01*
X93312078Y-88341005D01*
X93164244Y-88420023D01*
X93164241Y-88420024D01*
X93164239Y-88420025D01*
X93003825Y-88468686D01*
X93003824Y-88468686D01*
X93003821Y-88468687D01*
X92878804Y-88481000D01*
X92795196Y-88481000D01*
X92670179Y-88468687D01*
X92670176Y-88468686D01*
X92670175Y-88468686D01*
X92509761Y-88420025D01*
X92509759Y-88420024D01*
X92509756Y-88420023D01*
X92361922Y-88341005D01*
X92232341Y-88234659D01*
X92125995Y-88105078D01*
X92046977Y-87957244D01*
X92015555Y-87853659D01*
X91998314Y-87796825D01*
X91998314Y-87796824D01*
X91998313Y-87796821D01*
X91981883Y-87630000D01*
X91998313Y-87463179D01*
X91998314Y-87463175D01*
X92046975Y-87302761D01*
X92046976Y-87302759D01*
X92046977Y-87302756D01*
X92125995Y-87154922D01*
X92232341Y-87025341D01*
X92361922Y-86918995D01*
X92509756Y-86839977D01*
X92509759Y-86839976D01*
X92509761Y-86839975D01*
X92670175Y-86791314D01*
X92670176Y-86791314D01*
X92670179Y-86791313D01*
X92795196Y-86779000D01*
X92878804Y-86779000D01*
X93003821Y-86791313D01*
X93003821Y-86791313D01*
G37*
G36*
X103163821Y-86791313D02*
X103163824Y-86791314D01*
X103163825Y-86791314D01*
X103324239Y-86839975D01*
X103324241Y-86839976D01*
X103324244Y-86839977D01*
X103472078Y-86918995D01*
X103601659Y-87025341D01*
X103708005Y-87154922D01*
X103787023Y-87302756D01*
X103787024Y-87302759D01*
X103787025Y-87302761D01*
X103835686Y-87463175D01*
X103835687Y-87463179D01*
X103852117Y-87630000D01*
X103835687Y-87796821D01*
X103835686Y-87796824D01*
X103835686Y-87796825D01*
X103818446Y-87853659D01*
X103787023Y-87957244D01*
X103708005Y-88105078D01*
X103601659Y-88234659D01*
X103472078Y-88341005D01*
X103324244Y-88420023D01*
X103324241Y-88420024D01*
X103324239Y-88420025D01*
X103163825Y-88468686D01*
X103163824Y-88468686D01*
X103163821Y-88468687D01*
X103038804Y-88481000D01*
X102955196Y-88481000D01*
X102830179Y-88468687D01*
X102830176Y-88468686D01*
X102830175Y-88468686D01*
X102669761Y-88420025D01*
X102669759Y-88420024D01*
X102669756Y-88420023D01*
X102521922Y-88341005D01*
X102392341Y-88234659D01*
X102285995Y-88105078D01*
X102206977Y-87957244D01*
X102175555Y-87853659D01*
X102158314Y-87796825D01*
X102158314Y-87796824D01*
X102158313Y-87796821D01*
X102141883Y-87630000D01*
X102158313Y-87463179D01*
X102158314Y-87463175D01*
X102206975Y-87302761D01*
X102206976Y-87302759D01*
X102206977Y-87302756D01*
X102285995Y-87154922D01*
X102392341Y-87025341D01*
X102521922Y-86918995D01*
X102669756Y-86839977D01*
X102669759Y-86839976D01*
X102669761Y-86839975D01*
X102830175Y-86791314D01*
X102830176Y-86791314D01*
X102830179Y-86791313D01*
X102955196Y-86779000D01*
X103038804Y-86779000D01*
X103163821Y-86791313D01*
X103163821Y-86791313D01*
G37*
G36*
X72048821Y-86410313D02*
X72048824Y-86410314D01*
X72048825Y-86410314D01*
X72209239Y-86458975D01*
X72209241Y-86458976D01*
X72209244Y-86458977D01*
X72357078Y-86537995D01*
X72486659Y-86644341D01*
X72593005Y-86773922D01*
X72672023Y-86921756D01*
X72672024Y-86921759D01*
X72672025Y-86921761D01*
X72720686Y-87082175D01*
X72720687Y-87082179D01*
X72737117Y-87249000D01*
X72720687Y-87415821D01*
X72720686Y-87415824D01*
X72720686Y-87415825D01*
X72689116Y-87519899D01*
X72672023Y-87576244D01*
X72593005Y-87724078D01*
X72486659Y-87853659D01*
X72357078Y-87960005D01*
X72209244Y-88039023D01*
X72209241Y-88039024D01*
X72209239Y-88039025D01*
X72048825Y-88087686D01*
X72048824Y-88087686D01*
X72048821Y-88087687D01*
X71923804Y-88100000D01*
X71840196Y-88100000D01*
X71715179Y-88087687D01*
X71715176Y-88087686D01*
X71715175Y-88087686D01*
X71554761Y-88039025D01*
X71554759Y-88039024D01*
X71554756Y-88039023D01*
X71406922Y-87960005D01*
X71277341Y-87853659D01*
X71170995Y-87724078D01*
X71091977Y-87576244D01*
X71074885Y-87519899D01*
X71043314Y-87415825D01*
X71043314Y-87415824D01*
X71043313Y-87415821D01*
X71026883Y-87249000D01*
X71043313Y-87082179D01*
X71043314Y-87082175D01*
X71091975Y-86921761D01*
X71091976Y-86921759D01*
X71091977Y-86921756D01*
X71170995Y-86773922D01*
X71277341Y-86644341D01*
X71406922Y-86537995D01*
X71554756Y-86458977D01*
X71554759Y-86458976D01*
X71554761Y-86458975D01*
X71715175Y-86410314D01*
X71715176Y-86410314D01*
X71715179Y-86410313D01*
X71840196Y-86398000D01*
X71923804Y-86398000D01*
X72048821Y-86410313D01*
X72048821Y-86410313D01*
G37*
G36*
X67362565Y-85850389D02*
X67553834Y-85929615D01*
X67725976Y-86044637D01*
X67872363Y-86191024D01*
X67987385Y-86363166D01*
X68066611Y-86554435D01*
X68107000Y-86757484D01*
X68107000Y-86964516D01*
X68066611Y-87167565D01*
X67987385Y-87358834D01*
X67872363Y-87530976D01*
X67725976Y-87677363D01*
X67553834Y-87792385D01*
X67362565Y-87871611D01*
X67159516Y-87912000D01*
X66952484Y-87912000D01*
X66749435Y-87871611D01*
X66558166Y-87792385D01*
X66386024Y-87677363D01*
X66239637Y-87530976D01*
X66124615Y-87358834D01*
X66045389Y-87167565D01*
X66005000Y-86964516D01*
X66005000Y-86757484D01*
X66045389Y-86554435D01*
X66124615Y-86363166D01*
X66239637Y-86191024D01*
X66386024Y-86044637D01*
X66558166Y-85929615D01*
X66749435Y-85850389D01*
X66952484Y-85810000D01*
X67159516Y-85810000D01*
X67362565Y-85850389D01*
X67362565Y-85850389D01*
G37*
G36*
X63666821Y-85521313D02*
X63666824Y-85521314D01*
X63666825Y-85521314D01*
X63827239Y-85569975D01*
X63827241Y-85569976D01*
X63827244Y-85569977D01*
X63975078Y-85648995D01*
X64104659Y-85755341D01*
X64211005Y-85884922D01*
X64290023Y-86032756D01*
X64290024Y-86032759D01*
X64290025Y-86032761D01*
X64338034Y-86191027D01*
X64338687Y-86193179D01*
X64355117Y-86360000D01*
X64338687Y-86526821D01*
X64338686Y-86526824D01*
X64338686Y-86526825D01*
X64330311Y-86554435D01*
X64290023Y-86687244D01*
X64211005Y-86835078D01*
X64104659Y-86964659D01*
X63975078Y-87071005D01*
X63827244Y-87150023D01*
X63827241Y-87150024D01*
X63827239Y-87150025D01*
X63666825Y-87198686D01*
X63666824Y-87198686D01*
X63666821Y-87198687D01*
X63541804Y-87211000D01*
X63458196Y-87211000D01*
X63333179Y-87198687D01*
X63333176Y-87198686D01*
X63333175Y-87198686D01*
X63172761Y-87150025D01*
X63172759Y-87150024D01*
X63172756Y-87150023D01*
X63024922Y-87071005D01*
X62895341Y-86964659D01*
X62788995Y-86835078D01*
X62709977Y-86687244D01*
X62669690Y-86554435D01*
X62661314Y-86526825D01*
X62661314Y-86526824D01*
X62661313Y-86526821D01*
X62644883Y-86360000D01*
X62661313Y-86193179D01*
X62661966Y-86191027D01*
X62709975Y-86032761D01*
X62709976Y-86032759D01*
X62709977Y-86032756D01*
X62788995Y-85884922D01*
X62895341Y-85755341D01*
X63024922Y-85648995D01*
X63172756Y-85569977D01*
X63172759Y-85569976D01*
X63172761Y-85569975D01*
X63333175Y-85521314D01*
X63333176Y-85521314D01*
X63333179Y-85521313D01*
X63458196Y-85509000D01*
X63541804Y-85509000D01*
X63666821Y-85521313D01*
X63666821Y-85521313D01*
G37*
G36*
X126242143Y-84583243D02*
X126390103Y-84644531D01*
X126523259Y-84733503D01*
X126636499Y-84846743D01*
X126725471Y-84979899D01*
X126786759Y-85127859D01*
X126818001Y-85284926D01*
X126818001Y-85445076D01*
X126786759Y-85602143D01*
X126739355Y-85716584D01*
X126725472Y-85750101D01*
X126658462Y-85850390D01*
X126636499Y-85883259D01*
X126523259Y-85996499D01*
X126390103Y-86085471D01*
X126242143Y-86146759D01*
X126085076Y-86178001D01*
X125924926Y-86178001D01*
X125767859Y-86146759D01*
X125619899Y-86085471D01*
X125486743Y-85996499D01*
X125373503Y-85883259D01*
X125351541Y-85850390D01*
X125284530Y-85750101D01*
X125270647Y-85716584D01*
X125223243Y-85602143D01*
X125192001Y-85445076D01*
X125192001Y-85284926D01*
X125223243Y-85127859D01*
X125284531Y-84979899D01*
X125373503Y-84846743D01*
X125486743Y-84733503D01*
X125619899Y-84644531D01*
X125767859Y-84583243D01*
X125924926Y-84552001D01*
X126085076Y-84552001D01*
X126242143Y-84583243D01*
X126242143Y-84583243D01*
G37*
G36*
X111002143Y-84583243D02*
X111150103Y-84644531D01*
X111283259Y-84733503D01*
X111396499Y-84846743D01*
X111485471Y-84979899D01*
X111546759Y-85127859D01*
X111578001Y-85284926D01*
X111578001Y-85445076D01*
X111546759Y-85602143D01*
X111499355Y-85716584D01*
X111485472Y-85750101D01*
X111418462Y-85850390D01*
X111396499Y-85883259D01*
X111283259Y-85996499D01*
X111150103Y-86085471D01*
X111002143Y-86146759D01*
X110845076Y-86178001D01*
X110684926Y-86178001D01*
X110527859Y-86146759D01*
X110379899Y-86085471D01*
X110246743Y-85996499D01*
X110133503Y-85883259D01*
X110111541Y-85850390D01*
X110044530Y-85750101D01*
X110030647Y-85716584D01*
X109983243Y-85602143D01*
X109952001Y-85445076D01*
X109952001Y-85284926D01*
X109983243Y-85127859D01*
X110044531Y-84979899D01*
X110133503Y-84846743D01*
X110246743Y-84733503D01*
X110379899Y-84644531D01*
X110527859Y-84583243D01*
X110684926Y-84552001D01*
X110845076Y-84552001D01*
X111002143Y-84583243D01*
X111002143Y-84583243D01*
G37*
G36*
X103478913Y-82596984D02*
X103495809Y-82598648D01*
X103521099Y-82606320D01*
X103647551Y-82644678D01*
X103787398Y-82719428D01*
X103909975Y-82820025D01*
X104010572Y-82942602D01*
X104085322Y-83082449D01*
X104131352Y-83234192D01*
X104146895Y-83392000D01*
X104131352Y-83549808D01*
X104085322Y-83701551D01*
X104010572Y-83841398D01*
X103909975Y-83963975D01*
X103787398Y-84064572D01*
X103647551Y-84139322D01*
X103521098Y-84177680D01*
X103495809Y-84185352D01*
X103478913Y-84187016D01*
X103377546Y-84197000D01*
X101790454Y-84197000D01*
X101689087Y-84187016D01*
X101672191Y-84185352D01*
X101646902Y-84177680D01*
X101520449Y-84139322D01*
X101380602Y-84064572D01*
X101258025Y-83963975D01*
X101157428Y-83841398D01*
X101082678Y-83701551D01*
X101036648Y-83549808D01*
X101021105Y-83392000D01*
X101036648Y-83234192D01*
X101082678Y-83082449D01*
X101157428Y-82942602D01*
X101258025Y-82820025D01*
X101380602Y-82719428D01*
X101520449Y-82644678D01*
X101646901Y-82606320D01*
X101672191Y-82598648D01*
X101689087Y-82596984D01*
X101790454Y-82587000D01*
X103377546Y-82587000D01*
X103478913Y-82596984D01*
X103478913Y-82596984D01*
G37*
G36*
X111002143Y-82043243D02*
X111150103Y-82104531D01*
X111283259Y-82193503D01*
X111396499Y-82306743D01*
X111485471Y-82439899D01*
X111546759Y-82587859D01*
X111578001Y-82744926D01*
X111578001Y-82905076D01*
X111546759Y-83062143D01*
X111485471Y-83210103D01*
X111396499Y-83343259D01*
X111283259Y-83456499D01*
X111150103Y-83545471D01*
X111150102Y-83545472D01*
X111150101Y-83545472D01*
X111116584Y-83559355D01*
X111002143Y-83606759D01*
X110845076Y-83638001D01*
X110684926Y-83638001D01*
X110527859Y-83606759D01*
X110413418Y-83559355D01*
X110379901Y-83545472D01*
X110379900Y-83545472D01*
X110379899Y-83545471D01*
X110246743Y-83456499D01*
X110133503Y-83343259D01*
X110044531Y-83210103D01*
X109983243Y-83062143D01*
X109952001Y-82905076D01*
X109952001Y-82744926D01*
X109983243Y-82587859D01*
X110044531Y-82439899D01*
X110133503Y-82306743D01*
X110246743Y-82193503D01*
X110379899Y-82104531D01*
X110527859Y-82043243D01*
X110684926Y-82012001D01*
X110845076Y-82012001D01*
X111002143Y-82043243D01*
X111002143Y-82043243D01*
G37*
G36*
X126242143Y-82043243D02*
X126390103Y-82104531D01*
X126523259Y-82193503D01*
X126636499Y-82306743D01*
X126725471Y-82439899D01*
X126786759Y-82587859D01*
X126818001Y-82744926D01*
X126818001Y-82905076D01*
X126786759Y-83062143D01*
X126725471Y-83210103D01*
X126636499Y-83343259D01*
X126523259Y-83456499D01*
X126390103Y-83545471D01*
X126390102Y-83545472D01*
X126390101Y-83545472D01*
X126356584Y-83559355D01*
X126242143Y-83606759D01*
X126085076Y-83638001D01*
X125924926Y-83638001D01*
X125767859Y-83606759D01*
X125653418Y-83559355D01*
X125619901Y-83545472D01*
X125619900Y-83545472D01*
X125619899Y-83545471D01*
X125486743Y-83456499D01*
X125373503Y-83343259D01*
X125284531Y-83210103D01*
X125223243Y-83062143D01*
X125192001Y-82905076D01*
X125192001Y-82744926D01*
X125223243Y-82587859D01*
X125284531Y-82439899D01*
X125373503Y-82306743D01*
X125486743Y-82193503D01*
X125619899Y-82104531D01*
X125767859Y-82043243D01*
X125924926Y-82012001D01*
X126085076Y-82012001D01*
X126242143Y-82043243D01*
X126242143Y-82043243D01*
G37*
G36*
X111002143Y-79503243D02*
X111150103Y-79564531D01*
X111283259Y-79653503D01*
X111396499Y-79766743D01*
X111485471Y-79899899D01*
X111546759Y-80047859D01*
X111578001Y-80204926D01*
X111578001Y-80365076D01*
X111546759Y-80522143D01*
X111499355Y-80636584D01*
X111485472Y-80670101D01*
X111396500Y-80803258D01*
X111283258Y-80916500D01*
X111237304Y-80947205D01*
X111150103Y-81005471D01*
X111002143Y-81066759D01*
X110845076Y-81098001D01*
X110684926Y-81098001D01*
X110527859Y-81066759D01*
X110379899Y-81005471D01*
X110292698Y-80947205D01*
X110246744Y-80916500D01*
X110133502Y-80803258D01*
X110044530Y-80670101D01*
X110030647Y-80636584D01*
X109983243Y-80522143D01*
X109952001Y-80365076D01*
X109952001Y-80204926D01*
X109983243Y-80047859D01*
X110044531Y-79899899D01*
X110133503Y-79766743D01*
X110246743Y-79653503D01*
X110379899Y-79564531D01*
X110527859Y-79503243D01*
X110684926Y-79472001D01*
X110845076Y-79472001D01*
X111002143Y-79503243D01*
X111002143Y-79503243D01*
G37*
G36*
X126242143Y-79503243D02*
X126390103Y-79564531D01*
X126523259Y-79653503D01*
X126636499Y-79766743D01*
X126725471Y-79899899D01*
X126786759Y-80047859D01*
X126818001Y-80204926D01*
X126818001Y-80365076D01*
X126786759Y-80522143D01*
X126739355Y-80636584D01*
X126725472Y-80670101D01*
X126636500Y-80803258D01*
X126523258Y-80916500D01*
X126477304Y-80947205D01*
X126390103Y-81005471D01*
X126242143Y-81066759D01*
X126085076Y-81098001D01*
X125924926Y-81098001D01*
X125767859Y-81066759D01*
X125619899Y-81005471D01*
X125532698Y-80947205D01*
X125486744Y-80916500D01*
X125373502Y-80803258D01*
X125284530Y-80670101D01*
X125270647Y-80636584D01*
X125223243Y-80522143D01*
X125192001Y-80365076D01*
X125192001Y-80204926D01*
X125223243Y-80047859D01*
X125284531Y-79899899D01*
X125373503Y-79766743D01*
X125486743Y-79653503D01*
X125619899Y-79564531D01*
X125767859Y-79503243D01*
X125924926Y-79472001D01*
X126085076Y-79472001D01*
X126242143Y-79503243D01*
X126242143Y-79503243D01*
G37*
G36*
X67369918Y-79062934D02*
X67402424Y-79072795D01*
X67432383Y-79088808D01*
X67458641Y-79110359D01*
X67480192Y-79136617D01*
X67496205Y-79166576D01*
X67506066Y-79199082D01*
X67510000Y-79239029D01*
X67510000Y-80780971D01*
X67506066Y-80820918D01*
X67496205Y-80853424D01*
X67480192Y-80883383D01*
X67458641Y-80909641D01*
X67432383Y-80931192D01*
X67402424Y-80947205D01*
X67369918Y-80957066D01*
X67329971Y-80961000D01*
X63988029Y-80961000D01*
X63948082Y-80957066D01*
X63915576Y-80947205D01*
X63885617Y-80931192D01*
X63859359Y-80909641D01*
X63837808Y-80883383D01*
X63821795Y-80853424D01*
X63811934Y-80820918D01*
X63808000Y-80780971D01*
X63808000Y-79239029D01*
X63811934Y-79199082D01*
X63821795Y-79166576D01*
X63837808Y-79136617D01*
X63859359Y-79110359D01*
X63885617Y-79088808D01*
X63915576Y-79072795D01*
X63948082Y-79062934D01*
X63988029Y-79059000D01*
X67329971Y-79059000D01*
X67369918Y-79062934D01*
X67369918Y-79062934D01*
G37*
G36*
X74078913Y-77396984D02*
X74095809Y-77398648D01*
X74121098Y-77406320D01*
X74247551Y-77444678D01*
X74387398Y-77519428D01*
X74509975Y-77620025D01*
X74610572Y-77742602D01*
X74685322Y-77882449D01*
X74731352Y-78034192D01*
X74746895Y-78192000D01*
X74731352Y-78349808D01*
X74685322Y-78501551D01*
X74610572Y-78641398D01*
X74509975Y-78763975D01*
X74387398Y-78864572D01*
X74247551Y-78939322D01*
X74121098Y-78977680D01*
X74095809Y-78985352D01*
X74078913Y-78987016D01*
X73977546Y-78997000D01*
X72390454Y-78997000D01*
X72289087Y-78987016D01*
X72272191Y-78985352D01*
X72246902Y-78977680D01*
X72120449Y-78939322D01*
X71980602Y-78864572D01*
X71858025Y-78763975D01*
X71757428Y-78641398D01*
X71682678Y-78501551D01*
X71636648Y-78349808D01*
X71621105Y-78192000D01*
X71636648Y-78034192D01*
X71682678Y-77882449D01*
X71757428Y-77742602D01*
X71858025Y-77620025D01*
X71980602Y-77519428D01*
X72120449Y-77444678D01*
X72246901Y-77406320D01*
X72272191Y-77398648D01*
X72289087Y-77396984D01*
X72390454Y-77387000D01*
X73977546Y-77387000D01*
X74078913Y-77396984D01*
X74078913Y-77396984D01*
G37*
G36*
X126242143Y-76963243D02*
X126390103Y-77024531D01*
X126523259Y-77113503D01*
X126636499Y-77226743D01*
X126725471Y-77359899D01*
X126786759Y-77507859D01*
X126818001Y-77664926D01*
X126818001Y-77825076D01*
X126786759Y-77982143D01*
X126725471Y-78130103D01*
X126636499Y-78263259D01*
X126523259Y-78376499D01*
X126390103Y-78465471D01*
X126242143Y-78526759D01*
X126085076Y-78558001D01*
X125924926Y-78558001D01*
X125767859Y-78526759D01*
X125619899Y-78465471D01*
X125486743Y-78376499D01*
X125373503Y-78263259D01*
X125284531Y-78130103D01*
X125223243Y-77982143D01*
X125192001Y-77825076D01*
X125192001Y-77664926D01*
X125223243Y-77507859D01*
X125284531Y-77359899D01*
X125373503Y-77226743D01*
X125486743Y-77113503D01*
X125619899Y-77024531D01*
X125767859Y-76963243D01*
X125924926Y-76932001D01*
X126085076Y-76932001D01*
X126242143Y-76963243D01*
X126242143Y-76963243D01*
G37*
G36*
X111002143Y-76963243D02*
X111150103Y-77024531D01*
X111283259Y-77113503D01*
X111396499Y-77226743D01*
X111485471Y-77359899D01*
X111546759Y-77507859D01*
X111578001Y-77664926D01*
X111578001Y-77825076D01*
X111546759Y-77982143D01*
X111485471Y-78130103D01*
X111396499Y-78263259D01*
X111283259Y-78376499D01*
X111150103Y-78465471D01*
X111002143Y-78526759D01*
X110845076Y-78558001D01*
X110684926Y-78558001D01*
X110527859Y-78526759D01*
X110379899Y-78465471D01*
X110246743Y-78376499D01*
X110133503Y-78263259D01*
X110044531Y-78130103D01*
X109983243Y-77982143D01*
X109952001Y-77825076D01*
X109952001Y-77664926D01*
X109983243Y-77507859D01*
X110044531Y-77359899D01*
X110133503Y-77226743D01*
X110246743Y-77113503D01*
X110379899Y-77024531D01*
X110527859Y-76963243D01*
X110684926Y-76932001D01*
X110845076Y-76932001D01*
X111002143Y-76963243D01*
X111002143Y-76963243D01*
G37*
G36*
X111002143Y-74423243D02*
X111150103Y-74484531D01*
X111217131Y-74529318D01*
X111269497Y-74564307D01*
X111283259Y-74573503D01*
X111396499Y-74686743D01*
X111485471Y-74819899D01*
X111546759Y-74967859D01*
X111578001Y-75124926D01*
X111578001Y-75285076D01*
X111546759Y-75442143D01*
X111485471Y-75590103D01*
X111396499Y-75723259D01*
X111283259Y-75836499D01*
X111150103Y-75925471D01*
X111002143Y-75986759D01*
X110845076Y-76018001D01*
X110684926Y-76018001D01*
X110527859Y-75986759D01*
X110379899Y-75925471D01*
X110246743Y-75836499D01*
X110133503Y-75723259D01*
X110044531Y-75590103D01*
X109983243Y-75442143D01*
X109952001Y-75285076D01*
X109952001Y-75124926D01*
X109983243Y-74967859D01*
X110044531Y-74819899D01*
X110133503Y-74686743D01*
X110246743Y-74573503D01*
X110260506Y-74564307D01*
X110312871Y-74529318D01*
X110379899Y-74484531D01*
X110527859Y-74423243D01*
X110684926Y-74392001D01*
X110845076Y-74392001D01*
X111002143Y-74423243D01*
X111002143Y-74423243D01*
G37*
G36*
X126242143Y-74423243D02*
X126390103Y-74484531D01*
X126457131Y-74529318D01*
X126509497Y-74564307D01*
X126523259Y-74573503D01*
X126636499Y-74686743D01*
X126725471Y-74819899D01*
X126786759Y-74967859D01*
X126818001Y-75124926D01*
X126818001Y-75285076D01*
X126786759Y-75442143D01*
X126725471Y-75590103D01*
X126636499Y-75723259D01*
X126523259Y-75836499D01*
X126390103Y-75925471D01*
X126242143Y-75986759D01*
X126085076Y-76018001D01*
X125924926Y-76018001D01*
X125767859Y-75986759D01*
X125619899Y-75925471D01*
X125486743Y-75836499D01*
X125373503Y-75723259D01*
X125284531Y-75590103D01*
X125223243Y-75442143D01*
X125192001Y-75285076D01*
X125192001Y-75124926D01*
X125223243Y-74967859D01*
X125284531Y-74819899D01*
X125373503Y-74686743D01*
X125486743Y-74573503D01*
X125500506Y-74564307D01*
X125552871Y-74529318D01*
X125619899Y-74484531D01*
X125767859Y-74423243D01*
X125924926Y-74392001D01*
X126085076Y-74392001D01*
X126242143Y-74423243D01*
X126242143Y-74423243D01*
G37*
G36*
X66745425Y-73992760D02*
X66745428Y-73992761D01*
X66745429Y-73992761D01*
X66924693Y-74047140D01*
X66924695Y-74047141D01*
X67089905Y-74135448D01*
X67234712Y-74254288D01*
X67353552Y-74399095D01*
X67353553Y-74399097D01*
X67441860Y-74564307D01*
X67496239Y-74743571D01*
X67496240Y-74743575D01*
X67514601Y-74930000D01*
X67496240Y-75116425D01*
X67496239Y-75116428D01*
X67496239Y-75116429D01*
X67445081Y-75285076D01*
X67441859Y-75295695D01*
X67353552Y-75460905D01*
X67234712Y-75605712D01*
X67089905Y-75724552D01*
X67089903Y-75724553D01*
X66924693Y-75812860D01*
X66745429Y-75867239D01*
X66745428Y-75867239D01*
X66745425Y-75867240D01*
X66605718Y-75881000D01*
X64712282Y-75881000D01*
X64572575Y-75867240D01*
X64572572Y-75867239D01*
X64572571Y-75867239D01*
X64393307Y-75812860D01*
X64228097Y-75724553D01*
X64228095Y-75724552D01*
X64083288Y-75605712D01*
X63964448Y-75460905D01*
X63876141Y-75295695D01*
X63872920Y-75285076D01*
X63821761Y-75116429D01*
X63821761Y-75116428D01*
X63821760Y-75116425D01*
X63803399Y-74930000D01*
X63821760Y-74743575D01*
X63821761Y-74743571D01*
X63876140Y-74564307D01*
X63964447Y-74399097D01*
X63964448Y-74399095D01*
X64083288Y-74254288D01*
X64228095Y-74135448D01*
X64393305Y-74047141D01*
X64393307Y-74047140D01*
X64572571Y-73992761D01*
X64572572Y-73992761D01*
X64572575Y-73992760D01*
X64712282Y-73979000D01*
X66605718Y-73979000D01*
X66745425Y-73992760D01*
X66745425Y-73992760D01*
G37*
G36*
X74078913Y-72396984D02*
X74095809Y-72398648D01*
X74121098Y-72406320D01*
X74247551Y-72444678D01*
X74387398Y-72519428D01*
X74509975Y-72620025D01*
X74610572Y-72742602D01*
X74685322Y-72882449D01*
X74731352Y-73034192D01*
X74746895Y-73192000D01*
X74731352Y-73349808D01*
X74685322Y-73501551D01*
X74610572Y-73641398D01*
X74509975Y-73763975D01*
X74387398Y-73864572D01*
X74247551Y-73939322D01*
X74121098Y-73977680D01*
X74095809Y-73985352D01*
X74078913Y-73987016D01*
X73977546Y-73997000D01*
X72390454Y-73997000D01*
X72289087Y-73987016D01*
X72272191Y-73985352D01*
X72246902Y-73977680D01*
X72120449Y-73939322D01*
X71980602Y-73864572D01*
X71858025Y-73763975D01*
X71757428Y-73641398D01*
X71682678Y-73501551D01*
X71636648Y-73349808D01*
X71621105Y-73192000D01*
X71636648Y-73034192D01*
X71682678Y-72882449D01*
X71757428Y-72742602D01*
X71858025Y-72620025D01*
X71980602Y-72519428D01*
X72120449Y-72444678D01*
X72246902Y-72406320D01*
X72272191Y-72398648D01*
X72289087Y-72396984D01*
X72390454Y-72387000D01*
X73977546Y-72387000D01*
X74078913Y-72396984D01*
X74078913Y-72396984D01*
G37*
G36*
X111002143Y-71883243D02*
X111150103Y-71944531D01*
X111283259Y-72033503D01*
X111396499Y-72146743D01*
X111485471Y-72279899D01*
X111546759Y-72427859D01*
X111578001Y-72584926D01*
X111578001Y-72745076D01*
X111546759Y-72902143D01*
X111485471Y-73050103D01*
X111396499Y-73183259D01*
X111283259Y-73296499D01*
X111150103Y-73385471D01*
X111002143Y-73446759D01*
X110845076Y-73478001D01*
X110684926Y-73478001D01*
X110527859Y-73446759D01*
X110379899Y-73385471D01*
X110246743Y-73296499D01*
X110133503Y-73183259D01*
X110044531Y-73050103D01*
X109983243Y-72902143D01*
X109952001Y-72745076D01*
X109952001Y-72584926D01*
X109983243Y-72427859D01*
X110044531Y-72279899D01*
X110133503Y-72146743D01*
X110246743Y-72033503D01*
X110379899Y-71944531D01*
X110527859Y-71883243D01*
X110684926Y-71852001D01*
X110845076Y-71852001D01*
X111002143Y-71883243D01*
X111002143Y-71883243D01*
G37*
G36*
X126242143Y-71883243D02*
X126390103Y-71944531D01*
X126523259Y-72033503D01*
X126636499Y-72146743D01*
X126725471Y-72279899D01*
X126786759Y-72427859D01*
X126818001Y-72584926D01*
X126818001Y-72745076D01*
X126786759Y-72902143D01*
X126725471Y-73050103D01*
X126636499Y-73183259D01*
X126523259Y-73296499D01*
X126390103Y-73385471D01*
X126242143Y-73446759D01*
X126085076Y-73478001D01*
X125924926Y-73478001D01*
X125767859Y-73446759D01*
X125619899Y-73385471D01*
X125486743Y-73296499D01*
X125373503Y-73183259D01*
X125284531Y-73050103D01*
X125223243Y-72902143D01*
X125192001Y-72745076D01*
X125192001Y-72584926D01*
X125223243Y-72427859D01*
X125284531Y-72279899D01*
X125373503Y-72146743D01*
X125486743Y-72033503D01*
X125619899Y-71944531D01*
X125767859Y-71883243D01*
X125924926Y-71852001D01*
X126085076Y-71852001D01*
X126242143Y-71883243D01*
X126242143Y-71883243D01*
G37*
G36*
X126242143Y-69343243D02*
X126390103Y-69404531D01*
X126523259Y-69493503D01*
X126636499Y-69606743D01*
X126725471Y-69739899D01*
X126786759Y-69887859D01*
X126818001Y-70044926D01*
X126818001Y-70205076D01*
X126786759Y-70362143D01*
X126725471Y-70510103D01*
X126636499Y-70643259D01*
X126523259Y-70756499D01*
X126390103Y-70845471D01*
X126242143Y-70906759D01*
X126085076Y-70938001D01*
X125924926Y-70938001D01*
X125767859Y-70906759D01*
X125619899Y-70845471D01*
X125486743Y-70756499D01*
X125373503Y-70643259D01*
X125284531Y-70510103D01*
X125223243Y-70362143D01*
X125192001Y-70205076D01*
X125192001Y-70044926D01*
X125223243Y-69887859D01*
X125284531Y-69739899D01*
X125373503Y-69606743D01*
X125486743Y-69493503D01*
X125619899Y-69404531D01*
X125767859Y-69343243D01*
X125924926Y-69312001D01*
X126085076Y-69312001D01*
X126242143Y-69343243D01*
X126242143Y-69343243D01*
G37*
G36*
X111002143Y-69343243D02*
X111150103Y-69404531D01*
X111283259Y-69493503D01*
X111396499Y-69606743D01*
X111485471Y-69739899D01*
X111546759Y-69887859D01*
X111578001Y-70044926D01*
X111578001Y-70205076D01*
X111546759Y-70362143D01*
X111485471Y-70510103D01*
X111396499Y-70643259D01*
X111283259Y-70756499D01*
X111150103Y-70845471D01*
X111002143Y-70906759D01*
X110845076Y-70938001D01*
X110684926Y-70938001D01*
X110527859Y-70906759D01*
X110379899Y-70845471D01*
X110246743Y-70756499D01*
X110133503Y-70643259D01*
X110044531Y-70510103D01*
X109983243Y-70362143D01*
X109952001Y-70205076D01*
X109952001Y-70044926D01*
X109983243Y-69887859D01*
X110044531Y-69739899D01*
X110133503Y-69606743D01*
X110246743Y-69493503D01*
X110379899Y-69404531D01*
X110527859Y-69343243D01*
X110684926Y-69312001D01*
X110845076Y-69312001D01*
X111002143Y-69343243D01*
X111002143Y-69343243D01*
G37*
G36*
X103478913Y-67196984D02*
X103495809Y-67198648D01*
X103499939Y-67199901D01*
X103647551Y-67244678D01*
X103787398Y-67319428D01*
X103909975Y-67420025D01*
X104010572Y-67542602D01*
X104085322Y-67682449D01*
X104131352Y-67834192D01*
X104146895Y-67992000D01*
X104131352Y-68149808D01*
X104085322Y-68301551D01*
X104010572Y-68441398D01*
X103909975Y-68563975D01*
X103787398Y-68664572D01*
X103647551Y-68739322D01*
X103521099Y-68777680D01*
X103495809Y-68785352D01*
X103478913Y-68787016D01*
X103377546Y-68797000D01*
X101790454Y-68797000D01*
X101689087Y-68787016D01*
X101672191Y-68785352D01*
X101646901Y-68777680D01*
X101520449Y-68739322D01*
X101380602Y-68664572D01*
X101258025Y-68563975D01*
X101157428Y-68441398D01*
X101082678Y-68301551D01*
X101036648Y-68149808D01*
X101021105Y-67992000D01*
X101036648Y-67834192D01*
X101082678Y-67682449D01*
X101157428Y-67542602D01*
X101258025Y-67420025D01*
X101380602Y-67319428D01*
X101520449Y-67244678D01*
X101668061Y-67199901D01*
X101672191Y-67198648D01*
X101689087Y-67196984D01*
X101790454Y-67187000D01*
X103377546Y-67187000D01*
X103478913Y-67196984D01*
X103478913Y-67196984D01*
G37*
G36*
X126242143Y-66803243D02*
X126390103Y-66864531D01*
X126523259Y-66953503D01*
X126636499Y-67066743D01*
X126725471Y-67199899D01*
X126786759Y-67347859D01*
X126818001Y-67504926D01*
X126818001Y-67665076D01*
X126786759Y-67822143D01*
X126725471Y-67970103D01*
X126636499Y-68103259D01*
X126523259Y-68216499D01*
X126390103Y-68305471D01*
X126242143Y-68366759D01*
X126085076Y-68398001D01*
X125924926Y-68398001D01*
X125767859Y-68366759D01*
X125619899Y-68305471D01*
X125486743Y-68216499D01*
X125373503Y-68103259D01*
X125284531Y-67970103D01*
X125223243Y-67822143D01*
X125192001Y-67665076D01*
X125192001Y-67504926D01*
X125223243Y-67347859D01*
X125284531Y-67199899D01*
X125373503Y-67066743D01*
X125486743Y-66953503D01*
X125619899Y-66864531D01*
X125767859Y-66803243D01*
X125924926Y-66772001D01*
X126085076Y-66772001D01*
X126242143Y-66803243D01*
X126242143Y-66803243D01*
G37*
G36*
X111002143Y-66803243D02*
X111150103Y-66864531D01*
X111283259Y-66953503D01*
X111396499Y-67066743D01*
X111485471Y-67199899D01*
X111546759Y-67347859D01*
X111578001Y-67504926D01*
X111578001Y-67665076D01*
X111546759Y-67822143D01*
X111485471Y-67970103D01*
X111396499Y-68103259D01*
X111283259Y-68216499D01*
X111150103Y-68305471D01*
X111002143Y-68366759D01*
X110845076Y-68398001D01*
X110684926Y-68398001D01*
X110527859Y-68366759D01*
X110379899Y-68305471D01*
X110246743Y-68216499D01*
X110133503Y-68103259D01*
X110044531Y-67970103D01*
X109983243Y-67822143D01*
X109952001Y-67665076D01*
X109952001Y-67504926D01*
X109983243Y-67347859D01*
X110044531Y-67199899D01*
X110133503Y-67066743D01*
X110246743Y-66953503D01*
X110379899Y-66864531D01*
X110527859Y-66803243D01*
X110684926Y-66772001D01*
X110845076Y-66772001D01*
X111002143Y-66803243D01*
X111002143Y-66803243D01*
G37*
G36*
X126242143Y-64263243D02*
X126390103Y-64324531D01*
X126523259Y-64413503D01*
X126636499Y-64526743D01*
X126725471Y-64659899D01*
X126786759Y-64807859D01*
X126818001Y-64964926D01*
X126818001Y-65125076D01*
X126786759Y-65282143D01*
X126739355Y-65396584D01*
X126725472Y-65430101D01*
X126636500Y-65563258D01*
X126523258Y-65676500D01*
X126477304Y-65707205D01*
X126390103Y-65765471D01*
X126242143Y-65826759D01*
X126085076Y-65858001D01*
X125924926Y-65858001D01*
X125767859Y-65826759D01*
X125619899Y-65765471D01*
X125532698Y-65707205D01*
X125486744Y-65676500D01*
X125373502Y-65563258D01*
X125284530Y-65430101D01*
X125270647Y-65396584D01*
X125223243Y-65282143D01*
X125192001Y-65125076D01*
X125192001Y-64964926D01*
X125223243Y-64807859D01*
X125284531Y-64659899D01*
X125373503Y-64526743D01*
X125486743Y-64413503D01*
X125619899Y-64324531D01*
X125767859Y-64263243D01*
X125924926Y-64232001D01*
X126085076Y-64232001D01*
X126242143Y-64263243D01*
X126242143Y-64263243D01*
G37*
G36*
X111002143Y-64263243D02*
X111150103Y-64324531D01*
X111283259Y-64413503D01*
X111396499Y-64526743D01*
X111485471Y-64659899D01*
X111546759Y-64807859D01*
X111578001Y-64964926D01*
X111578001Y-65125076D01*
X111546759Y-65282143D01*
X111499355Y-65396584D01*
X111485472Y-65430101D01*
X111396500Y-65563258D01*
X111283258Y-65676500D01*
X111237304Y-65707205D01*
X111150103Y-65765471D01*
X111002143Y-65826759D01*
X110845076Y-65858001D01*
X110684926Y-65858001D01*
X110527859Y-65826759D01*
X110379899Y-65765471D01*
X110292698Y-65707205D01*
X110246744Y-65676500D01*
X110133502Y-65563258D01*
X110044530Y-65430101D01*
X110030647Y-65396584D01*
X109983243Y-65282143D01*
X109952001Y-65125076D01*
X109952001Y-64964926D01*
X109983243Y-64807859D01*
X110044531Y-64659899D01*
X110133503Y-64526743D01*
X110246743Y-64413503D01*
X110379899Y-64324531D01*
X110527859Y-64263243D01*
X110684926Y-64232001D01*
X110845076Y-64232001D01*
X111002143Y-64263243D01*
X111002143Y-64263243D01*
G37*
G36*
X67242918Y-63822934D02*
X67275424Y-63832795D01*
X67305383Y-63848808D01*
X67331641Y-63870359D01*
X67353192Y-63896617D01*
X67369205Y-63926576D01*
X67379066Y-63959082D01*
X67383000Y-63999029D01*
X67383000Y-65540971D01*
X67379066Y-65580918D01*
X67369205Y-65613424D01*
X67353192Y-65643383D01*
X67331641Y-65669641D01*
X67305383Y-65691192D01*
X67275424Y-65707205D01*
X67242918Y-65717066D01*
X67202971Y-65721000D01*
X63861029Y-65721000D01*
X63821082Y-65717066D01*
X63788576Y-65707205D01*
X63758617Y-65691192D01*
X63732359Y-65669641D01*
X63710808Y-65643383D01*
X63694795Y-65613424D01*
X63684934Y-65580918D01*
X63681000Y-65540971D01*
X63681000Y-63999029D01*
X63684934Y-63959082D01*
X63694795Y-63926576D01*
X63710808Y-63896617D01*
X63732359Y-63870359D01*
X63758617Y-63848808D01*
X63788576Y-63832795D01*
X63821082Y-63822934D01*
X63861029Y-63819000D01*
X67202971Y-63819000D01*
X67242918Y-63822934D01*
X67242918Y-63822934D01*
G37*
G36*
X82970821Y-62153313D02*
X82970824Y-62153314D01*
X82970825Y-62153314D01*
X83131239Y-62201975D01*
X83131241Y-62201976D01*
X83131244Y-62201977D01*
X83279078Y-62280995D01*
X83408659Y-62387341D01*
X83515005Y-62516922D01*
X83594023Y-62664756D01*
X83594024Y-62664759D01*
X83594025Y-62664761D01*
X83642686Y-62825175D01*
X83642687Y-62825179D01*
X83659117Y-62992000D01*
X83642687Y-63158821D01*
X83642686Y-63158824D01*
X83642686Y-63158825D01*
X83594401Y-63318001D01*
X83594023Y-63319244D01*
X83515005Y-63467078D01*
X83408659Y-63596659D01*
X83279078Y-63703005D01*
X83131244Y-63782023D01*
X83131241Y-63782024D01*
X83131239Y-63782025D01*
X82970825Y-63830686D01*
X82970824Y-63830686D01*
X82970821Y-63830687D01*
X82845804Y-63843000D01*
X82762196Y-63843000D01*
X82637179Y-63830687D01*
X82637176Y-63830686D01*
X82637175Y-63830686D01*
X82476761Y-63782025D01*
X82476759Y-63782024D01*
X82476756Y-63782023D01*
X82328922Y-63703005D01*
X82199341Y-63596659D01*
X82092995Y-63467078D01*
X82013977Y-63319244D01*
X82013600Y-63318001D01*
X81965314Y-63158825D01*
X81965314Y-63158824D01*
X81965313Y-63158821D01*
X81948883Y-62992000D01*
X81965313Y-62825179D01*
X81965314Y-62825175D01*
X82013975Y-62664761D01*
X82013976Y-62664759D01*
X82013977Y-62664756D01*
X82092995Y-62516922D01*
X82199341Y-62387341D01*
X82328922Y-62280995D01*
X82476756Y-62201977D01*
X82476759Y-62201976D01*
X82476761Y-62201975D01*
X82637175Y-62153314D01*
X82637176Y-62153314D01*
X82637179Y-62153313D01*
X82762196Y-62141000D01*
X82845804Y-62141000D01*
X82970821Y-62153313D01*
X82970821Y-62153313D01*
G37*
G36*
X72892228Y-62173703D02*
X73047100Y-62237853D01*
X73186481Y-62330985D01*
X73305015Y-62449519D01*
X73398147Y-62588900D01*
X73462297Y-62743772D01*
X73495000Y-62908184D01*
X73495000Y-63075816D01*
X73462297Y-63240228D01*
X73398147Y-63395100D01*
X73305015Y-63534481D01*
X73186481Y-63653015D01*
X73047100Y-63746147D01*
X72892228Y-63810297D01*
X72727816Y-63843000D01*
X72560184Y-63843000D01*
X72395772Y-63810297D01*
X72240900Y-63746147D01*
X72101519Y-63653015D01*
X71982985Y-63534481D01*
X71889853Y-63395100D01*
X71825703Y-63240228D01*
X71793000Y-63075816D01*
X71793000Y-62908184D01*
X71825703Y-62743772D01*
X71889853Y-62588900D01*
X71982985Y-62449519D01*
X72101519Y-62330985D01*
X72240900Y-62237853D01*
X72395772Y-62173703D01*
X72560184Y-62141000D01*
X72727816Y-62141000D01*
X72892228Y-62173703D01*
X72892228Y-62173703D01*
G37*
G36*
X111002143Y-61723243D02*
X111150103Y-61784531D01*
X111217131Y-61829318D01*
X111283258Y-61873502D01*
X111396500Y-61986744D01*
X111485472Y-62119901D01*
X111499312Y-62153313D01*
X111546759Y-62267859D01*
X111578001Y-62424926D01*
X111578001Y-62585076D01*
X111546759Y-62742143D01*
X111485471Y-62890103D01*
X111396499Y-63023259D01*
X111283259Y-63136499D01*
X111150103Y-63225471D01*
X111002143Y-63286759D01*
X110845076Y-63318001D01*
X110684926Y-63318001D01*
X110527859Y-63286759D01*
X110379899Y-63225471D01*
X110246743Y-63136499D01*
X110133503Y-63023259D01*
X110044531Y-62890103D01*
X109983243Y-62742143D01*
X109952001Y-62585076D01*
X109952001Y-62424926D01*
X109983243Y-62267859D01*
X110030690Y-62153313D01*
X110044530Y-62119901D01*
X110133502Y-61986744D01*
X110246744Y-61873502D01*
X110312871Y-61829318D01*
X110379899Y-61784531D01*
X110527859Y-61723243D01*
X110684926Y-61692001D01*
X110845076Y-61692001D01*
X111002143Y-61723243D01*
X111002143Y-61723243D01*
G37*
G36*
X126242143Y-61723243D02*
X126390103Y-61784531D01*
X126457131Y-61829318D01*
X126523258Y-61873502D01*
X126636500Y-61986744D01*
X126725472Y-62119901D01*
X126739312Y-62153313D01*
X126786759Y-62267859D01*
X126818001Y-62424926D01*
X126818001Y-62585076D01*
X126786759Y-62742143D01*
X126725471Y-62890103D01*
X126636499Y-63023259D01*
X126523259Y-63136499D01*
X126390103Y-63225471D01*
X126242143Y-63286759D01*
X126085076Y-63318001D01*
X125924926Y-63318001D01*
X125767859Y-63286759D01*
X125619899Y-63225471D01*
X125486743Y-63136499D01*
X125373503Y-63023259D01*
X125284531Y-62890103D01*
X125223243Y-62742143D01*
X125192001Y-62585076D01*
X125192001Y-62424926D01*
X125223243Y-62267859D01*
X125270690Y-62153313D01*
X125284530Y-62119901D01*
X125373502Y-61986744D01*
X125486744Y-61873502D01*
X125552871Y-61829318D01*
X125619899Y-61784531D01*
X125767859Y-61723243D01*
X125924926Y-61692001D01*
X126085076Y-61692001D01*
X126242143Y-61723243D01*
X126242143Y-61723243D01*
G37*
G36*
X111002143Y-59183243D02*
X111150103Y-59244531D01*
X111186985Y-59269175D01*
X111269497Y-59324307D01*
X111283259Y-59333503D01*
X111396499Y-59446743D01*
X111485471Y-59579899D01*
X111546759Y-59727859D01*
X111578001Y-59884926D01*
X111578001Y-60045076D01*
X111546759Y-60202143D01*
X111485471Y-60350103D01*
X111396499Y-60483259D01*
X111283259Y-60596499D01*
X111150103Y-60685471D01*
X111002143Y-60746759D01*
X110845076Y-60778001D01*
X110684926Y-60778001D01*
X110527859Y-60746759D01*
X110379899Y-60685471D01*
X110246743Y-60596499D01*
X110133503Y-60483259D01*
X110044531Y-60350103D01*
X109983243Y-60202143D01*
X109952001Y-60045076D01*
X109952001Y-59884926D01*
X109983243Y-59727859D01*
X110044531Y-59579899D01*
X110133503Y-59446743D01*
X110246743Y-59333503D01*
X110260506Y-59324307D01*
X110343017Y-59269175D01*
X110379899Y-59244531D01*
X110527859Y-59183243D01*
X110684926Y-59152001D01*
X110845076Y-59152001D01*
X111002143Y-59183243D01*
X111002143Y-59183243D01*
G37*
G36*
X126242143Y-59183243D02*
X126390103Y-59244531D01*
X126426985Y-59269175D01*
X126509497Y-59324307D01*
X126523259Y-59333503D01*
X126636499Y-59446743D01*
X126725471Y-59579899D01*
X126786759Y-59727859D01*
X126818001Y-59884926D01*
X126818001Y-60045076D01*
X126786759Y-60202143D01*
X126725471Y-60350103D01*
X126636499Y-60483259D01*
X126523259Y-60596499D01*
X126390103Y-60685471D01*
X126242143Y-60746759D01*
X126085076Y-60778001D01*
X125924926Y-60778001D01*
X125767859Y-60746759D01*
X125619899Y-60685471D01*
X125486743Y-60596499D01*
X125373503Y-60483259D01*
X125284531Y-60350103D01*
X125223243Y-60202143D01*
X125192001Y-60045076D01*
X125192001Y-59884926D01*
X125223243Y-59727859D01*
X125284531Y-59579899D01*
X125373503Y-59446743D01*
X125486743Y-59333503D01*
X125500506Y-59324307D01*
X125583017Y-59269175D01*
X125619899Y-59244531D01*
X125767859Y-59183243D01*
X125924926Y-59152001D01*
X126085076Y-59152001D01*
X126242143Y-59183243D01*
X126242143Y-59183243D01*
G37*
G36*
X66618425Y-58752760D02*
X66618428Y-58752761D01*
X66618429Y-58752761D01*
X66797693Y-58807140D01*
X66797695Y-58807141D01*
X66962905Y-58895448D01*
X67107712Y-59014288D01*
X67226552Y-59159095D01*
X67226553Y-59159097D01*
X67314860Y-59324307D01*
X67369239Y-59503571D01*
X67369240Y-59503575D01*
X67387601Y-59690000D01*
X67369240Y-59876425D01*
X67369239Y-59876428D01*
X67369239Y-59876429D01*
X67318081Y-60045076D01*
X67314859Y-60055695D01*
X67226552Y-60220905D01*
X67107712Y-60365712D01*
X66962905Y-60484552D01*
X66962903Y-60484553D01*
X66797693Y-60572860D01*
X66618429Y-60627239D01*
X66618428Y-60627239D01*
X66618425Y-60627240D01*
X66478718Y-60641000D01*
X64585282Y-60641000D01*
X64445575Y-60627240D01*
X64445572Y-60627239D01*
X64445571Y-60627239D01*
X64266307Y-60572860D01*
X64101097Y-60484553D01*
X64101095Y-60484552D01*
X63956288Y-60365712D01*
X63837448Y-60220905D01*
X63749141Y-60055695D01*
X63745920Y-60045076D01*
X63694761Y-59876429D01*
X63694761Y-59876428D01*
X63694760Y-59876425D01*
X63676399Y-59690000D01*
X63694760Y-59503575D01*
X63694761Y-59503571D01*
X63749140Y-59324307D01*
X63837447Y-59159097D01*
X63837448Y-59159095D01*
X63956288Y-59014288D01*
X64101095Y-58895448D01*
X64266305Y-58807141D01*
X64266307Y-58807140D01*
X64445571Y-58752761D01*
X64445572Y-58752761D01*
X64445575Y-58752760D01*
X64585282Y-58739000D01*
X66478718Y-58739000D01*
X66618425Y-58752760D01*
X66618425Y-58752760D01*
G37*
G36*
X72810821Y-58597313D02*
X72810824Y-58597314D01*
X72810825Y-58597314D01*
X72971239Y-58645975D01*
X72971241Y-58645976D01*
X72971244Y-58645977D01*
X73119078Y-58724995D01*
X73248659Y-58831341D01*
X73355005Y-58960922D01*
X73434023Y-59108756D01*
X73434024Y-59108759D01*
X73434025Y-59108761D01*
X73475210Y-59244530D01*
X73482687Y-59269179D01*
X73499117Y-59436000D01*
X73482687Y-59602821D01*
X73482686Y-59602824D01*
X73482686Y-59602825D01*
X73444758Y-59727858D01*
X73434023Y-59763244D01*
X73355005Y-59911078D01*
X73248659Y-60040659D01*
X73119078Y-60147005D01*
X72971244Y-60226023D01*
X72971241Y-60226024D01*
X72971239Y-60226025D01*
X72810825Y-60274686D01*
X72810824Y-60274686D01*
X72810821Y-60274687D01*
X72685804Y-60287000D01*
X72602196Y-60287000D01*
X72477179Y-60274687D01*
X72477176Y-60274686D01*
X72477175Y-60274686D01*
X72316761Y-60226025D01*
X72316759Y-60226024D01*
X72316756Y-60226023D01*
X72168922Y-60147005D01*
X72039341Y-60040659D01*
X71932995Y-59911078D01*
X71853977Y-59763244D01*
X71843243Y-59727858D01*
X71805314Y-59602825D01*
X71805314Y-59602824D01*
X71805313Y-59602821D01*
X71788883Y-59436000D01*
X71805313Y-59269179D01*
X71812790Y-59244530D01*
X71853975Y-59108761D01*
X71853976Y-59108759D01*
X71853977Y-59108756D01*
X71932995Y-58960922D01*
X72039341Y-58831341D01*
X72168922Y-58724995D01*
X72316756Y-58645977D01*
X72316759Y-58645976D01*
X72316761Y-58645975D01*
X72477175Y-58597314D01*
X72477176Y-58597314D01*
X72477179Y-58597313D01*
X72602196Y-58585000D01*
X72685804Y-58585000D01*
X72810821Y-58597313D01*
X72810821Y-58597313D01*
G37*
G36*
X83052228Y-58617703D02*
X83207100Y-58681853D01*
X83346481Y-58774985D01*
X83465015Y-58893519D01*
X83558147Y-59032900D01*
X83622297Y-59187772D01*
X83655000Y-59352184D01*
X83655000Y-59519816D01*
X83622297Y-59684228D01*
X83558147Y-59839100D01*
X83465015Y-59978481D01*
X83346481Y-60097015D01*
X83207100Y-60190147D01*
X83052228Y-60254297D01*
X82887816Y-60287000D01*
X82720184Y-60287000D01*
X82555772Y-60254297D01*
X82400900Y-60190147D01*
X82261519Y-60097015D01*
X82142985Y-59978481D01*
X82049853Y-59839100D01*
X81985703Y-59684228D01*
X81953000Y-59519816D01*
X81953000Y-59352184D01*
X81985703Y-59187772D01*
X82049853Y-59032900D01*
X82142985Y-58893519D01*
X82261519Y-58774985D01*
X82400900Y-58681853D01*
X82555772Y-58617703D01*
X82720184Y-58585000D01*
X82887816Y-58585000D01*
X83052228Y-58617703D01*
X83052228Y-58617703D01*
G37*
G36*
X126242143Y-56643243D02*
X126390103Y-56704531D01*
X126523259Y-56793503D01*
X126636499Y-56906743D01*
X126725471Y-57039899D01*
X126786759Y-57187859D01*
X126818001Y-57344926D01*
X126818001Y-57505076D01*
X126786759Y-57662143D01*
X126725471Y-57810103D01*
X126636499Y-57943259D01*
X126523259Y-58056499D01*
X126390103Y-58145471D01*
X126242143Y-58206759D01*
X126085076Y-58238001D01*
X125924926Y-58238001D01*
X125767859Y-58206759D01*
X125619899Y-58145471D01*
X125486743Y-58056499D01*
X125373503Y-57943259D01*
X125284531Y-57810103D01*
X125223243Y-57662143D01*
X125192001Y-57505076D01*
X125192001Y-57344926D01*
X125223243Y-57187859D01*
X125284531Y-57039899D01*
X125373503Y-56906743D01*
X125486743Y-56793503D01*
X125619899Y-56704531D01*
X125767859Y-56643243D01*
X125924926Y-56612001D01*
X126085076Y-56612001D01*
X126242143Y-56643243D01*
X126242143Y-56643243D01*
G37*
G36*
X111002143Y-56643243D02*
X111150103Y-56704531D01*
X111283259Y-56793503D01*
X111396499Y-56906743D01*
X111485471Y-57039899D01*
X111546759Y-57187859D01*
X111578001Y-57344926D01*
X111578001Y-57505076D01*
X111546759Y-57662143D01*
X111485471Y-57810103D01*
X111396499Y-57943259D01*
X111283259Y-58056499D01*
X111150103Y-58145471D01*
X111002143Y-58206759D01*
X110845076Y-58238001D01*
X110684926Y-58238001D01*
X110527859Y-58206759D01*
X110379899Y-58145471D01*
X110246743Y-58056499D01*
X110133503Y-57943259D01*
X110044531Y-57810103D01*
X109983243Y-57662143D01*
X109952001Y-57505076D01*
X109952001Y-57344926D01*
X109983243Y-57187859D01*
X110044531Y-57039899D01*
X110133503Y-56906743D01*
X110246743Y-56793503D01*
X110379899Y-56704531D01*
X110527859Y-56643243D01*
X110684926Y-56612001D01*
X110845076Y-56612001D01*
X111002143Y-56643243D01*
X111002143Y-56643243D01*
G37*
G36*
X91180228Y-54553703D02*
X91335100Y-54617853D01*
X91474481Y-54710985D01*
X91593015Y-54829519D01*
X91686147Y-54968900D01*
X91750297Y-55123772D01*
X91783000Y-55288184D01*
X91783000Y-55455816D01*
X91750297Y-55620228D01*
X91686147Y-55775100D01*
X91593015Y-55914481D01*
X91474481Y-56033015D01*
X91335100Y-56126147D01*
X91180228Y-56190297D01*
X91015816Y-56223000D01*
X90848184Y-56223000D01*
X90683772Y-56190297D01*
X90528900Y-56126147D01*
X90389519Y-56033015D01*
X90270985Y-55914481D01*
X90177853Y-55775100D01*
X90113703Y-55620228D01*
X90081000Y-55455816D01*
X90081000Y-55288184D01*
X90113703Y-55123772D01*
X90177853Y-54968900D01*
X90270985Y-54829519D01*
X90389519Y-54710985D01*
X90528900Y-54617853D01*
X90683772Y-54553703D01*
X90848184Y-54521000D01*
X91015816Y-54521000D01*
X91180228Y-54553703D01*
X91180228Y-54553703D01*
G37*
G36*
X80938821Y-54533313D02*
X80938824Y-54533314D01*
X80938825Y-54533314D01*
X81099239Y-54581975D01*
X81099241Y-54581976D01*
X81099244Y-54581977D01*
X81247078Y-54660995D01*
X81376659Y-54767341D01*
X81483005Y-54896922D01*
X81562023Y-55044756D01*
X81562024Y-55044759D01*
X81562025Y-55044761D01*
X81610686Y-55205175D01*
X81610687Y-55205179D01*
X81627117Y-55372000D01*
X81610687Y-55538821D01*
X81610686Y-55538824D01*
X81610686Y-55538825D01*
X81562401Y-55698001D01*
X81562023Y-55699244D01*
X81483005Y-55847078D01*
X81376659Y-55976659D01*
X81247078Y-56083005D01*
X81099244Y-56162023D01*
X81099241Y-56162024D01*
X81099239Y-56162025D01*
X80938825Y-56210686D01*
X80938824Y-56210686D01*
X80938821Y-56210687D01*
X80813804Y-56223000D01*
X80730196Y-56223000D01*
X80605179Y-56210687D01*
X80605176Y-56210686D01*
X80605175Y-56210686D01*
X80444761Y-56162025D01*
X80444759Y-56162024D01*
X80444756Y-56162023D01*
X80296922Y-56083005D01*
X80167341Y-55976659D01*
X80060995Y-55847078D01*
X79981977Y-55699244D01*
X79981600Y-55698001D01*
X79933314Y-55538825D01*
X79933314Y-55538824D01*
X79933313Y-55538821D01*
X79916883Y-55372000D01*
X79933313Y-55205179D01*
X79933314Y-55205175D01*
X79981975Y-55044761D01*
X79981976Y-55044759D01*
X79981977Y-55044756D01*
X80060995Y-54896922D01*
X80167341Y-54767341D01*
X80296922Y-54660995D01*
X80444756Y-54581977D01*
X80444759Y-54581976D01*
X80444761Y-54581975D01*
X80605175Y-54533314D01*
X80605176Y-54533314D01*
X80605179Y-54533313D01*
X80730196Y-54521000D01*
X80813804Y-54521000D01*
X80938821Y-54533313D01*
X80938821Y-54533313D01*
G37*
G36*
X111002143Y-54103243D02*
X111150103Y-54164531D01*
X111186985Y-54189175D01*
X111283258Y-54253502D01*
X111396500Y-54366744D01*
X111485472Y-54499901D01*
X111494966Y-54522821D01*
X111546759Y-54647859D01*
X111578001Y-54804926D01*
X111578001Y-54965076D01*
X111546759Y-55122143D01*
X111485471Y-55270103D01*
X111396499Y-55403259D01*
X111283259Y-55516499D01*
X111150103Y-55605471D01*
X111002143Y-55666759D01*
X110845076Y-55698001D01*
X110684926Y-55698001D01*
X110527859Y-55666759D01*
X110379899Y-55605471D01*
X110246743Y-55516499D01*
X110133503Y-55403259D01*
X110044531Y-55270103D01*
X109983243Y-55122143D01*
X109952001Y-54965076D01*
X109952001Y-54804926D01*
X109983243Y-54647859D01*
X110035036Y-54522821D01*
X110044530Y-54499901D01*
X110133502Y-54366744D01*
X110246744Y-54253502D01*
X110343017Y-54189175D01*
X110379899Y-54164531D01*
X110527859Y-54103243D01*
X110684926Y-54072001D01*
X110845076Y-54072001D01*
X111002143Y-54103243D01*
X111002143Y-54103243D01*
G37*
G36*
X126242143Y-54103243D02*
X126390103Y-54164531D01*
X126426985Y-54189175D01*
X126523258Y-54253502D01*
X126636500Y-54366744D01*
X126725472Y-54499901D01*
X126734966Y-54522821D01*
X126786759Y-54647859D01*
X126818001Y-54804926D01*
X126818001Y-54965076D01*
X126786759Y-55122143D01*
X126725471Y-55270103D01*
X126636499Y-55403259D01*
X126523259Y-55516499D01*
X126390103Y-55605471D01*
X126242143Y-55666759D01*
X126085076Y-55698001D01*
X125924926Y-55698001D01*
X125767859Y-55666759D01*
X125619899Y-55605471D01*
X125486743Y-55516499D01*
X125373503Y-55403259D01*
X125284531Y-55270103D01*
X125223243Y-55122143D01*
X125192001Y-54965076D01*
X125192001Y-54804926D01*
X125223243Y-54647859D01*
X125275036Y-54522821D01*
X125284530Y-54499901D01*
X125373502Y-54366744D01*
X125486744Y-54253502D01*
X125583017Y-54189175D01*
X125619899Y-54164531D01*
X125767859Y-54103243D01*
X125924926Y-54072001D01*
X126085076Y-54072001D01*
X126242143Y-54103243D01*
X126242143Y-54103243D01*
G37*
G36*
X103290821Y-53517313D02*
X103290824Y-53517314D01*
X103290825Y-53517314D01*
X103451239Y-53565975D01*
X103451241Y-53565976D01*
X103451244Y-53565977D01*
X103599078Y-53644995D01*
X103728659Y-53751341D01*
X103835005Y-53880922D01*
X103914023Y-54028756D01*
X103914024Y-54028759D01*
X103914025Y-54028761D01*
X103936619Y-54103244D01*
X103962687Y-54189179D01*
X103979117Y-54356000D01*
X103962687Y-54522821D01*
X103962686Y-54522824D01*
X103962686Y-54522825D01*
X103920773Y-54660995D01*
X103914023Y-54683244D01*
X103835005Y-54831078D01*
X103728659Y-54960659D01*
X103599078Y-55067005D01*
X103451244Y-55146023D01*
X103451241Y-55146024D01*
X103451239Y-55146025D01*
X103290825Y-55194686D01*
X103290824Y-55194686D01*
X103290821Y-55194687D01*
X103165804Y-55207000D01*
X103082196Y-55207000D01*
X102957179Y-55194687D01*
X102957176Y-55194686D01*
X102957175Y-55194686D01*
X102796761Y-55146025D01*
X102796759Y-55146024D01*
X102796756Y-55146023D01*
X102648922Y-55067005D01*
X102519341Y-54960659D01*
X102412995Y-54831078D01*
X102333977Y-54683244D01*
X102327228Y-54660995D01*
X102285314Y-54522825D01*
X102285314Y-54522824D01*
X102285313Y-54522821D01*
X102268883Y-54356000D01*
X102285313Y-54189179D01*
X102311381Y-54103244D01*
X102333975Y-54028761D01*
X102333976Y-54028759D01*
X102333977Y-54028756D01*
X102412995Y-53880922D01*
X102519341Y-53751341D01*
X102648922Y-53644995D01*
X102796756Y-53565977D01*
X102796759Y-53565976D01*
X102796761Y-53565975D01*
X102957175Y-53517314D01*
X102957176Y-53517314D01*
X102957179Y-53517313D01*
X103082196Y-53505000D01*
X103165804Y-53505000D01*
X103290821Y-53517313D01*
X103290821Y-53517313D01*
G37*
G36*
X95670821Y-53517313D02*
X95670824Y-53517314D01*
X95670825Y-53517314D01*
X95831239Y-53565975D01*
X95831241Y-53565976D01*
X95831244Y-53565977D01*
X95979078Y-53644995D01*
X96108659Y-53751341D01*
X96215005Y-53880922D01*
X96294023Y-54028756D01*
X96294024Y-54028759D01*
X96294025Y-54028761D01*
X96316619Y-54103244D01*
X96342687Y-54189179D01*
X96359117Y-54356000D01*
X96342687Y-54522821D01*
X96342686Y-54522824D01*
X96342686Y-54522825D01*
X96300773Y-54660995D01*
X96294023Y-54683244D01*
X96215005Y-54831078D01*
X96108659Y-54960659D01*
X95979078Y-55067005D01*
X95831244Y-55146023D01*
X95831241Y-55146024D01*
X95831239Y-55146025D01*
X95670825Y-55194686D01*
X95670824Y-55194686D01*
X95670821Y-55194687D01*
X95545804Y-55207000D01*
X95462196Y-55207000D01*
X95337179Y-55194687D01*
X95337176Y-55194686D01*
X95337175Y-55194686D01*
X95176761Y-55146025D01*
X95176759Y-55146024D01*
X95176756Y-55146023D01*
X95028922Y-55067005D01*
X94899341Y-54960659D01*
X94792995Y-54831078D01*
X94713977Y-54683244D01*
X94707228Y-54660995D01*
X94665314Y-54522825D01*
X94665314Y-54522824D01*
X94665313Y-54522821D01*
X94648883Y-54356000D01*
X94665313Y-54189179D01*
X94691381Y-54103244D01*
X94713975Y-54028761D01*
X94713976Y-54028759D01*
X94713977Y-54028756D01*
X94792995Y-53880922D01*
X94899341Y-53751341D01*
X95028922Y-53644995D01*
X95176756Y-53565977D01*
X95176759Y-53565976D01*
X95176761Y-53565975D01*
X95337175Y-53517314D01*
X95337176Y-53517314D01*
X95337179Y-53517313D01*
X95462196Y-53505000D01*
X95545804Y-53505000D01*
X95670821Y-53517313D01*
X95670821Y-53517313D01*
G37*
G36*
X126242143Y-51563243D02*
X126390103Y-51624531D01*
X126523259Y-51713503D01*
X126636499Y-51826743D01*
X126725471Y-51959899D01*
X126786759Y-52107859D01*
X126818001Y-52264926D01*
X126818001Y-52425076D01*
X126786759Y-52582143D01*
X126725471Y-52730103D01*
X126636499Y-52863259D01*
X126523259Y-52976499D01*
X126390103Y-53065471D01*
X126242143Y-53126759D01*
X126085076Y-53158001D01*
X125924926Y-53158001D01*
X125767859Y-53126759D01*
X125619899Y-53065471D01*
X125486743Y-52976499D01*
X125373503Y-52863259D01*
X125284531Y-52730103D01*
X125223243Y-52582143D01*
X125192001Y-52425076D01*
X125192001Y-52264926D01*
X125223243Y-52107859D01*
X125284531Y-51959899D01*
X125373503Y-51826743D01*
X125486743Y-51713503D01*
X125619899Y-51624531D01*
X125767859Y-51563243D01*
X125924926Y-51532001D01*
X126085076Y-51532001D01*
X126242143Y-51563243D01*
X126242143Y-51563243D01*
G37*
G36*
X111578001Y-53158001D02*
X109952001Y-53158001D01*
X109952001Y-51532001D01*
X111578001Y-51532001D01*
X111578001Y-53158001D01*
X111578001Y-53158001D01*
G37*
G36*
X103290821Y-50977313D02*
X103290824Y-50977314D01*
X103290825Y-50977314D01*
X103451239Y-51025975D01*
X103451241Y-51025976D01*
X103451244Y-51025977D01*
X103599078Y-51104995D01*
X103728659Y-51211341D01*
X103835005Y-51340922D01*
X103914023Y-51488756D01*
X103914024Y-51488759D01*
X103914025Y-51488761D01*
X103955210Y-51624530D01*
X103962687Y-51649179D01*
X103979117Y-51816000D01*
X103962687Y-51982821D01*
X103962686Y-51982824D01*
X103962686Y-51982825D01*
X103924758Y-52107858D01*
X103914023Y-52143244D01*
X103835005Y-52291078D01*
X103728659Y-52420659D01*
X103599078Y-52527005D01*
X103451244Y-52606023D01*
X103451241Y-52606024D01*
X103451239Y-52606025D01*
X103290825Y-52654686D01*
X103290824Y-52654686D01*
X103290821Y-52654687D01*
X103165804Y-52667000D01*
X103082196Y-52667000D01*
X102957179Y-52654687D01*
X102957176Y-52654686D01*
X102957175Y-52654686D01*
X102796761Y-52606025D01*
X102796759Y-52606024D01*
X102796756Y-52606023D01*
X102648922Y-52527005D01*
X102519341Y-52420659D01*
X102412995Y-52291078D01*
X102333977Y-52143244D01*
X102323243Y-52107858D01*
X102285314Y-51982825D01*
X102285314Y-51982824D01*
X102285313Y-51982821D01*
X102268883Y-51816000D01*
X102285313Y-51649179D01*
X102292790Y-51624530D01*
X102333975Y-51488761D01*
X102333976Y-51488759D01*
X102333977Y-51488756D01*
X102412995Y-51340922D01*
X102519341Y-51211341D01*
X102648922Y-51104995D01*
X102796756Y-51025977D01*
X102796759Y-51025976D01*
X102796761Y-51025975D01*
X102957175Y-50977314D01*
X102957176Y-50977314D01*
X102957179Y-50977313D01*
X103082196Y-50965000D01*
X103165804Y-50965000D01*
X103290821Y-50977313D01*
X103290821Y-50977313D01*
G37*
G36*
X96355000Y-52667000D02*
X94653000Y-52667000D01*
X94653000Y-50965000D01*
X96355000Y-50965000D01*
X96355000Y-52667000D01*
X96355000Y-52667000D01*
G37*
G36*
X91180228Y-50997703D02*
X91335100Y-51061853D01*
X91474481Y-51154985D01*
X91593015Y-51273519D01*
X91686147Y-51412900D01*
X91750297Y-51567772D01*
X91783000Y-51732184D01*
X91783000Y-51899816D01*
X91750297Y-52064228D01*
X91686147Y-52219100D01*
X91593015Y-52358481D01*
X91474481Y-52477015D01*
X91335100Y-52570147D01*
X91180228Y-52634297D01*
X91015816Y-52667000D01*
X90848184Y-52667000D01*
X90683772Y-52634297D01*
X90528900Y-52570147D01*
X90389519Y-52477015D01*
X90270985Y-52358481D01*
X90177853Y-52219100D01*
X90113703Y-52064228D01*
X90081000Y-51899816D01*
X90081000Y-51732184D01*
X90113703Y-51567772D01*
X90177853Y-51412900D01*
X90270985Y-51273519D01*
X90389519Y-51154985D01*
X90528900Y-51061853D01*
X90683772Y-50997703D01*
X90848184Y-50965000D01*
X91015816Y-50965000D01*
X91180228Y-50997703D01*
X91180228Y-50997703D01*
G37*
G36*
X80938821Y-50977313D02*
X80938824Y-50977314D01*
X80938825Y-50977314D01*
X81099239Y-51025975D01*
X81099241Y-51025976D01*
X81099244Y-51025977D01*
X81247078Y-51104995D01*
X81376659Y-51211341D01*
X81483005Y-51340922D01*
X81562023Y-51488756D01*
X81562024Y-51488759D01*
X81562025Y-51488761D01*
X81603210Y-51624530D01*
X81610687Y-51649179D01*
X81627117Y-51816000D01*
X81610687Y-51982821D01*
X81610686Y-51982824D01*
X81610686Y-51982825D01*
X81572758Y-52107858D01*
X81562023Y-52143244D01*
X81483005Y-52291078D01*
X81376659Y-52420659D01*
X81247078Y-52527005D01*
X81099244Y-52606023D01*
X81099241Y-52606024D01*
X81099239Y-52606025D01*
X80938825Y-52654686D01*
X80938824Y-52654686D01*
X80938821Y-52654687D01*
X80813804Y-52667000D01*
X80730196Y-52667000D01*
X80605179Y-52654687D01*
X80605176Y-52654686D01*
X80605175Y-52654686D01*
X80444761Y-52606025D01*
X80444759Y-52606024D01*
X80444756Y-52606023D01*
X80296922Y-52527005D01*
X80167341Y-52420659D01*
X80060995Y-52291078D01*
X79981977Y-52143244D01*
X79971243Y-52107858D01*
X79933314Y-51982825D01*
X79933314Y-51982824D01*
X79933313Y-51982821D01*
X79916883Y-51816000D01*
X79933313Y-51649179D01*
X79940790Y-51624530D01*
X79981975Y-51488761D01*
X79981976Y-51488759D01*
X79981977Y-51488756D01*
X80060995Y-51340922D01*
X80167341Y-51211341D01*
X80296922Y-51104995D01*
X80444756Y-51025977D01*
X80444759Y-51025976D01*
X80444761Y-51025975D01*
X80605175Y-50977314D01*
X80605176Y-50977314D01*
X80605179Y-50977313D01*
X80730196Y-50965000D01*
X80813804Y-50965000D01*
X80938821Y-50977313D01*
X80938821Y-50977313D01*
G37*
M02*
