G04 #@! TF.GenerationSoftware,KiCad,Pcbnew,(5.0.2)-1*
G04 #@! TF.CreationDate,2019-04-01T14:51:39+03:00*
G04 #@! TF.ProjectId,vent_sys,76656e74-5f73-4797-932e-6b696361645f,rev?*
G04 #@! TF.SameCoordinates,Original*
G04 #@! TF.FileFunction,Soldermask,Top*
G04 #@! TF.FilePolarity,Negative*
%FSLAX46Y46*%
G04 Gerber Fmt 4.6, Leading zero omitted, Abs format (unit mm)*
G04 Created by KiCad (PCBNEW (5.0.2)-1) date 01.04.2019 14:51:39*
%MOMM*%
%LPD*%
G01*
G04 APERTURE LIST*
%ADD10C,0.100000*%
G04 APERTURE END LIST*
D10*
G36*
X122919142Y-100056242D02*
X123067102Y-100117530D01*
X123200258Y-100206502D01*
X123313498Y-100319742D01*
X123402470Y-100452898D01*
X123463758Y-100600858D01*
X123495000Y-100757925D01*
X123495000Y-100918075D01*
X123463758Y-101075142D01*
X123402470Y-101223102D01*
X123313498Y-101356258D01*
X123200258Y-101469498D01*
X123067102Y-101558470D01*
X122919142Y-101619758D01*
X122762075Y-101651000D01*
X122601925Y-101651000D01*
X122444858Y-101619758D01*
X122296898Y-101558470D01*
X122163742Y-101469498D01*
X122050502Y-101356258D01*
X121961530Y-101223102D01*
X121900242Y-101075142D01*
X121869000Y-100918075D01*
X121869000Y-100757925D01*
X121900242Y-100600858D01*
X121961530Y-100452898D01*
X122050502Y-100319742D01*
X122163742Y-100206502D01*
X122296898Y-100117530D01*
X122444858Y-100056242D01*
X122601925Y-100025000D01*
X122762075Y-100025000D01*
X122919142Y-100056242D01*
X122919142Y-100056242D01*
G37*
G36*
X107679142Y-100056242D02*
X107827102Y-100117530D01*
X107960258Y-100206502D01*
X108073498Y-100319742D01*
X108162470Y-100452898D01*
X108223758Y-100600858D01*
X108255000Y-100757925D01*
X108255000Y-100918075D01*
X108223758Y-101075142D01*
X108162470Y-101223102D01*
X108073498Y-101356258D01*
X107960258Y-101469498D01*
X107827102Y-101558470D01*
X107679142Y-101619758D01*
X107522075Y-101651000D01*
X107361925Y-101651000D01*
X107204858Y-101619758D01*
X107056898Y-101558470D01*
X106923742Y-101469498D01*
X106810502Y-101356258D01*
X106721530Y-101223102D01*
X106660242Y-101075142D01*
X106629000Y-100918075D01*
X106629000Y-100757925D01*
X106660242Y-100600858D01*
X106721530Y-100452898D01*
X106810502Y-100319742D01*
X106923742Y-100206502D01*
X107056898Y-100117530D01*
X107204858Y-100056242D01*
X107361925Y-100025000D01*
X107522075Y-100025000D01*
X107679142Y-100056242D01*
X107679142Y-100056242D01*
G37*
G36*
X89193821Y-98348313D02*
X89193824Y-98348314D01*
X89193825Y-98348314D01*
X89354239Y-98396975D01*
X89354241Y-98396976D01*
X89354244Y-98396977D01*
X89502078Y-98475995D01*
X89631659Y-98582341D01*
X89738005Y-98711922D01*
X89817023Y-98859756D01*
X89817024Y-98859759D01*
X89817025Y-98859761D01*
X89864667Y-99016816D01*
X89865687Y-99020179D01*
X89882117Y-99187000D01*
X89865687Y-99353821D01*
X89817023Y-99514244D01*
X89738005Y-99662078D01*
X89631659Y-99791659D01*
X89502078Y-99898005D01*
X89354244Y-99977023D01*
X89354241Y-99977024D01*
X89354239Y-99977025D01*
X89193825Y-100025686D01*
X89193824Y-100025686D01*
X89193821Y-100025687D01*
X89068804Y-100038000D01*
X88985196Y-100038000D01*
X88860179Y-100025687D01*
X88860176Y-100025686D01*
X88860175Y-100025686D01*
X88699761Y-99977025D01*
X88699759Y-99977024D01*
X88699756Y-99977023D01*
X88551922Y-99898005D01*
X88422341Y-99791659D01*
X88315995Y-99662078D01*
X88236977Y-99514244D01*
X88188313Y-99353821D01*
X88171883Y-99187000D01*
X88188313Y-99020179D01*
X88189333Y-99016816D01*
X88236975Y-98859761D01*
X88236976Y-98859759D01*
X88236977Y-98859756D01*
X88315995Y-98711922D01*
X88422341Y-98582341D01*
X88551922Y-98475995D01*
X88699756Y-98396977D01*
X88699759Y-98396976D01*
X88699761Y-98396975D01*
X88860175Y-98348314D01*
X88860176Y-98348314D01*
X88860179Y-98348313D01*
X88985196Y-98336000D01*
X89068804Y-98336000D01*
X89193821Y-98348313D01*
X89193821Y-98348313D01*
G37*
G36*
X84957228Y-98114703D02*
X85112100Y-98178853D01*
X85251481Y-98271985D01*
X85370015Y-98390519D01*
X85463147Y-98529900D01*
X85527297Y-98684772D01*
X85560000Y-98849184D01*
X85560000Y-99016816D01*
X85527297Y-99181228D01*
X85463147Y-99336100D01*
X85370015Y-99475481D01*
X85251481Y-99594015D01*
X85112100Y-99687147D01*
X84957228Y-99751297D01*
X84792816Y-99784000D01*
X84625184Y-99784000D01*
X84460772Y-99751297D01*
X84305900Y-99687147D01*
X84166519Y-99594015D01*
X84047985Y-99475481D01*
X83954853Y-99336100D01*
X83890703Y-99181228D01*
X83858000Y-99016816D01*
X83858000Y-98849184D01*
X83890703Y-98684772D01*
X83954853Y-98529900D01*
X84047985Y-98390519D01*
X84166519Y-98271985D01*
X84305900Y-98178853D01*
X84460772Y-98114703D01*
X84625184Y-98082000D01*
X84792816Y-98082000D01*
X84957228Y-98114703D01*
X84957228Y-98114703D01*
G37*
G36*
X77457228Y-98114703D02*
X77612100Y-98178853D01*
X77751481Y-98271985D01*
X77870015Y-98390519D01*
X77963147Y-98529900D01*
X78027297Y-98684772D01*
X78060000Y-98849184D01*
X78060000Y-99016816D01*
X78027297Y-99181228D01*
X77963147Y-99336100D01*
X77870015Y-99475481D01*
X77751481Y-99594015D01*
X77612100Y-99687147D01*
X77457228Y-99751297D01*
X77292816Y-99784000D01*
X77125184Y-99784000D01*
X76960772Y-99751297D01*
X76805900Y-99687147D01*
X76666519Y-99594015D01*
X76547985Y-99475481D01*
X76454853Y-99336100D01*
X76390703Y-99181228D01*
X76358000Y-99016816D01*
X76358000Y-98849184D01*
X76390703Y-98684772D01*
X76454853Y-98529900D01*
X76547985Y-98390519D01*
X76666519Y-98271985D01*
X76805900Y-98178853D01*
X76960772Y-98114703D01*
X77125184Y-98082000D01*
X77292816Y-98082000D01*
X77457228Y-98114703D01*
X77457228Y-98114703D01*
G37*
G36*
X122919142Y-97516242D02*
X123067102Y-97577530D01*
X123134130Y-97622317D01*
X123186379Y-97657228D01*
X123200258Y-97666502D01*
X123313498Y-97779742D01*
X123402470Y-97912898D01*
X123463758Y-98060858D01*
X123495000Y-98217925D01*
X123495000Y-98378075D01*
X123463758Y-98535142D01*
X123402470Y-98683102D01*
X123313498Y-98816258D01*
X123200258Y-98929498D01*
X123067102Y-99018470D01*
X123067101Y-99018471D01*
X123067100Y-99018471D01*
X123033583Y-99032354D01*
X122919142Y-99079758D01*
X122762075Y-99111000D01*
X122601925Y-99111000D01*
X122444858Y-99079758D01*
X122330417Y-99032354D01*
X122296900Y-99018471D01*
X122296899Y-99018471D01*
X122296898Y-99018470D01*
X122163742Y-98929498D01*
X122050502Y-98816258D01*
X121961530Y-98683102D01*
X121900242Y-98535142D01*
X121869000Y-98378075D01*
X121869000Y-98217925D01*
X121900242Y-98060858D01*
X121961530Y-97912898D01*
X122050502Y-97779742D01*
X122163742Y-97666502D01*
X122177622Y-97657228D01*
X122229870Y-97622317D01*
X122296898Y-97577530D01*
X122444858Y-97516242D01*
X122601925Y-97485000D01*
X122762075Y-97485000D01*
X122919142Y-97516242D01*
X122919142Y-97516242D01*
G37*
G36*
X107679142Y-97516242D02*
X107827102Y-97577530D01*
X107894130Y-97622317D01*
X107946379Y-97657228D01*
X107960258Y-97666502D01*
X108073498Y-97779742D01*
X108162470Y-97912898D01*
X108223758Y-98060858D01*
X108255000Y-98217925D01*
X108255000Y-98378075D01*
X108223758Y-98535142D01*
X108162470Y-98683102D01*
X108073498Y-98816258D01*
X107960258Y-98929498D01*
X107827102Y-99018470D01*
X107827101Y-99018471D01*
X107827100Y-99018471D01*
X107793583Y-99032354D01*
X107679142Y-99079758D01*
X107522075Y-99111000D01*
X107361925Y-99111000D01*
X107204858Y-99079758D01*
X107090417Y-99032354D01*
X107056900Y-99018471D01*
X107056899Y-99018471D01*
X107056898Y-99018470D01*
X106923742Y-98929498D01*
X106810502Y-98816258D01*
X106721530Y-98683102D01*
X106660242Y-98535142D01*
X106629000Y-98378075D01*
X106629000Y-98217925D01*
X106660242Y-98060858D01*
X106721530Y-97912898D01*
X106810502Y-97779742D01*
X106923742Y-97666502D01*
X106937622Y-97657228D01*
X106989870Y-97622317D01*
X107056898Y-97577530D01*
X107204858Y-97516242D01*
X107361925Y-97485000D01*
X107522075Y-97485000D01*
X107679142Y-97516242D01*
X107679142Y-97516242D01*
G37*
G36*
X72130228Y-96590703D02*
X72285100Y-96654853D01*
X72424481Y-96747985D01*
X72543015Y-96866519D01*
X72636147Y-97005900D01*
X72700297Y-97160772D01*
X72733000Y-97325184D01*
X72733000Y-97492816D01*
X72700297Y-97657228D01*
X72636147Y-97812100D01*
X72543015Y-97951481D01*
X72424481Y-98070015D01*
X72285100Y-98163147D01*
X72130228Y-98227297D01*
X71965816Y-98260000D01*
X71798184Y-98260000D01*
X71633772Y-98227297D01*
X71478900Y-98163147D01*
X71339519Y-98070015D01*
X71220985Y-97951481D01*
X71127853Y-97812100D01*
X71063703Y-97657228D01*
X71031000Y-97492816D01*
X71031000Y-97325184D01*
X71063703Y-97160772D01*
X71127853Y-97005900D01*
X71220985Y-96866519D01*
X71339519Y-96747985D01*
X71478900Y-96654853D01*
X71633772Y-96590703D01*
X71798184Y-96558000D01*
X71965816Y-96558000D01*
X72130228Y-96590703D01*
X72130228Y-96590703D01*
G37*
G36*
X62478228Y-95828703D02*
X62633100Y-95892853D01*
X62772481Y-95985985D01*
X62891015Y-96104519D01*
X62984147Y-96243900D01*
X63048297Y-96398772D01*
X63081000Y-96563184D01*
X63081000Y-96730816D01*
X63048297Y-96895228D01*
X62984147Y-97050100D01*
X62891015Y-97189481D01*
X62772481Y-97308015D01*
X62633100Y-97401147D01*
X62478228Y-97465297D01*
X62313816Y-97498000D01*
X62146184Y-97498000D01*
X61981772Y-97465297D01*
X61826900Y-97401147D01*
X61687519Y-97308015D01*
X61568985Y-97189481D01*
X61475853Y-97050100D01*
X61411703Y-96895228D01*
X61379000Y-96730816D01*
X61379000Y-96563184D01*
X61411703Y-96398772D01*
X61475853Y-96243900D01*
X61568985Y-96104519D01*
X61687519Y-95985985D01*
X61826900Y-95892853D01*
X61981772Y-95828703D01*
X62146184Y-95796000D01*
X62313816Y-95796000D01*
X62478228Y-95828703D01*
X62478228Y-95828703D01*
G37*
G36*
X122919142Y-94976242D02*
X123067102Y-95037530D01*
X123200258Y-95126502D01*
X123313498Y-95239742D01*
X123402470Y-95372898D01*
X123463758Y-95520858D01*
X123495000Y-95677925D01*
X123495000Y-95838075D01*
X123463758Y-95995142D01*
X123418452Y-96104519D01*
X123402471Y-96143100D01*
X123313499Y-96276257D01*
X123200257Y-96389499D01*
X123134130Y-96433683D01*
X123067102Y-96478470D01*
X122919142Y-96539758D01*
X122762075Y-96571000D01*
X122601925Y-96571000D01*
X122444858Y-96539758D01*
X122296898Y-96478470D01*
X122229870Y-96433683D01*
X122163743Y-96389499D01*
X122050501Y-96276257D01*
X121961529Y-96143100D01*
X121945548Y-96104519D01*
X121900242Y-95995142D01*
X121869000Y-95838075D01*
X121869000Y-95677925D01*
X121900242Y-95520858D01*
X121961530Y-95372898D01*
X122050502Y-95239742D01*
X122163742Y-95126502D01*
X122296898Y-95037530D01*
X122444858Y-94976242D01*
X122601925Y-94945000D01*
X122762075Y-94945000D01*
X122919142Y-94976242D01*
X122919142Y-94976242D01*
G37*
G36*
X107679142Y-94976242D02*
X107827102Y-95037530D01*
X107960258Y-95126502D01*
X108073498Y-95239742D01*
X108162470Y-95372898D01*
X108223758Y-95520858D01*
X108255000Y-95677925D01*
X108255000Y-95838075D01*
X108223758Y-95995142D01*
X108178452Y-96104519D01*
X108162471Y-96143100D01*
X108073499Y-96276257D01*
X107960257Y-96389499D01*
X107894130Y-96433683D01*
X107827102Y-96478470D01*
X107679142Y-96539758D01*
X107522075Y-96571000D01*
X107361925Y-96571000D01*
X107204858Y-96539758D01*
X107056898Y-96478470D01*
X106989870Y-96433683D01*
X106923743Y-96389499D01*
X106810501Y-96276257D01*
X106721529Y-96143100D01*
X106705548Y-96104519D01*
X106660242Y-95995142D01*
X106629000Y-95838075D01*
X106629000Y-95677925D01*
X106660242Y-95520858D01*
X106721530Y-95372898D01*
X106810502Y-95239742D01*
X106923742Y-95126502D01*
X107056898Y-95037530D01*
X107204858Y-94976242D01*
X107361925Y-94945000D01*
X107522075Y-94945000D01*
X107679142Y-94976242D01*
X107679142Y-94976242D01*
G37*
G36*
X95689821Y-94284313D02*
X95689824Y-94284314D01*
X95689825Y-94284314D01*
X95850239Y-94332975D01*
X95850241Y-94332976D01*
X95850244Y-94332977D01*
X95998078Y-94411995D01*
X96127659Y-94518341D01*
X96234005Y-94647922D01*
X96313023Y-94795756D01*
X96361687Y-94956179D01*
X96378117Y-95123000D01*
X96361687Y-95289821D01*
X96361686Y-95289824D01*
X96361686Y-95289825D01*
X96322385Y-95419384D01*
X96313023Y-95450244D01*
X96234005Y-95598078D01*
X96127659Y-95727659D01*
X95998078Y-95834005D01*
X95850244Y-95913023D01*
X95850241Y-95913024D01*
X95850239Y-95913025D01*
X95689825Y-95961686D01*
X95689824Y-95961686D01*
X95689821Y-95961687D01*
X95564804Y-95974000D01*
X94681196Y-95974000D01*
X94556179Y-95961687D01*
X94556176Y-95961686D01*
X94556175Y-95961686D01*
X94395761Y-95913025D01*
X94395759Y-95913024D01*
X94395756Y-95913023D01*
X94247922Y-95834005D01*
X94118341Y-95727659D01*
X94011995Y-95598078D01*
X93932977Y-95450244D01*
X93923616Y-95419384D01*
X93884314Y-95289825D01*
X93884314Y-95289824D01*
X93884313Y-95289821D01*
X93867883Y-95123000D01*
X93884313Y-94956179D01*
X93932977Y-94795756D01*
X94011995Y-94647922D01*
X94118341Y-94518341D01*
X94247922Y-94411995D01*
X94395756Y-94332977D01*
X94395759Y-94332976D01*
X94395761Y-94332975D01*
X94556175Y-94284314D01*
X94556176Y-94284314D01*
X94556179Y-94284313D01*
X94681196Y-94272000D01*
X95564804Y-94272000D01*
X95689821Y-94284313D01*
X95689821Y-94284313D01*
G37*
G36*
X103994000Y-95974000D02*
X101492000Y-95974000D01*
X101492000Y-94272000D01*
X103994000Y-94272000D01*
X103994000Y-95974000D01*
X103994000Y-95974000D01*
G37*
G36*
X65838565Y-93477389D02*
X66029834Y-93556615D01*
X66201976Y-93671637D01*
X66348363Y-93818024D01*
X66463385Y-93990166D01*
X66542611Y-94181435D01*
X66583000Y-94384484D01*
X66583000Y-94591516D01*
X66542611Y-94794565D01*
X66463385Y-94985834D01*
X66348363Y-95157976D01*
X66201976Y-95304363D01*
X66029834Y-95419385D01*
X65838565Y-95498611D01*
X65635516Y-95539000D01*
X65428484Y-95539000D01*
X65225435Y-95498611D01*
X65034166Y-95419385D01*
X64862024Y-95304363D01*
X64715637Y-95157976D01*
X64600615Y-94985834D01*
X64521389Y-94794565D01*
X64481000Y-94591516D01*
X64481000Y-94384484D01*
X64521389Y-94181435D01*
X64600615Y-93990166D01*
X64715637Y-93818024D01*
X64862024Y-93671637D01*
X65034166Y-93556615D01*
X65225435Y-93477389D01*
X65428484Y-93437000D01*
X65635516Y-93437000D01*
X65838565Y-93477389D01*
X65838565Y-93477389D01*
G37*
G36*
X81315000Y-95491500D02*
X79213000Y-95491500D01*
X79213000Y-93484500D01*
X81315000Y-93484500D01*
X81315000Y-95491500D01*
X81315000Y-95491500D01*
G37*
G36*
X122919142Y-92436242D02*
X123067102Y-92497530D01*
X123200258Y-92586502D01*
X123313498Y-92699742D01*
X123402470Y-92832898D01*
X123463758Y-92980858D01*
X123495000Y-93137925D01*
X123495000Y-93298075D01*
X123463758Y-93455142D01*
X123402470Y-93603102D01*
X123313498Y-93736258D01*
X123200258Y-93849498D01*
X123067102Y-93938470D01*
X122919142Y-93999758D01*
X122762075Y-94031000D01*
X122601925Y-94031000D01*
X122444858Y-93999758D01*
X122296898Y-93938470D01*
X122163742Y-93849498D01*
X122050502Y-93736258D01*
X121961530Y-93603102D01*
X121900242Y-93455142D01*
X121869000Y-93298075D01*
X121869000Y-93137925D01*
X121900242Y-92980858D01*
X121961530Y-92832898D01*
X122050502Y-92699742D01*
X122163742Y-92586502D01*
X122296898Y-92497530D01*
X122444858Y-92436242D01*
X122601925Y-92405000D01*
X122762075Y-92405000D01*
X122919142Y-92436242D01*
X122919142Y-92436242D01*
G37*
G36*
X107679142Y-92436242D02*
X107827102Y-92497530D01*
X107960258Y-92586502D01*
X108073498Y-92699742D01*
X108162470Y-92832898D01*
X108223758Y-92980858D01*
X108255000Y-93137925D01*
X108255000Y-93298075D01*
X108223758Y-93455142D01*
X108162470Y-93603102D01*
X108073498Y-93736258D01*
X107960258Y-93849498D01*
X107827102Y-93938470D01*
X107679142Y-93999758D01*
X107522075Y-94031000D01*
X107361925Y-94031000D01*
X107204858Y-93999758D01*
X107056898Y-93938470D01*
X106923742Y-93849498D01*
X106810502Y-93736258D01*
X106721530Y-93603102D01*
X106660242Y-93455142D01*
X106629000Y-93298075D01*
X106629000Y-93137925D01*
X106660242Y-92980858D01*
X106721530Y-92832898D01*
X106810502Y-92699742D01*
X106923742Y-92586502D01*
X107056898Y-92497530D01*
X107204858Y-92436242D01*
X107361925Y-92405000D01*
X107522075Y-92405000D01*
X107679142Y-92436242D01*
X107679142Y-92436242D01*
G37*
G36*
X95689821Y-91744313D02*
X95689824Y-91744314D01*
X95689825Y-91744314D01*
X95850239Y-91792975D01*
X95850241Y-91792976D01*
X95850244Y-91792977D01*
X95998078Y-91871995D01*
X96127659Y-91978341D01*
X96234005Y-92107922D01*
X96313023Y-92255756D01*
X96361687Y-92416179D01*
X96378117Y-92583000D01*
X96361687Y-92749821D01*
X96361686Y-92749824D01*
X96361686Y-92749825D01*
X96322320Y-92879599D01*
X96313023Y-92910244D01*
X96234005Y-93058078D01*
X96127659Y-93187659D01*
X95998078Y-93294005D01*
X95850244Y-93373023D01*
X95850241Y-93373024D01*
X95850239Y-93373025D01*
X95689825Y-93421686D01*
X95689824Y-93421686D01*
X95689821Y-93421687D01*
X95564804Y-93434000D01*
X94681196Y-93434000D01*
X94556179Y-93421687D01*
X94556176Y-93421686D01*
X94556175Y-93421686D01*
X94395761Y-93373025D01*
X94395759Y-93373024D01*
X94395756Y-93373023D01*
X94247922Y-93294005D01*
X94118341Y-93187659D01*
X94011995Y-93058078D01*
X93932977Y-92910244D01*
X93923681Y-92879599D01*
X93884314Y-92749825D01*
X93884314Y-92749824D01*
X93884313Y-92749821D01*
X93867883Y-92583000D01*
X93884313Y-92416179D01*
X93932977Y-92255756D01*
X94011995Y-92107922D01*
X94118341Y-91978341D01*
X94247922Y-91871995D01*
X94395756Y-91792977D01*
X94395759Y-91792976D01*
X94395761Y-91792975D01*
X94556175Y-91744314D01*
X94556176Y-91744314D01*
X94556179Y-91744313D01*
X94681196Y-91732000D01*
X95564804Y-91732000D01*
X95689821Y-91744313D01*
X95689821Y-91744313D01*
G37*
G36*
X103309821Y-91744313D02*
X103309824Y-91744314D01*
X103309825Y-91744314D01*
X103470239Y-91792975D01*
X103470241Y-91792976D01*
X103470244Y-91792977D01*
X103618078Y-91871995D01*
X103747659Y-91978341D01*
X103854005Y-92107922D01*
X103933023Y-92255756D01*
X103981687Y-92416179D01*
X103998117Y-92583000D01*
X103981687Y-92749821D01*
X103981686Y-92749824D01*
X103981686Y-92749825D01*
X103942320Y-92879599D01*
X103933023Y-92910244D01*
X103854005Y-93058078D01*
X103747659Y-93187659D01*
X103618078Y-93294005D01*
X103470244Y-93373023D01*
X103470241Y-93373024D01*
X103470239Y-93373025D01*
X103309825Y-93421686D01*
X103309824Y-93421686D01*
X103309821Y-93421687D01*
X103184804Y-93434000D01*
X102301196Y-93434000D01*
X102176179Y-93421687D01*
X102176176Y-93421686D01*
X102176175Y-93421686D01*
X102015761Y-93373025D01*
X102015759Y-93373024D01*
X102015756Y-93373023D01*
X101867922Y-93294005D01*
X101738341Y-93187659D01*
X101631995Y-93058078D01*
X101552977Y-92910244D01*
X101543681Y-92879599D01*
X101504314Y-92749825D01*
X101504314Y-92749824D01*
X101504313Y-92749821D01*
X101487883Y-92583000D01*
X101504313Y-92416179D01*
X101552977Y-92255756D01*
X101631995Y-92107922D01*
X101738341Y-91978341D01*
X101867922Y-91871995D01*
X102015756Y-91792977D01*
X102015759Y-91792976D01*
X102015761Y-91792975D01*
X102176175Y-91744314D01*
X102176176Y-91744314D01*
X102176179Y-91744313D01*
X102301196Y-91732000D01*
X103184804Y-91732000D01*
X103309821Y-91744313D01*
X103309821Y-91744313D01*
G37*
G36*
X80419764Y-90950308D02*
X80508220Y-90959020D01*
X80697381Y-91016401D01*
X80871712Y-91109583D01*
X81024515Y-91234985D01*
X81149917Y-91387788D01*
X81243099Y-91562119D01*
X81300480Y-91751280D01*
X81319855Y-91948000D01*
X81300480Y-92144720D01*
X81243099Y-92333881D01*
X81149917Y-92508212D01*
X81024515Y-92661015D01*
X80871712Y-92786417D01*
X80697381Y-92879599D01*
X80508220Y-92936980D01*
X80419764Y-92945692D01*
X80360796Y-92951500D01*
X80167204Y-92951500D01*
X80108236Y-92945692D01*
X80019780Y-92936980D01*
X79830619Y-92879599D01*
X79656288Y-92786417D01*
X79503485Y-92661015D01*
X79378083Y-92508212D01*
X79284901Y-92333881D01*
X79227520Y-92144720D01*
X79208145Y-91948000D01*
X79227520Y-91751280D01*
X79284901Y-91562119D01*
X79378083Y-91387788D01*
X79503485Y-91234985D01*
X79656288Y-91109583D01*
X79830619Y-91016401D01*
X80019780Y-90959020D01*
X80108236Y-90950308D01*
X80167204Y-90944500D01*
X80360796Y-90944500D01*
X80419764Y-90950308D01*
X80419764Y-90950308D01*
G37*
G36*
X107679142Y-89896242D02*
X107827102Y-89957530D01*
X107960258Y-90046502D01*
X108073498Y-90159742D01*
X108162470Y-90292898D01*
X108223758Y-90440858D01*
X108255000Y-90597925D01*
X108255000Y-90758075D01*
X108223758Y-90915142D01*
X108162470Y-91063102D01*
X108073498Y-91196258D01*
X107960258Y-91309498D01*
X107827102Y-91398470D01*
X107679142Y-91459758D01*
X107522075Y-91491000D01*
X107361925Y-91491000D01*
X107204858Y-91459758D01*
X107056898Y-91398470D01*
X106923742Y-91309498D01*
X106810502Y-91196258D01*
X106721530Y-91063102D01*
X106660242Y-90915142D01*
X106629000Y-90758075D01*
X106629000Y-90597925D01*
X106660242Y-90440858D01*
X106721530Y-90292898D01*
X106810502Y-90159742D01*
X106923742Y-90046502D01*
X107056898Y-89957530D01*
X107204858Y-89896242D01*
X107361925Y-89865000D01*
X107522075Y-89865000D01*
X107679142Y-89896242D01*
X107679142Y-89896242D01*
G37*
G36*
X122919142Y-89896242D02*
X123067102Y-89957530D01*
X123200258Y-90046502D01*
X123313498Y-90159742D01*
X123402470Y-90292898D01*
X123463758Y-90440858D01*
X123495000Y-90597925D01*
X123495000Y-90758075D01*
X123463758Y-90915142D01*
X123402470Y-91063102D01*
X123313498Y-91196258D01*
X123200258Y-91309498D01*
X123067102Y-91398470D01*
X122919142Y-91459758D01*
X122762075Y-91491000D01*
X122601925Y-91491000D01*
X122444858Y-91459758D01*
X122296898Y-91398470D01*
X122163742Y-91309498D01*
X122050502Y-91196258D01*
X121961530Y-91063102D01*
X121900242Y-90915142D01*
X121869000Y-90758075D01*
X121869000Y-90597925D01*
X121900242Y-90440858D01*
X121961530Y-90292898D01*
X122050502Y-90159742D01*
X122163742Y-90046502D01*
X122296898Y-89957530D01*
X122444858Y-89896242D01*
X122601925Y-89865000D01*
X122762075Y-89865000D01*
X122919142Y-89896242D01*
X122919142Y-89896242D01*
G37*
G36*
X103309821Y-89204313D02*
X103309824Y-89204314D01*
X103309825Y-89204314D01*
X103470239Y-89252975D01*
X103470241Y-89252976D01*
X103470244Y-89252977D01*
X103618078Y-89331995D01*
X103747659Y-89438341D01*
X103854005Y-89567922D01*
X103933023Y-89715756D01*
X103933024Y-89715759D01*
X103933025Y-89715761D01*
X103956722Y-89793881D01*
X103981687Y-89876179D01*
X103998117Y-90043000D01*
X103981687Y-90209821D01*
X103981686Y-90209824D01*
X103981686Y-90209825D01*
X103942320Y-90339599D01*
X103933023Y-90370244D01*
X103854005Y-90518078D01*
X103747659Y-90647659D01*
X103618078Y-90754005D01*
X103470244Y-90833023D01*
X103470241Y-90833024D01*
X103470239Y-90833025D01*
X103309825Y-90881686D01*
X103309824Y-90881686D01*
X103309821Y-90881687D01*
X103184804Y-90894000D01*
X102301196Y-90894000D01*
X102176179Y-90881687D01*
X102176176Y-90881686D01*
X102176175Y-90881686D01*
X102015761Y-90833025D01*
X102015759Y-90833024D01*
X102015756Y-90833023D01*
X101867922Y-90754005D01*
X101738341Y-90647659D01*
X101631995Y-90518078D01*
X101552977Y-90370244D01*
X101543681Y-90339599D01*
X101504314Y-90209825D01*
X101504314Y-90209824D01*
X101504313Y-90209821D01*
X101487883Y-90043000D01*
X101504313Y-89876179D01*
X101529278Y-89793881D01*
X101552975Y-89715761D01*
X101552976Y-89715759D01*
X101552977Y-89715756D01*
X101631995Y-89567922D01*
X101738341Y-89438341D01*
X101867922Y-89331995D01*
X102015756Y-89252977D01*
X102015759Y-89252976D01*
X102015761Y-89252975D01*
X102176175Y-89204314D01*
X102176176Y-89204314D01*
X102176179Y-89204313D01*
X102301196Y-89192000D01*
X103184804Y-89192000D01*
X103309821Y-89204313D01*
X103309821Y-89204313D01*
G37*
G36*
X95689821Y-89204313D02*
X95689824Y-89204314D01*
X95689825Y-89204314D01*
X95850239Y-89252975D01*
X95850241Y-89252976D01*
X95850244Y-89252977D01*
X95998078Y-89331995D01*
X96127659Y-89438341D01*
X96234005Y-89567922D01*
X96313023Y-89715756D01*
X96313024Y-89715759D01*
X96313025Y-89715761D01*
X96336722Y-89793881D01*
X96361687Y-89876179D01*
X96378117Y-90043000D01*
X96361687Y-90209821D01*
X96361686Y-90209824D01*
X96361686Y-90209825D01*
X96322320Y-90339599D01*
X96313023Y-90370244D01*
X96234005Y-90518078D01*
X96127659Y-90647659D01*
X95998078Y-90754005D01*
X95850244Y-90833023D01*
X95850241Y-90833024D01*
X95850239Y-90833025D01*
X95689825Y-90881686D01*
X95689824Y-90881686D01*
X95689821Y-90881687D01*
X95564804Y-90894000D01*
X94681196Y-90894000D01*
X94556179Y-90881687D01*
X94556176Y-90881686D01*
X94556175Y-90881686D01*
X94395761Y-90833025D01*
X94395759Y-90833024D01*
X94395756Y-90833023D01*
X94247922Y-90754005D01*
X94118341Y-90647659D01*
X94011995Y-90518078D01*
X93932977Y-90370244D01*
X93923681Y-90339599D01*
X93884314Y-90209825D01*
X93884314Y-90209824D01*
X93884313Y-90209821D01*
X93867883Y-90043000D01*
X93884313Y-89876179D01*
X93909278Y-89793881D01*
X93932975Y-89715761D01*
X93932976Y-89715759D01*
X93932977Y-89715756D01*
X94011995Y-89567922D01*
X94118341Y-89438341D01*
X94247922Y-89331995D01*
X94395756Y-89252977D01*
X94395759Y-89252976D01*
X94395761Y-89252975D01*
X94556175Y-89204314D01*
X94556176Y-89204314D01*
X94556179Y-89204313D01*
X94681196Y-89192000D01*
X95564804Y-89192000D01*
X95689821Y-89204313D01*
X95689821Y-89204313D01*
G37*
G36*
X80419764Y-88410308D02*
X80508220Y-88419020D01*
X80697381Y-88476401D01*
X80871712Y-88569583D01*
X81024515Y-88694985D01*
X81149917Y-88847788D01*
X81243099Y-89022119D01*
X81300480Y-89211280D01*
X81319855Y-89408000D01*
X81300480Y-89604720D01*
X81243099Y-89793881D01*
X81149917Y-89968212D01*
X81024515Y-90121015D01*
X80871712Y-90246417D01*
X80697381Y-90339599D01*
X80508220Y-90396980D01*
X80419764Y-90405692D01*
X80360796Y-90411500D01*
X80167204Y-90411500D01*
X80108236Y-90405692D01*
X80019780Y-90396980D01*
X79830619Y-90339599D01*
X79656288Y-90246417D01*
X79503485Y-90121015D01*
X79378083Y-89968212D01*
X79284901Y-89793881D01*
X79227520Y-89604720D01*
X79208145Y-89408000D01*
X79227520Y-89211280D01*
X79284901Y-89022119D01*
X79378083Y-88847788D01*
X79503485Y-88694985D01*
X79656288Y-88569583D01*
X79830619Y-88476401D01*
X80019780Y-88419020D01*
X80108236Y-88410308D01*
X80167204Y-88404500D01*
X80360796Y-88404500D01*
X80419764Y-88410308D01*
X80419764Y-88410308D01*
G37*
G36*
X89275228Y-88208703D02*
X89430100Y-88272853D01*
X89569481Y-88365985D01*
X89688015Y-88484519D01*
X89781147Y-88623900D01*
X89845297Y-88778772D01*
X89878000Y-88943184D01*
X89878000Y-89110816D01*
X89845297Y-89275228D01*
X89781147Y-89430100D01*
X89688015Y-89569481D01*
X89569481Y-89688015D01*
X89430100Y-89781147D01*
X89275228Y-89845297D01*
X89110816Y-89878000D01*
X88943184Y-89878000D01*
X88778772Y-89845297D01*
X88623900Y-89781147D01*
X88484519Y-89688015D01*
X88365985Y-89569481D01*
X88272853Y-89430100D01*
X88208703Y-89275228D01*
X88176000Y-89110816D01*
X88176000Y-88943184D01*
X88208703Y-88778772D01*
X88272853Y-88623900D01*
X88365985Y-88484519D01*
X88484519Y-88365985D01*
X88623900Y-88272853D01*
X88778772Y-88208703D01*
X88943184Y-88176000D01*
X89110816Y-88176000D01*
X89275228Y-88208703D01*
X89275228Y-88208703D01*
G37*
G36*
X122919142Y-87356242D02*
X123033583Y-87403646D01*
X123062977Y-87415821D01*
X123067102Y-87417530D01*
X123200258Y-87506502D01*
X123313498Y-87619742D01*
X123402470Y-87752898D01*
X123463758Y-87900858D01*
X123495000Y-88057925D01*
X123495000Y-88218075D01*
X123463758Y-88375142D01*
X123421814Y-88476401D01*
X123402471Y-88523100D01*
X123313499Y-88656257D01*
X123200257Y-88769499D01*
X123134130Y-88813683D01*
X123067102Y-88858470D01*
X122919142Y-88919758D01*
X122762075Y-88951000D01*
X122601925Y-88951000D01*
X122444858Y-88919758D01*
X122296898Y-88858470D01*
X122229870Y-88813683D01*
X122163743Y-88769499D01*
X122050501Y-88656257D01*
X121961529Y-88523100D01*
X121942186Y-88476401D01*
X121900242Y-88375142D01*
X121869000Y-88218075D01*
X121869000Y-88057925D01*
X121900242Y-87900858D01*
X121961530Y-87752898D01*
X122050502Y-87619742D01*
X122163742Y-87506502D01*
X122296898Y-87417530D01*
X122301024Y-87415821D01*
X122330417Y-87403646D01*
X122444858Y-87356242D01*
X122601925Y-87325000D01*
X122762075Y-87325000D01*
X122919142Y-87356242D01*
X122919142Y-87356242D01*
G37*
G36*
X107679142Y-87356242D02*
X107793583Y-87403646D01*
X107822977Y-87415821D01*
X107827102Y-87417530D01*
X107960258Y-87506502D01*
X108073498Y-87619742D01*
X108162470Y-87752898D01*
X108223758Y-87900858D01*
X108255000Y-88057925D01*
X108255000Y-88218075D01*
X108223758Y-88375142D01*
X108181814Y-88476401D01*
X108162471Y-88523100D01*
X108073499Y-88656257D01*
X107960257Y-88769499D01*
X107894130Y-88813683D01*
X107827102Y-88858470D01*
X107679142Y-88919758D01*
X107522075Y-88951000D01*
X107361925Y-88951000D01*
X107204858Y-88919758D01*
X107056898Y-88858470D01*
X106989870Y-88813683D01*
X106923743Y-88769499D01*
X106810501Y-88656257D01*
X106721529Y-88523100D01*
X106702186Y-88476401D01*
X106660242Y-88375142D01*
X106629000Y-88218075D01*
X106629000Y-88057925D01*
X106660242Y-87900858D01*
X106721530Y-87752898D01*
X106810502Y-87619742D01*
X106923742Y-87506502D01*
X107056898Y-87417530D01*
X107061024Y-87415821D01*
X107090417Y-87403646D01*
X107204858Y-87356242D01*
X107361925Y-87325000D01*
X107522075Y-87325000D01*
X107679142Y-87356242D01*
X107679142Y-87356242D01*
G37*
G36*
X72048821Y-86410313D02*
X72048824Y-86410314D01*
X72048825Y-86410314D01*
X72209239Y-86458975D01*
X72209241Y-86458976D01*
X72209244Y-86458977D01*
X72357078Y-86537995D01*
X72486659Y-86644341D01*
X72593005Y-86773922D01*
X72672023Y-86921756D01*
X72720687Y-87082179D01*
X72737117Y-87249000D01*
X72720687Y-87415821D01*
X72720686Y-87415824D01*
X72720686Y-87415825D01*
X72693180Y-87506501D01*
X72672023Y-87576244D01*
X72593005Y-87724078D01*
X72486659Y-87853659D01*
X72357078Y-87960005D01*
X72209244Y-88039023D01*
X72209241Y-88039024D01*
X72209239Y-88039025D01*
X72048825Y-88087686D01*
X72048824Y-88087686D01*
X72048821Y-88087687D01*
X71923804Y-88100000D01*
X71840196Y-88100000D01*
X71715179Y-88087687D01*
X71715176Y-88087686D01*
X71715175Y-88087686D01*
X71554761Y-88039025D01*
X71554759Y-88039024D01*
X71554756Y-88039023D01*
X71406922Y-87960005D01*
X71277341Y-87853659D01*
X71170995Y-87724078D01*
X71091977Y-87576244D01*
X71070821Y-87506501D01*
X71043314Y-87415825D01*
X71043314Y-87415824D01*
X71043313Y-87415821D01*
X71026883Y-87249000D01*
X71043313Y-87082179D01*
X71091977Y-86921756D01*
X71170995Y-86773922D01*
X71277341Y-86644341D01*
X71406922Y-86537995D01*
X71554756Y-86458977D01*
X71554759Y-86458976D01*
X71554761Y-86458975D01*
X71715175Y-86410314D01*
X71715176Y-86410314D01*
X71715179Y-86410313D01*
X71840196Y-86398000D01*
X71923804Y-86398000D01*
X72048821Y-86410313D01*
X72048821Y-86410313D01*
G37*
G36*
X65838565Y-85977389D02*
X66029834Y-86056615D01*
X66201976Y-86171637D01*
X66348363Y-86318024D01*
X66463385Y-86490166D01*
X66542611Y-86681435D01*
X66583000Y-86884484D01*
X66583000Y-87091516D01*
X66542611Y-87294565D01*
X66463385Y-87485834D01*
X66348363Y-87657976D01*
X66201976Y-87804363D01*
X66029834Y-87919385D01*
X65838565Y-87998611D01*
X65635516Y-88039000D01*
X65428484Y-88039000D01*
X65225435Y-87998611D01*
X65034166Y-87919385D01*
X64862024Y-87804363D01*
X64715637Y-87657976D01*
X64600615Y-87485834D01*
X64521389Y-87294565D01*
X64481000Y-87091516D01*
X64481000Y-86884484D01*
X64521389Y-86681435D01*
X64600615Y-86490166D01*
X64715637Y-86318024D01*
X64862024Y-86171637D01*
X65034166Y-86056615D01*
X65225435Y-85977389D01*
X65428484Y-85937000D01*
X65635516Y-85937000D01*
X65838565Y-85977389D01*
X65838565Y-85977389D01*
G37*
G36*
X62396821Y-85648313D02*
X62396824Y-85648314D01*
X62396825Y-85648314D01*
X62557239Y-85696975D01*
X62557241Y-85696976D01*
X62557244Y-85696977D01*
X62705078Y-85775995D01*
X62834659Y-85882341D01*
X62941005Y-86011922D01*
X63020023Y-86159756D01*
X63020024Y-86159759D01*
X63020025Y-86159761D01*
X63068034Y-86318027D01*
X63068687Y-86320179D01*
X63085117Y-86487000D01*
X63068687Y-86653821D01*
X63068686Y-86653824D01*
X63068686Y-86653825D01*
X63060311Y-86681435D01*
X63020023Y-86814244D01*
X62941005Y-86962078D01*
X62834659Y-87091659D01*
X62705078Y-87198005D01*
X62557244Y-87277023D01*
X62557241Y-87277024D01*
X62557239Y-87277025D01*
X62396825Y-87325686D01*
X62396824Y-87325686D01*
X62396821Y-87325687D01*
X62271804Y-87338000D01*
X62188196Y-87338000D01*
X62063179Y-87325687D01*
X62063176Y-87325686D01*
X62063175Y-87325686D01*
X61902761Y-87277025D01*
X61902759Y-87277024D01*
X61902756Y-87277023D01*
X61754922Y-87198005D01*
X61625341Y-87091659D01*
X61518995Y-86962078D01*
X61439977Y-86814244D01*
X61399690Y-86681435D01*
X61391314Y-86653825D01*
X61391314Y-86653824D01*
X61391313Y-86653821D01*
X61374883Y-86487000D01*
X61391313Y-86320179D01*
X61391966Y-86318027D01*
X61439975Y-86159761D01*
X61439976Y-86159759D01*
X61439977Y-86159756D01*
X61518995Y-86011922D01*
X61625341Y-85882341D01*
X61754922Y-85775995D01*
X61902756Y-85696977D01*
X61902759Y-85696976D01*
X61902761Y-85696975D01*
X62063175Y-85648314D01*
X62063176Y-85648314D01*
X62063179Y-85648313D01*
X62188196Y-85636000D01*
X62271804Y-85636000D01*
X62396821Y-85648313D01*
X62396821Y-85648313D01*
G37*
G36*
X122919142Y-84816242D02*
X123067102Y-84877530D01*
X123200258Y-84966502D01*
X123313498Y-85079742D01*
X123402470Y-85212898D01*
X123463758Y-85360858D01*
X123495000Y-85517925D01*
X123495000Y-85678075D01*
X123463758Y-85835142D01*
X123444207Y-85882341D01*
X123404837Y-85977389D01*
X123402470Y-85983102D01*
X123313498Y-86116258D01*
X123200258Y-86229498D01*
X123067102Y-86318470D01*
X123067101Y-86318471D01*
X123067100Y-86318471D01*
X123033583Y-86332354D01*
X122919142Y-86379758D01*
X122762075Y-86411000D01*
X122601925Y-86411000D01*
X122444858Y-86379758D01*
X122330417Y-86332354D01*
X122296900Y-86318471D01*
X122296899Y-86318471D01*
X122296898Y-86318470D01*
X122163742Y-86229498D01*
X122050502Y-86116258D01*
X121961530Y-85983102D01*
X121959164Y-85977389D01*
X121919793Y-85882341D01*
X121900242Y-85835142D01*
X121869000Y-85678075D01*
X121869000Y-85517925D01*
X121900242Y-85360858D01*
X121961530Y-85212898D01*
X122050502Y-85079742D01*
X122163742Y-84966502D01*
X122296898Y-84877530D01*
X122444858Y-84816242D01*
X122601925Y-84785000D01*
X122762075Y-84785000D01*
X122919142Y-84816242D01*
X122919142Y-84816242D01*
G37*
G36*
X107679142Y-84816242D02*
X107827102Y-84877530D01*
X107960258Y-84966502D01*
X108073498Y-85079742D01*
X108162470Y-85212898D01*
X108223758Y-85360858D01*
X108255000Y-85517925D01*
X108255000Y-85678075D01*
X108223758Y-85835142D01*
X108204207Y-85882341D01*
X108164837Y-85977389D01*
X108162470Y-85983102D01*
X108073498Y-86116258D01*
X107960258Y-86229498D01*
X107827102Y-86318470D01*
X107827101Y-86318471D01*
X107827100Y-86318471D01*
X107793583Y-86332354D01*
X107679142Y-86379758D01*
X107522075Y-86411000D01*
X107361925Y-86411000D01*
X107204858Y-86379758D01*
X107090417Y-86332354D01*
X107056900Y-86318471D01*
X107056899Y-86318471D01*
X107056898Y-86318470D01*
X106923742Y-86229498D01*
X106810502Y-86116258D01*
X106721530Y-85983102D01*
X106719164Y-85977389D01*
X106679793Y-85882341D01*
X106660242Y-85835142D01*
X106629000Y-85678075D01*
X106629000Y-85517925D01*
X106660242Y-85360858D01*
X106721530Y-85212898D01*
X106810502Y-85079742D01*
X106923742Y-84966502D01*
X107056898Y-84877530D01*
X107204858Y-84816242D01*
X107361925Y-84785000D01*
X107522075Y-84785000D01*
X107679142Y-84816242D01*
X107679142Y-84816242D01*
G37*
G36*
X100811913Y-82596984D02*
X100828809Y-82598648D01*
X100854099Y-82606320D01*
X100980551Y-82644678D01*
X101120398Y-82719428D01*
X101242975Y-82820025D01*
X101343572Y-82942602D01*
X101418322Y-83082449D01*
X101464352Y-83234192D01*
X101479895Y-83392000D01*
X101464352Y-83549808D01*
X101418322Y-83701551D01*
X101343572Y-83841398D01*
X101242975Y-83963975D01*
X101120398Y-84064572D01*
X100980551Y-84139322D01*
X100854098Y-84177680D01*
X100828809Y-84185352D01*
X100811913Y-84187016D01*
X100710546Y-84197000D01*
X99123454Y-84197000D01*
X99022087Y-84187016D01*
X99005191Y-84185352D01*
X98979902Y-84177680D01*
X98853449Y-84139322D01*
X98713602Y-84064572D01*
X98591025Y-83963975D01*
X98490428Y-83841398D01*
X98415678Y-83701551D01*
X98369648Y-83549808D01*
X98354105Y-83392000D01*
X98369648Y-83234192D01*
X98415678Y-83082449D01*
X98490428Y-82942602D01*
X98591025Y-82820025D01*
X98713602Y-82719428D01*
X98853449Y-82644678D01*
X98979901Y-82606320D01*
X99005191Y-82598648D01*
X99022087Y-82596984D01*
X99123454Y-82587000D01*
X100710546Y-82587000D01*
X100811913Y-82596984D01*
X100811913Y-82596984D01*
G37*
G36*
X122919142Y-82276242D02*
X123067102Y-82337530D01*
X123200258Y-82426502D01*
X123313498Y-82539742D01*
X123402470Y-82672898D01*
X123463758Y-82820858D01*
X123495000Y-82977925D01*
X123495000Y-83138075D01*
X123463758Y-83295142D01*
X123423637Y-83392000D01*
X123402471Y-83443100D01*
X123313499Y-83576257D01*
X123200257Y-83689499D01*
X123134130Y-83733683D01*
X123067102Y-83778470D01*
X122919142Y-83839758D01*
X122762075Y-83871000D01*
X122601925Y-83871000D01*
X122444858Y-83839758D01*
X122296898Y-83778470D01*
X122229870Y-83733683D01*
X122163743Y-83689499D01*
X122050501Y-83576257D01*
X121961529Y-83443100D01*
X121940363Y-83392000D01*
X121900242Y-83295142D01*
X121869000Y-83138075D01*
X121869000Y-82977925D01*
X121900242Y-82820858D01*
X121961530Y-82672898D01*
X122050502Y-82539742D01*
X122163742Y-82426502D01*
X122296898Y-82337530D01*
X122444858Y-82276242D01*
X122601925Y-82245000D01*
X122762075Y-82245000D01*
X122919142Y-82276242D01*
X122919142Y-82276242D01*
G37*
G36*
X107679142Y-82276242D02*
X107827102Y-82337530D01*
X107960258Y-82426502D01*
X108073498Y-82539742D01*
X108162470Y-82672898D01*
X108223758Y-82820858D01*
X108255000Y-82977925D01*
X108255000Y-83138075D01*
X108223758Y-83295142D01*
X108183637Y-83392000D01*
X108162471Y-83443100D01*
X108073499Y-83576257D01*
X107960257Y-83689499D01*
X107894130Y-83733683D01*
X107827102Y-83778470D01*
X107679142Y-83839758D01*
X107522075Y-83871000D01*
X107361925Y-83871000D01*
X107204858Y-83839758D01*
X107056898Y-83778470D01*
X106989870Y-83733683D01*
X106923743Y-83689499D01*
X106810501Y-83576257D01*
X106721529Y-83443100D01*
X106700363Y-83392000D01*
X106660242Y-83295142D01*
X106629000Y-83138075D01*
X106629000Y-82977925D01*
X106660242Y-82820858D01*
X106721530Y-82672898D01*
X106810502Y-82539742D01*
X106923742Y-82426502D01*
X107056898Y-82337530D01*
X107204858Y-82276242D01*
X107361925Y-82245000D01*
X107522075Y-82245000D01*
X107679142Y-82276242D01*
X107679142Y-82276242D01*
G37*
G36*
X122919142Y-79736242D02*
X123067102Y-79797530D01*
X123200258Y-79886502D01*
X123313498Y-79999742D01*
X123402470Y-80132898D01*
X123463758Y-80280858D01*
X123495000Y-80437925D01*
X123495000Y-80598075D01*
X123463758Y-80755142D01*
X123402470Y-80903102D01*
X123372525Y-80947918D01*
X123330624Y-81010628D01*
X123313498Y-81036258D01*
X123200258Y-81149498D01*
X123067102Y-81238470D01*
X122919142Y-81299758D01*
X122762075Y-81331000D01*
X122601925Y-81331000D01*
X122444858Y-81299758D01*
X122296898Y-81238470D01*
X122163742Y-81149498D01*
X122050502Y-81036258D01*
X122033377Y-81010628D01*
X121991475Y-80947918D01*
X121961530Y-80903102D01*
X121900242Y-80755142D01*
X121869000Y-80598075D01*
X121869000Y-80437925D01*
X121900242Y-80280858D01*
X121961530Y-80132898D01*
X122050502Y-79999742D01*
X122163742Y-79886502D01*
X122296898Y-79797530D01*
X122444858Y-79736242D01*
X122601925Y-79705000D01*
X122762075Y-79705000D01*
X122919142Y-79736242D01*
X122919142Y-79736242D01*
G37*
G36*
X107679142Y-79736242D02*
X107827102Y-79797530D01*
X107960258Y-79886502D01*
X108073498Y-79999742D01*
X108162470Y-80132898D01*
X108223758Y-80280858D01*
X108255000Y-80437925D01*
X108255000Y-80598075D01*
X108223758Y-80755142D01*
X108162470Y-80903102D01*
X108132525Y-80947918D01*
X108090624Y-81010628D01*
X108073498Y-81036258D01*
X107960258Y-81149498D01*
X107827102Y-81238470D01*
X107679142Y-81299758D01*
X107522075Y-81331000D01*
X107361925Y-81331000D01*
X107204858Y-81299758D01*
X107056898Y-81238470D01*
X106923742Y-81149498D01*
X106810502Y-81036258D01*
X106793377Y-81010628D01*
X106751475Y-80947918D01*
X106721530Y-80903102D01*
X106660242Y-80755142D01*
X106629000Y-80598075D01*
X106629000Y-80437925D01*
X106660242Y-80280858D01*
X106721530Y-80132898D01*
X106810502Y-79999742D01*
X106923742Y-79886502D01*
X107056898Y-79797530D01*
X107204858Y-79736242D01*
X107361925Y-79705000D01*
X107522075Y-79705000D01*
X107679142Y-79736242D01*
X107679142Y-79736242D01*
G37*
G36*
X66480918Y-79189934D02*
X66513424Y-79199795D01*
X66543383Y-79215808D01*
X66569641Y-79237359D01*
X66591192Y-79263617D01*
X66607205Y-79293576D01*
X66617066Y-79326082D01*
X66621000Y-79366029D01*
X66621000Y-80907971D01*
X66617066Y-80947918D01*
X66607205Y-80980424D01*
X66591192Y-81010383D01*
X66569641Y-81036641D01*
X66543383Y-81058192D01*
X66513424Y-81074205D01*
X66480918Y-81084066D01*
X66440971Y-81088000D01*
X63099029Y-81088000D01*
X63059082Y-81084066D01*
X63026576Y-81074205D01*
X62996617Y-81058192D01*
X62970359Y-81036641D01*
X62948808Y-81010383D01*
X62932795Y-80980424D01*
X62922934Y-80947918D01*
X62919000Y-80907971D01*
X62919000Y-79366029D01*
X62922934Y-79326082D01*
X62932795Y-79293576D01*
X62948808Y-79263617D01*
X62970359Y-79237359D01*
X62996617Y-79215808D01*
X63026576Y-79199795D01*
X63059082Y-79189934D01*
X63099029Y-79186000D01*
X66440971Y-79186000D01*
X66480918Y-79189934D01*
X66480918Y-79189934D01*
G37*
G36*
X71411913Y-77396984D02*
X71428809Y-77398648D01*
X71454098Y-77406320D01*
X71580551Y-77444678D01*
X71720398Y-77519428D01*
X71842975Y-77620025D01*
X71943572Y-77742602D01*
X72018322Y-77882449D01*
X72064352Y-78034192D01*
X72079895Y-78192000D01*
X72065746Y-78335660D01*
X72064352Y-78349809D01*
X72056680Y-78375099D01*
X72018322Y-78501551D01*
X71943572Y-78641398D01*
X71842975Y-78763975D01*
X71720398Y-78864572D01*
X71580551Y-78939322D01*
X71454098Y-78977680D01*
X71428809Y-78985352D01*
X71411913Y-78987016D01*
X71310546Y-78997000D01*
X69723454Y-78997000D01*
X69622087Y-78987016D01*
X69605191Y-78985352D01*
X69579902Y-78977680D01*
X69453449Y-78939322D01*
X69313602Y-78864572D01*
X69191025Y-78763975D01*
X69090428Y-78641398D01*
X69015678Y-78501551D01*
X68977320Y-78375099D01*
X68969648Y-78349809D01*
X68968254Y-78335660D01*
X68954105Y-78192000D01*
X68969648Y-78034192D01*
X69015678Y-77882449D01*
X69090428Y-77742602D01*
X69191025Y-77620025D01*
X69313602Y-77519428D01*
X69453449Y-77444678D01*
X69579901Y-77406320D01*
X69605191Y-77398648D01*
X69622087Y-77396984D01*
X69723454Y-77387000D01*
X71310546Y-77387000D01*
X71411913Y-77396984D01*
X71411913Y-77396984D01*
G37*
G36*
X122919142Y-77196242D02*
X123067102Y-77257530D01*
X123200258Y-77346502D01*
X123313498Y-77459742D01*
X123402470Y-77592898D01*
X123463758Y-77740858D01*
X123495000Y-77897925D01*
X123495000Y-78058075D01*
X123463758Y-78215142D01*
X123402470Y-78363102D01*
X123313498Y-78496258D01*
X123200258Y-78609498D01*
X123067102Y-78698470D01*
X122919142Y-78759758D01*
X122762075Y-78791000D01*
X122601925Y-78791000D01*
X122444858Y-78759758D01*
X122296898Y-78698470D01*
X122163742Y-78609498D01*
X122050502Y-78496258D01*
X121961530Y-78363102D01*
X121900242Y-78215142D01*
X121869000Y-78058075D01*
X121869000Y-77897925D01*
X121900242Y-77740858D01*
X121961530Y-77592898D01*
X122050502Y-77459742D01*
X122163742Y-77346502D01*
X122296898Y-77257530D01*
X122444858Y-77196242D01*
X122601925Y-77165000D01*
X122762075Y-77165000D01*
X122919142Y-77196242D01*
X122919142Y-77196242D01*
G37*
G36*
X107679142Y-77196242D02*
X107827102Y-77257530D01*
X107960258Y-77346502D01*
X108073498Y-77459742D01*
X108162470Y-77592898D01*
X108223758Y-77740858D01*
X108255000Y-77897925D01*
X108255000Y-78058075D01*
X108223758Y-78215142D01*
X108162470Y-78363102D01*
X108073498Y-78496258D01*
X107960258Y-78609498D01*
X107827102Y-78698470D01*
X107679142Y-78759758D01*
X107522075Y-78791000D01*
X107361925Y-78791000D01*
X107204858Y-78759758D01*
X107056898Y-78698470D01*
X106923742Y-78609498D01*
X106810502Y-78496258D01*
X106721530Y-78363102D01*
X106660242Y-78215142D01*
X106629000Y-78058075D01*
X106629000Y-77897925D01*
X106660242Y-77740858D01*
X106721530Y-77592898D01*
X106810502Y-77459742D01*
X106923742Y-77346502D01*
X107056898Y-77257530D01*
X107204858Y-77196242D01*
X107361925Y-77165000D01*
X107522075Y-77165000D01*
X107679142Y-77196242D01*
X107679142Y-77196242D01*
G37*
G36*
X107679142Y-74656242D02*
X107827102Y-74717530D01*
X107960258Y-74806502D01*
X108073498Y-74919742D01*
X108162470Y-75052898D01*
X108223758Y-75200858D01*
X108255000Y-75357925D01*
X108255000Y-75518075D01*
X108223758Y-75675142D01*
X108162470Y-75823102D01*
X108117683Y-75890130D01*
X108084456Y-75939859D01*
X108073498Y-75956258D01*
X107960258Y-76069498D01*
X107827102Y-76158470D01*
X107679142Y-76219758D01*
X107522075Y-76251000D01*
X107361925Y-76251000D01*
X107204858Y-76219758D01*
X107056898Y-76158470D01*
X106923742Y-76069498D01*
X106810502Y-75956258D01*
X106799545Y-75939859D01*
X106766317Y-75890130D01*
X106721530Y-75823102D01*
X106660242Y-75675142D01*
X106629000Y-75518075D01*
X106629000Y-75357925D01*
X106660242Y-75200858D01*
X106721530Y-75052898D01*
X106810502Y-74919742D01*
X106923742Y-74806502D01*
X107056898Y-74717530D01*
X107204858Y-74656242D01*
X107361925Y-74625000D01*
X107522075Y-74625000D01*
X107679142Y-74656242D01*
X107679142Y-74656242D01*
G37*
G36*
X122919142Y-74656242D02*
X123067102Y-74717530D01*
X123200258Y-74806502D01*
X123313498Y-74919742D01*
X123402470Y-75052898D01*
X123463758Y-75200858D01*
X123495000Y-75357925D01*
X123495000Y-75518075D01*
X123463758Y-75675142D01*
X123402470Y-75823102D01*
X123357683Y-75890130D01*
X123324456Y-75939859D01*
X123313498Y-75956258D01*
X123200258Y-76069498D01*
X123067102Y-76158470D01*
X122919142Y-76219758D01*
X122762075Y-76251000D01*
X122601925Y-76251000D01*
X122444858Y-76219758D01*
X122296898Y-76158470D01*
X122163742Y-76069498D01*
X122050502Y-75956258D01*
X122039545Y-75939859D01*
X122006317Y-75890130D01*
X121961530Y-75823102D01*
X121900242Y-75675142D01*
X121869000Y-75518075D01*
X121869000Y-75357925D01*
X121900242Y-75200858D01*
X121961530Y-75052898D01*
X122050502Y-74919742D01*
X122163742Y-74806502D01*
X122296898Y-74717530D01*
X122444858Y-74656242D01*
X122601925Y-74625000D01*
X122762075Y-74625000D01*
X122919142Y-74656242D01*
X122919142Y-74656242D01*
G37*
G36*
X65856425Y-74119760D02*
X65856428Y-74119761D01*
X65856429Y-74119761D01*
X66035693Y-74174140D01*
X66035695Y-74174141D01*
X66200905Y-74262448D01*
X66345712Y-74381288D01*
X66464552Y-74526095D01*
X66464553Y-74526097D01*
X66552860Y-74691307D01*
X66587804Y-74806502D01*
X66607240Y-74870575D01*
X66625601Y-75057000D01*
X66607240Y-75243425D01*
X66607239Y-75243428D01*
X66607239Y-75243429D01*
X66572507Y-75357926D01*
X66552859Y-75422695D01*
X66464552Y-75587905D01*
X66345712Y-75732712D01*
X66200905Y-75851552D01*
X66200903Y-75851553D01*
X66035693Y-75939860D01*
X65856429Y-75994239D01*
X65856428Y-75994239D01*
X65856425Y-75994240D01*
X65716718Y-76008000D01*
X63823282Y-76008000D01*
X63683575Y-75994240D01*
X63683572Y-75994239D01*
X63683571Y-75994239D01*
X63504307Y-75939860D01*
X63339097Y-75851553D01*
X63339095Y-75851552D01*
X63194288Y-75732712D01*
X63075448Y-75587905D01*
X62987141Y-75422695D01*
X62967494Y-75357926D01*
X62932761Y-75243429D01*
X62932761Y-75243428D01*
X62932760Y-75243425D01*
X62914399Y-75057000D01*
X62932760Y-74870575D01*
X62952196Y-74806502D01*
X62987140Y-74691307D01*
X63075447Y-74526097D01*
X63075448Y-74526095D01*
X63194288Y-74381288D01*
X63339095Y-74262448D01*
X63504305Y-74174141D01*
X63504307Y-74174140D01*
X63683571Y-74119761D01*
X63683572Y-74119761D01*
X63683575Y-74119760D01*
X63823282Y-74106000D01*
X65716718Y-74106000D01*
X65856425Y-74119760D01*
X65856425Y-74119760D01*
G37*
G36*
X71411913Y-72396984D02*
X71428809Y-72398648D01*
X71454098Y-72406320D01*
X71580551Y-72444678D01*
X71720398Y-72519428D01*
X71842975Y-72620025D01*
X71943572Y-72742602D01*
X72018322Y-72882449D01*
X72064352Y-73034192D01*
X72079895Y-73192000D01*
X72064352Y-73349808D01*
X72018322Y-73501551D01*
X71943572Y-73641398D01*
X71842975Y-73763975D01*
X71720398Y-73864572D01*
X71580551Y-73939322D01*
X71454098Y-73977680D01*
X71428809Y-73985352D01*
X71411913Y-73987016D01*
X71310546Y-73997000D01*
X69723454Y-73997000D01*
X69622087Y-73987016D01*
X69605191Y-73985352D01*
X69579902Y-73977680D01*
X69453449Y-73939322D01*
X69313602Y-73864572D01*
X69191025Y-73763975D01*
X69090428Y-73641398D01*
X69015678Y-73501551D01*
X68969648Y-73349808D01*
X68954105Y-73192000D01*
X68969648Y-73034192D01*
X69015678Y-72882449D01*
X69090428Y-72742602D01*
X69191025Y-72620025D01*
X69313602Y-72519428D01*
X69453449Y-72444678D01*
X69579902Y-72406320D01*
X69605191Y-72398648D01*
X69622087Y-72396984D01*
X69723454Y-72387000D01*
X71310546Y-72387000D01*
X71411913Y-72396984D01*
X71411913Y-72396984D01*
G37*
G36*
X107679142Y-72116242D02*
X107827102Y-72177530D01*
X107960258Y-72266502D01*
X108073498Y-72379742D01*
X108162470Y-72512898D01*
X108223758Y-72660858D01*
X108255000Y-72817925D01*
X108255000Y-72978075D01*
X108223758Y-73135142D01*
X108162470Y-73283102D01*
X108073498Y-73416258D01*
X107960258Y-73529498D01*
X107827102Y-73618470D01*
X107679142Y-73679758D01*
X107522075Y-73711000D01*
X107361925Y-73711000D01*
X107204858Y-73679758D01*
X107056898Y-73618470D01*
X106923742Y-73529498D01*
X106810502Y-73416258D01*
X106721530Y-73283102D01*
X106660242Y-73135142D01*
X106629000Y-72978075D01*
X106629000Y-72817925D01*
X106660242Y-72660858D01*
X106721530Y-72512898D01*
X106810502Y-72379742D01*
X106923742Y-72266502D01*
X107056898Y-72177530D01*
X107204858Y-72116242D01*
X107361925Y-72085000D01*
X107522075Y-72085000D01*
X107679142Y-72116242D01*
X107679142Y-72116242D01*
G37*
G36*
X122919142Y-72116242D02*
X123067102Y-72177530D01*
X123200258Y-72266502D01*
X123313498Y-72379742D01*
X123402470Y-72512898D01*
X123463758Y-72660858D01*
X123495000Y-72817925D01*
X123495000Y-72978075D01*
X123463758Y-73135142D01*
X123402470Y-73283102D01*
X123313498Y-73416258D01*
X123200258Y-73529498D01*
X123067102Y-73618470D01*
X122919142Y-73679758D01*
X122762075Y-73711000D01*
X122601925Y-73711000D01*
X122444858Y-73679758D01*
X122296898Y-73618470D01*
X122163742Y-73529498D01*
X122050502Y-73416258D01*
X121961530Y-73283102D01*
X121900242Y-73135142D01*
X121869000Y-72978075D01*
X121869000Y-72817925D01*
X121900242Y-72660858D01*
X121961530Y-72512898D01*
X122050502Y-72379742D01*
X122163742Y-72266502D01*
X122296898Y-72177530D01*
X122444858Y-72116242D01*
X122601925Y-72085000D01*
X122762075Y-72085000D01*
X122919142Y-72116242D01*
X122919142Y-72116242D01*
G37*
G36*
X107679142Y-69576242D02*
X107827102Y-69637530D01*
X107960258Y-69726502D01*
X108073498Y-69839742D01*
X108162470Y-69972898D01*
X108223758Y-70120858D01*
X108255000Y-70277925D01*
X108255000Y-70438075D01*
X108223758Y-70595142D01*
X108162470Y-70743102D01*
X108073498Y-70876258D01*
X107960258Y-70989498D01*
X107827102Y-71078470D01*
X107679142Y-71139758D01*
X107522075Y-71171000D01*
X107361925Y-71171000D01*
X107204858Y-71139758D01*
X107056898Y-71078470D01*
X106923742Y-70989498D01*
X106810502Y-70876258D01*
X106721530Y-70743102D01*
X106660242Y-70595142D01*
X106629000Y-70438075D01*
X106629000Y-70277925D01*
X106660242Y-70120858D01*
X106721530Y-69972898D01*
X106810502Y-69839742D01*
X106923742Y-69726502D01*
X107056898Y-69637530D01*
X107204858Y-69576242D01*
X107361925Y-69545000D01*
X107522075Y-69545000D01*
X107679142Y-69576242D01*
X107679142Y-69576242D01*
G37*
G36*
X122919142Y-69576242D02*
X123067102Y-69637530D01*
X123200258Y-69726502D01*
X123313498Y-69839742D01*
X123402470Y-69972898D01*
X123463758Y-70120858D01*
X123495000Y-70277925D01*
X123495000Y-70438075D01*
X123463758Y-70595142D01*
X123402470Y-70743102D01*
X123313498Y-70876258D01*
X123200258Y-70989498D01*
X123067102Y-71078470D01*
X122919142Y-71139758D01*
X122762075Y-71171000D01*
X122601925Y-71171000D01*
X122444858Y-71139758D01*
X122296898Y-71078470D01*
X122163742Y-70989498D01*
X122050502Y-70876258D01*
X121961530Y-70743102D01*
X121900242Y-70595142D01*
X121869000Y-70438075D01*
X121869000Y-70277925D01*
X121900242Y-70120858D01*
X121961530Y-69972898D01*
X122050502Y-69839742D01*
X122163742Y-69726502D01*
X122296898Y-69637530D01*
X122444858Y-69576242D01*
X122601925Y-69545000D01*
X122762075Y-69545000D01*
X122919142Y-69576242D01*
X122919142Y-69576242D01*
G37*
G36*
X100811913Y-67196984D02*
X100828809Y-67198648D01*
X100854098Y-67206320D01*
X100980551Y-67244678D01*
X101120398Y-67319428D01*
X101242975Y-67420025D01*
X101343572Y-67542602D01*
X101418322Y-67682449D01*
X101464352Y-67834192D01*
X101479895Y-67992000D01*
X101464352Y-68149808D01*
X101418322Y-68301551D01*
X101343572Y-68441398D01*
X101242975Y-68563975D01*
X101120398Y-68664572D01*
X100980551Y-68739322D01*
X100854099Y-68777680D01*
X100828809Y-68785352D01*
X100811913Y-68787016D01*
X100710546Y-68797000D01*
X99123454Y-68797000D01*
X99022087Y-68787016D01*
X99005191Y-68785352D01*
X98979901Y-68777680D01*
X98853449Y-68739322D01*
X98713602Y-68664572D01*
X98591025Y-68563975D01*
X98490428Y-68441398D01*
X98415678Y-68301551D01*
X98369648Y-68149808D01*
X98354105Y-67992000D01*
X98369648Y-67834192D01*
X98415678Y-67682449D01*
X98490428Y-67542602D01*
X98591025Y-67420025D01*
X98713602Y-67319428D01*
X98853449Y-67244678D01*
X98979902Y-67206320D01*
X99005191Y-67198648D01*
X99022087Y-67196984D01*
X99123454Y-67187000D01*
X100710546Y-67187000D01*
X100811913Y-67196984D01*
X100811913Y-67196984D01*
G37*
G36*
X107679142Y-67036242D02*
X107827102Y-67097530D01*
X107960258Y-67186502D01*
X108073498Y-67299742D01*
X108162470Y-67432898D01*
X108223758Y-67580858D01*
X108255000Y-67737925D01*
X108255000Y-67898075D01*
X108223758Y-68055142D01*
X108184545Y-68149808D01*
X108162471Y-68203100D01*
X108096689Y-68301551D01*
X108073498Y-68336258D01*
X107960258Y-68449498D01*
X107827102Y-68538470D01*
X107679142Y-68599758D01*
X107522075Y-68631000D01*
X107361925Y-68631000D01*
X107204858Y-68599758D01*
X107056898Y-68538470D01*
X106923742Y-68449498D01*
X106810502Y-68336258D01*
X106787312Y-68301551D01*
X106721529Y-68203100D01*
X106699455Y-68149808D01*
X106660242Y-68055142D01*
X106629000Y-67898075D01*
X106629000Y-67737925D01*
X106660242Y-67580858D01*
X106721530Y-67432898D01*
X106810502Y-67299742D01*
X106923742Y-67186502D01*
X107056898Y-67097530D01*
X107204858Y-67036242D01*
X107361925Y-67005000D01*
X107522075Y-67005000D01*
X107679142Y-67036242D01*
X107679142Y-67036242D01*
G37*
G36*
X122919142Y-67036242D02*
X123067102Y-67097530D01*
X123200258Y-67186502D01*
X123313498Y-67299742D01*
X123402470Y-67432898D01*
X123463758Y-67580858D01*
X123495000Y-67737925D01*
X123495000Y-67898075D01*
X123463758Y-68055142D01*
X123424545Y-68149808D01*
X123402471Y-68203100D01*
X123336689Y-68301551D01*
X123313498Y-68336258D01*
X123200258Y-68449498D01*
X123067102Y-68538470D01*
X122919142Y-68599758D01*
X122762075Y-68631000D01*
X122601925Y-68631000D01*
X122444858Y-68599758D01*
X122296898Y-68538470D01*
X122163742Y-68449498D01*
X122050502Y-68336258D01*
X122027312Y-68301551D01*
X121961529Y-68203100D01*
X121939455Y-68149808D01*
X121900242Y-68055142D01*
X121869000Y-67898075D01*
X121869000Y-67737925D01*
X121900242Y-67580858D01*
X121961530Y-67432898D01*
X122050502Y-67299742D01*
X122163742Y-67186502D01*
X122296898Y-67097530D01*
X122444858Y-67036242D01*
X122601925Y-67005000D01*
X122762075Y-67005000D01*
X122919142Y-67036242D01*
X122919142Y-67036242D01*
G37*
G36*
X122919142Y-64496242D02*
X123067102Y-64557530D01*
X123200258Y-64646502D01*
X123313498Y-64759742D01*
X123402470Y-64892898D01*
X123463758Y-65040858D01*
X123495000Y-65197925D01*
X123495000Y-65358075D01*
X123463758Y-65515142D01*
X123402470Y-65663102D01*
X123313498Y-65796258D01*
X123200258Y-65909498D01*
X123067102Y-65998470D01*
X122919142Y-66059758D01*
X122762075Y-66091000D01*
X122601925Y-66091000D01*
X122444858Y-66059758D01*
X122296898Y-65998470D01*
X122163742Y-65909498D01*
X122050502Y-65796258D01*
X121961530Y-65663102D01*
X121900242Y-65515142D01*
X121869000Y-65358075D01*
X121869000Y-65197925D01*
X121900242Y-65040858D01*
X121961530Y-64892898D01*
X122050502Y-64759742D01*
X122163742Y-64646502D01*
X122296898Y-64557530D01*
X122444858Y-64496242D01*
X122601925Y-64465000D01*
X122762075Y-64465000D01*
X122919142Y-64496242D01*
X122919142Y-64496242D01*
G37*
G36*
X107679142Y-64496242D02*
X107827102Y-64557530D01*
X107960258Y-64646502D01*
X108073498Y-64759742D01*
X108162470Y-64892898D01*
X108223758Y-65040858D01*
X108255000Y-65197925D01*
X108255000Y-65358075D01*
X108223758Y-65515142D01*
X108162470Y-65663102D01*
X108073498Y-65796258D01*
X107960258Y-65909498D01*
X107827102Y-65998470D01*
X107679142Y-66059758D01*
X107522075Y-66091000D01*
X107361925Y-66091000D01*
X107204858Y-66059758D01*
X107056898Y-65998470D01*
X106923742Y-65909498D01*
X106810502Y-65796258D01*
X106721530Y-65663102D01*
X106660242Y-65515142D01*
X106629000Y-65358075D01*
X106629000Y-65197925D01*
X106660242Y-65040858D01*
X106721530Y-64892898D01*
X106810502Y-64759742D01*
X106923742Y-64646502D01*
X107056898Y-64557530D01*
X107204858Y-64496242D01*
X107361925Y-64465000D01*
X107522075Y-64465000D01*
X107679142Y-64496242D01*
X107679142Y-64496242D01*
G37*
G36*
X66480918Y-63822934D02*
X66513424Y-63832795D01*
X66543383Y-63848808D01*
X66569641Y-63870359D01*
X66591192Y-63896617D01*
X66607205Y-63926576D01*
X66617066Y-63959082D01*
X66621000Y-63999029D01*
X66621000Y-65540971D01*
X66617066Y-65580918D01*
X66607205Y-65613424D01*
X66591192Y-65643383D01*
X66569641Y-65669641D01*
X66543383Y-65691192D01*
X66513424Y-65707205D01*
X66480918Y-65717066D01*
X66440971Y-65721000D01*
X63099029Y-65721000D01*
X63059082Y-65717066D01*
X63026576Y-65707205D01*
X62996617Y-65691192D01*
X62970359Y-65669641D01*
X62948808Y-65643383D01*
X62932795Y-65613424D01*
X62922934Y-65580918D01*
X62919000Y-65540971D01*
X62919000Y-63999029D01*
X62922934Y-63959082D01*
X62932795Y-63926576D01*
X62948808Y-63896617D01*
X62970359Y-63870359D01*
X62996617Y-63848808D01*
X63026576Y-63832795D01*
X63059082Y-63822934D01*
X63099029Y-63819000D01*
X66440971Y-63819000D01*
X66480918Y-63822934D01*
X66480918Y-63822934D01*
G37*
G36*
X82970821Y-62153313D02*
X82970824Y-62153314D01*
X82970825Y-62153314D01*
X83131239Y-62201975D01*
X83131241Y-62201976D01*
X83131244Y-62201977D01*
X83279078Y-62280995D01*
X83408659Y-62387341D01*
X83515005Y-62516922D01*
X83594023Y-62664756D01*
X83594024Y-62664759D01*
X83594025Y-62664761D01*
X83640532Y-62818074D01*
X83642687Y-62825179D01*
X83659117Y-62992000D01*
X83642687Y-63158821D01*
X83642686Y-63158824D01*
X83642686Y-63158825D01*
X83617993Y-63240228D01*
X83594023Y-63319244D01*
X83515005Y-63467078D01*
X83408659Y-63596659D01*
X83279078Y-63703005D01*
X83131244Y-63782023D01*
X83131241Y-63782024D01*
X83131239Y-63782025D01*
X82970825Y-63830686D01*
X82970824Y-63830686D01*
X82970821Y-63830687D01*
X82845804Y-63843000D01*
X82762196Y-63843000D01*
X82637179Y-63830687D01*
X82637176Y-63830686D01*
X82637175Y-63830686D01*
X82476761Y-63782025D01*
X82476759Y-63782024D01*
X82476756Y-63782023D01*
X82328922Y-63703005D01*
X82199341Y-63596659D01*
X82092995Y-63467078D01*
X82013977Y-63319244D01*
X81990008Y-63240228D01*
X81965314Y-63158825D01*
X81965314Y-63158824D01*
X81965313Y-63158821D01*
X81948883Y-62992000D01*
X81965313Y-62825179D01*
X81967468Y-62818074D01*
X82013975Y-62664761D01*
X82013976Y-62664759D01*
X82013977Y-62664756D01*
X82092995Y-62516922D01*
X82199341Y-62387341D01*
X82328922Y-62280995D01*
X82476756Y-62201977D01*
X82476759Y-62201976D01*
X82476761Y-62201975D01*
X82637175Y-62153314D01*
X82637176Y-62153314D01*
X82637179Y-62153313D01*
X82762196Y-62141000D01*
X82845804Y-62141000D01*
X82970821Y-62153313D01*
X82970821Y-62153313D01*
G37*
G36*
X72892228Y-62173703D02*
X73047100Y-62237853D01*
X73186481Y-62330985D01*
X73305015Y-62449519D01*
X73398147Y-62588900D01*
X73462297Y-62743772D01*
X73495000Y-62908184D01*
X73495000Y-63075816D01*
X73462297Y-63240228D01*
X73398147Y-63395100D01*
X73305015Y-63534481D01*
X73186481Y-63653015D01*
X73047100Y-63746147D01*
X72892228Y-63810297D01*
X72727816Y-63843000D01*
X72560184Y-63843000D01*
X72395772Y-63810297D01*
X72240900Y-63746147D01*
X72101519Y-63653015D01*
X71982985Y-63534481D01*
X71889853Y-63395100D01*
X71825703Y-63240228D01*
X71793000Y-63075816D01*
X71793000Y-62908184D01*
X71825703Y-62743772D01*
X71889853Y-62588900D01*
X71982985Y-62449519D01*
X72101519Y-62330985D01*
X72240900Y-62237853D01*
X72395772Y-62173703D01*
X72560184Y-62141000D01*
X72727816Y-62141000D01*
X72892228Y-62173703D01*
X72892228Y-62173703D01*
G37*
G36*
X122919142Y-61956242D02*
X123067102Y-62017530D01*
X123134130Y-62062317D01*
X123200257Y-62106501D01*
X123313499Y-62219743D01*
X123325600Y-62237854D01*
X123402470Y-62352898D01*
X123463758Y-62500858D01*
X123495000Y-62657925D01*
X123495000Y-62818075D01*
X123463758Y-62975142D01*
X123402470Y-63123102D01*
X123313498Y-63256258D01*
X123200258Y-63369498D01*
X123067102Y-63458470D01*
X122919142Y-63519758D01*
X122762075Y-63551000D01*
X122601925Y-63551000D01*
X122444858Y-63519758D01*
X122296898Y-63458470D01*
X122163742Y-63369498D01*
X122050502Y-63256258D01*
X121961530Y-63123102D01*
X121900242Y-62975142D01*
X121869000Y-62818075D01*
X121869000Y-62657925D01*
X121900242Y-62500858D01*
X121961530Y-62352898D01*
X122038400Y-62237854D01*
X122050501Y-62219743D01*
X122163743Y-62106501D01*
X122229870Y-62062317D01*
X122296898Y-62017530D01*
X122444858Y-61956242D01*
X122601925Y-61925000D01*
X122762075Y-61925000D01*
X122919142Y-61956242D01*
X122919142Y-61956242D01*
G37*
G36*
X107679142Y-61956242D02*
X107827102Y-62017530D01*
X107894130Y-62062317D01*
X107960257Y-62106501D01*
X108073499Y-62219743D01*
X108085600Y-62237854D01*
X108162470Y-62352898D01*
X108223758Y-62500858D01*
X108255000Y-62657925D01*
X108255000Y-62818075D01*
X108223758Y-62975142D01*
X108162470Y-63123102D01*
X108073498Y-63256258D01*
X107960258Y-63369498D01*
X107827102Y-63458470D01*
X107679142Y-63519758D01*
X107522075Y-63551000D01*
X107361925Y-63551000D01*
X107204858Y-63519758D01*
X107056898Y-63458470D01*
X106923742Y-63369498D01*
X106810502Y-63256258D01*
X106721530Y-63123102D01*
X106660242Y-62975142D01*
X106629000Y-62818075D01*
X106629000Y-62657925D01*
X106660242Y-62500858D01*
X106721530Y-62352898D01*
X106798400Y-62237854D01*
X106810501Y-62219743D01*
X106923743Y-62106501D01*
X106989870Y-62062317D01*
X107056898Y-62017530D01*
X107204858Y-61956242D01*
X107361925Y-61925000D01*
X107522075Y-61925000D01*
X107679142Y-61956242D01*
X107679142Y-61956242D01*
G37*
G36*
X107679142Y-59416242D02*
X107827102Y-59477530D01*
X107866075Y-59503571D01*
X107960257Y-59566501D01*
X108073499Y-59679743D01*
X108080352Y-59690000D01*
X108162470Y-59812898D01*
X108223758Y-59960858D01*
X108255000Y-60117925D01*
X108255000Y-60278075D01*
X108223758Y-60435142D01*
X108203291Y-60484552D01*
X108166713Y-60572860D01*
X108162470Y-60583102D01*
X108073498Y-60716258D01*
X107960258Y-60829498D01*
X107827102Y-60918470D01*
X107679142Y-60979758D01*
X107522075Y-61011000D01*
X107361925Y-61011000D01*
X107204858Y-60979758D01*
X107056898Y-60918470D01*
X106923742Y-60829498D01*
X106810502Y-60716258D01*
X106721530Y-60583102D01*
X106717288Y-60572860D01*
X106680709Y-60484552D01*
X106660242Y-60435142D01*
X106629000Y-60278075D01*
X106629000Y-60117925D01*
X106660242Y-59960858D01*
X106721530Y-59812898D01*
X106803648Y-59690000D01*
X106810501Y-59679743D01*
X106923743Y-59566501D01*
X107017925Y-59503571D01*
X107056898Y-59477530D01*
X107204858Y-59416242D01*
X107361925Y-59385000D01*
X107522075Y-59385000D01*
X107679142Y-59416242D01*
X107679142Y-59416242D01*
G37*
G36*
X122919142Y-59416242D02*
X123067102Y-59477530D01*
X123106075Y-59503571D01*
X123200257Y-59566501D01*
X123313499Y-59679743D01*
X123320352Y-59690000D01*
X123402470Y-59812898D01*
X123463758Y-59960858D01*
X123495000Y-60117925D01*
X123495000Y-60278075D01*
X123463758Y-60435142D01*
X123443291Y-60484552D01*
X123406713Y-60572860D01*
X123402470Y-60583102D01*
X123313498Y-60716258D01*
X123200258Y-60829498D01*
X123067102Y-60918470D01*
X122919142Y-60979758D01*
X122762075Y-61011000D01*
X122601925Y-61011000D01*
X122444858Y-60979758D01*
X122296898Y-60918470D01*
X122163742Y-60829498D01*
X122050502Y-60716258D01*
X121961530Y-60583102D01*
X121957288Y-60572860D01*
X121920709Y-60484552D01*
X121900242Y-60435142D01*
X121869000Y-60278075D01*
X121869000Y-60117925D01*
X121900242Y-59960858D01*
X121961530Y-59812898D01*
X122043648Y-59690000D01*
X122050501Y-59679743D01*
X122163743Y-59566501D01*
X122257925Y-59503571D01*
X122296898Y-59477530D01*
X122444858Y-59416242D01*
X122601925Y-59385000D01*
X122762075Y-59385000D01*
X122919142Y-59416242D01*
X122919142Y-59416242D01*
G37*
G36*
X65856425Y-58752760D02*
X65856428Y-58752761D01*
X65856429Y-58752761D01*
X66035693Y-58807140D01*
X66035695Y-58807141D01*
X66200905Y-58895448D01*
X66345712Y-59014288D01*
X66464552Y-59159095D01*
X66464553Y-59159097D01*
X66552860Y-59324307D01*
X66607239Y-59503571D01*
X66607240Y-59503575D01*
X66625601Y-59690000D01*
X66607240Y-59876425D01*
X66607239Y-59876428D01*
X66607239Y-59876429D01*
X66557421Y-60040659D01*
X66552859Y-60055695D01*
X66464552Y-60220905D01*
X66345712Y-60365712D01*
X66200905Y-60484552D01*
X66200903Y-60484553D01*
X66035693Y-60572860D01*
X65856429Y-60627239D01*
X65856428Y-60627239D01*
X65856425Y-60627240D01*
X65716718Y-60641000D01*
X63823282Y-60641000D01*
X63683575Y-60627240D01*
X63683572Y-60627239D01*
X63683571Y-60627239D01*
X63504307Y-60572860D01*
X63339097Y-60484553D01*
X63339095Y-60484552D01*
X63194288Y-60365712D01*
X63075448Y-60220905D01*
X62987141Y-60055695D01*
X62982580Y-60040659D01*
X62932761Y-59876429D01*
X62932761Y-59876428D01*
X62932760Y-59876425D01*
X62914399Y-59690000D01*
X62932760Y-59503575D01*
X62932761Y-59503571D01*
X62987140Y-59324307D01*
X63075447Y-59159097D01*
X63075448Y-59159095D01*
X63194288Y-59014288D01*
X63339095Y-58895448D01*
X63504305Y-58807141D01*
X63504307Y-58807140D01*
X63683571Y-58752761D01*
X63683572Y-58752761D01*
X63683575Y-58752760D01*
X63823282Y-58739000D01*
X65716718Y-58739000D01*
X65856425Y-58752760D01*
X65856425Y-58752760D01*
G37*
G36*
X83052228Y-58617703D02*
X83207100Y-58681853D01*
X83346481Y-58774985D01*
X83465015Y-58893519D01*
X83558147Y-59032900D01*
X83622297Y-59187772D01*
X83655000Y-59352184D01*
X83655000Y-59519816D01*
X83622297Y-59684228D01*
X83558147Y-59839100D01*
X83465015Y-59978481D01*
X83346481Y-60097015D01*
X83207100Y-60190147D01*
X83052228Y-60254297D01*
X82887816Y-60287000D01*
X82720184Y-60287000D01*
X82555772Y-60254297D01*
X82400900Y-60190147D01*
X82261519Y-60097015D01*
X82142985Y-59978481D01*
X82049853Y-59839100D01*
X81985703Y-59684228D01*
X81953000Y-59519816D01*
X81953000Y-59352184D01*
X81985703Y-59187772D01*
X82049853Y-59032900D01*
X82142985Y-58893519D01*
X82261519Y-58774985D01*
X82400900Y-58681853D01*
X82555772Y-58617703D01*
X82720184Y-58585000D01*
X82887816Y-58585000D01*
X83052228Y-58617703D01*
X83052228Y-58617703D01*
G37*
G36*
X72810821Y-58597313D02*
X72810824Y-58597314D01*
X72810825Y-58597314D01*
X72971239Y-58645975D01*
X72971241Y-58645976D01*
X72971244Y-58645977D01*
X73119078Y-58724995D01*
X73248659Y-58831341D01*
X73355005Y-58960922D01*
X73434023Y-59108756D01*
X73434024Y-59108759D01*
X73434025Y-59108761D01*
X73482686Y-59269175D01*
X73482687Y-59269179D01*
X73499117Y-59436000D01*
X73482687Y-59602821D01*
X73482686Y-59602824D01*
X73482686Y-59602825D01*
X73456242Y-59690000D01*
X73434023Y-59763244D01*
X73355005Y-59911078D01*
X73248659Y-60040659D01*
X73119078Y-60147005D01*
X72971244Y-60226023D01*
X72971241Y-60226024D01*
X72971239Y-60226025D01*
X72810825Y-60274686D01*
X72810824Y-60274686D01*
X72810821Y-60274687D01*
X72685804Y-60287000D01*
X72602196Y-60287000D01*
X72477179Y-60274687D01*
X72477176Y-60274686D01*
X72477175Y-60274686D01*
X72316761Y-60226025D01*
X72316759Y-60226024D01*
X72316756Y-60226023D01*
X72168922Y-60147005D01*
X72039341Y-60040659D01*
X71932995Y-59911078D01*
X71853977Y-59763244D01*
X71831759Y-59690000D01*
X71805314Y-59602825D01*
X71805314Y-59602824D01*
X71805313Y-59602821D01*
X71788883Y-59436000D01*
X71805313Y-59269179D01*
X71805314Y-59269175D01*
X71853975Y-59108761D01*
X71853976Y-59108759D01*
X71853977Y-59108756D01*
X71932995Y-58960922D01*
X72039341Y-58831341D01*
X72168922Y-58724995D01*
X72316756Y-58645977D01*
X72316759Y-58645976D01*
X72316761Y-58645975D01*
X72477175Y-58597314D01*
X72477176Y-58597314D01*
X72477179Y-58597313D01*
X72602196Y-58585000D01*
X72685804Y-58585000D01*
X72810821Y-58597313D01*
X72810821Y-58597313D01*
G37*
G36*
X107679142Y-56876242D02*
X107827102Y-56937530D01*
X107960258Y-57026502D01*
X108073498Y-57139742D01*
X108162470Y-57272898D01*
X108223758Y-57420858D01*
X108255000Y-57577925D01*
X108255000Y-57738075D01*
X108223758Y-57895142D01*
X108162470Y-58043102D01*
X108073498Y-58176258D01*
X107960258Y-58289498D01*
X107827102Y-58378470D01*
X107679142Y-58439758D01*
X107522075Y-58471000D01*
X107361925Y-58471000D01*
X107204858Y-58439758D01*
X107056898Y-58378470D01*
X106923742Y-58289498D01*
X106810502Y-58176258D01*
X106721530Y-58043102D01*
X106660242Y-57895142D01*
X106629000Y-57738075D01*
X106629000Y-57577925D01*
X106660242Y-57420858D01*
X106721530Y-57272898D01*
X106810502Y-57139742D01*
X106923742Y-57026502D01*
X107056898Y-56937530D01*
X107204858Y-56876242D01*
X107361925Y-56845000D01*
X107522075Y-56845000D01*
X107679142Y-56876242D01*
X107679142Y-56876242D01*
G37*
G36*
X122919142Y-56876242D02*
X123067102Y-56937530D01*
X123200258Y-57026502D01*
X123313498Y-57139742D01*
X123402470Y-57272898D01*
X123463758Y-57420858D01*
X123495000Y-57577925D01*
X123495000Y-57738075D01*
X123463758Y-57895142D01*
X123402470Y-58043102D01*
X123313498Y-58176258D01*
X123200258Y-58289498D01*
X123067102Y-58378470D01*
X122919142Y-58439758D01*
X122762075Y-58471000D01*
X122601925Y-58471000D01*
X122444858Y-58439758D01*
X122296898Y-58378470D01*
X122163742Y-58289498D01*
X122050502Y-58176258D01*
X121961530Y-58043102D01*
X121900242Y-57895142D01*
X121869000Y-57738075D01*
X121869000Y-57577925D01*
X121900242Y-57420858D01*
X121961530Y-57272898D01*
X122050502Y-57139742D01*
X122163742Y-57026502D01*
X122296898Y-56937530D01*
X122444858Y-56876242D01*
X122601925Y-56845000D01*
X122762075Y-56845000D01*
X122919142Y-56876242D01*
X122919142Y-56876242D01*
G37*
G36*
X72683821Y-54406313D02*
X72683824Y-54406314D01*
X72683825Y-54406314D01*
X72844239Y-54454975D01*
X72844241Y-54454976D01*
X72844244Y-54454977D01*
X72992078Y-54533995D01*
X73121659Y-54640341D01*
X73228005Y-54769922D01*
X73307023Y-54917756D01*
X73307024Y-54917759D01*
X73307025Y-54917761D01*
X73351460Y-55064244D01*
X73355687Y-55078179D01*
X73372117Y-55245000D01*
X73355687Y-55411821D01*
X73355686Y-55411824D01*
X73355686Y-55411825D01*
X73320741Y-55527025D01*
X73307023Y-55572244D01*
X73228005Y-55720078D01*
X73121659Y-55849659D01*
X72992078Y-55956005D01*
X72844244Y-56035023D01*
X72844241Y-56035024D01*
X72844239Y-56035025D01*
X72683825Y-56083686D01*
X72683824Y-56083686D01*
X72683821Y-56083687D01*
X72558804Y-56096000D01*
X72475196Y-56096000D01*
X72350179Y-56083687D01*
X72350176Y-56083686D01*
X72350175Y-56083686D01*
X72189761Y-56035025D01*
X72189759Y-56035024D01*
X72189756Y-56035023D01*
X72041922Y-55956005D01*
X71912341Y-55849659D01*
X71805995Y-55720078D01*
X71726977Y-55572244D01*
X71713260Y-55527025D01*
X71678314Y-55411825D01*
X71678314Y-55411824D01*
X71678313Y-55411821D01*
X71661883Y-55245000D01*
X71678313Y-55078179D01*
X71682540Y-55064244D01*
X71726975Y-54917761D01*
X71726976Y-54917759D01*
X71726977Y-54917756D01*
X71805995Y-54769922D01*
X71912341Y-54640341D01*
X72041922Y-54533995D01*
X72189756Y-54454977D01*
X72189759Y-54454976D01*
X72189761Y-54454975D01*
X72350175Y-54406314D01*
X72350176Y-54406314D01*
X72350179Y-54406313D01*
X72475196Y-54394000D01*
X72558804Y-54394000D01*
X72683821Y-54406313D01*
X72683821Y-54406313D01*
G37*
G36*
X82925228Y-54426703D02*
X83080100Y-54490853D01*
X83219481Y-54583985D01*
X83338015Y-54702519D01*
X83431147Y-54841900D01*
X83495297Y-54996772D01*
X83528000Y-55161184D01*
X83528000Y-55328816D01*
X83495297Y-55493228D01*
X83431147Y-55648100D01*
X83338015Y-55787481D01*
X83219481Y-55906015D01*
X83080100Y-55999147D01*
X82925228Y-56063297D01*
X82760816Y-56096000D01*
X82593184Y-56096000D01*
X82428772Y-56063297D01*
X82273900Y-55999147D01*
X82134519Y-55906015D01*
X82015985Y-55787481D01*
X81922853Y-55648100D01*
X81858703Y-55493228D01*
X81826000Y-55328816D01*
X81826000Y-55161184D01*
X81858703Y-54996772D01*
X81922853Y-54841900D01*
X82015985Y-54702519D01*
X82134519Y-54583985D01*
X82273900Y-54490853D01*
X82428772Y-54426703D01*
X82593184Y-54394000D01*
X82760816Y-54394000D01*
X82925228Y-54426703D01*
X82925228Y-54426703D01*
G37*
G36*
X122919142Y-54336242D02*
X123067102Y-54397530D01*
X123085407Y-54409761D01*
X123200257Y-54486501D01*
X123313499Y-54599743D01*
X123357683Y-54665870D01*
X123402470Y-54732898D01*
X123463758Y-54880858D01*
X123495000Y-55037925D01*
X123495000Y-55198075D01*
X123463758Y-55355142D01*
X123402470Y-55503102D01*
X123313498Y-55636258D01*
X123200258Y-55749498D01*
X123067102Y-55838470D01*
X122919142Y-55899758D01*
X122762075Y-55931000D01*
X122601925Y-55931000D01*
X122444858Y-55899758D01*
X122296898Y-55838470D01*
X122163742Y-55749498D01*
X122050502Y-55636258D01*
X121961530Y-55503102D01*
X121900242Y-55355142D01*
X121869000Y-55198075D01*
X121869000Y-55037925D01*
X121900242Y-54880858D01*
X121961530Y-54732898D01*
X122006317Y-54665870D01*
X122050501Y-54599743D01*
X122163743Y-54486501D01*
X122278593Y-54409761D01*
X122296898Y-54397530D01*
X122444858Y-54336242D01*
X122601925Y-54305000D01*
X122762075Y-54305000D01*
X122919142Y-54336242D01*
X122919142Y-54336242D01*
G37*
G36*
X107679142Y-54336242D02*
X107827102Y-54397530D01*
X107845407Y-54409761D01*
X107960257Y-54486501D01*
X108073499Y-54599743D01*
X108117683Y-54665870D01*
X108162470Y-54732898D01*
X108223758Y-54880858D01*
X108255000Y-55037925D01*
X108255000Y-55198075D01*
X108223758Y-55355142D01*
X108162470Y-55503102D01*
X108073498Y-55636258D01*
X107960258Y-55749498D01*
X107827102Y-55838470D01*
X107679142Y-55899758D01*
X107522075Y-55931000D01*
X107361925Y-55931000D01*
X107204858Y-55899758D01*
X107056898Y-55838470D01*
X106923742Y-55749498D01*
X106810502Y-55636258D01*
X106721530Y-55503102D01*
X106660242Y-55355142D01*
X106629000Y-55198075D01*
X106629000Y-55037925D01*
X106660242Y-54880858D01*
X106721530Y-54732898D01*
X106766317Y-54665870D01*
X106810501Y-54599743D01*
X106923743Y-54486501D01*
X107038593Y-54409761D01*
X107056898Y-54397530D01*
X107204858Y-54336242D01*
X107361925Y-54305000D01*
X107522075Y-54305000D01*
X107679142Y-54336242D01*
X107679142Y-54336242D01*
G37*
G36*
X93003821Y-53898313D02*
X93003824Y-53898314D01*
X93003825Y-53898314D01*
X93164239Y-53946975D01*
X93164241Y-53946976D01*
X93164244Y-53946977D01*
X93312078Y-54025995D01*
X93441659Y-54132341D01*
X93548005Y-54261922D01*
X93627023Y-54409756D01*
X93627024Y-54409759D01*
X93627025Y-54409761D01*
X93650304Y-54486502D01*
X93675687Y-54570179D01*
X93692117Y-54737000D01*
X93675687Y-54903821D01*
X93675686Y-54903824D01*
X93675686Y-54903825D01*
X93647491Y-54996772D01*
X93627023Y-55064244D01*
X93548005Y-55212078D01*
X93441659Y-55341659D01*
X93312078Y-55448005D01*
X93164244Y-55527023D01*
X93164241Y-55527024D01*
X93164239Y-55527025D01*
X93003825Y-55575686D01*
X93003824Y-55575686D01*
X93003821Y-55575687D01*
X92878804Y-55588000D01*
X92795196Y-55588000D01*
X92670179Y-55575687D01*
X92670176Y-55575686D01*
X92670175Y-55575686D01*
X92509761Y-55527025D01*
X92509759Y-55527024D01*
X92509756Y-55527023D01*
X92361922Y-55448005D01*
X92232341Y-55341659D01*
X92125995Y-55212078D01*
X92046977Y-55064244D01*
X92026510Y-54996772D01*
X91998314Y-54903825D01*
X91998314Y-54903824D01*
X91998313Y-54903821D01*
X91981883Y-54737000D01*
X91998313Y-54570179D01*
X92023696Y-54486502D01*
X92046975Y-54409761D01*
X92046976Y-54409759D01*
X92046977Y-54409756D01*
X92125995Y-54261922D01*
X92232341Y-54132341D01*
X92361922Y-54025995D01*
X92509756Y-53946977D01*
X92509759Y-53946976D01*
X92509761Y-53946975D01*
X92670175Y-53898314D01*
X92670176Y-53898314D01*
X92670179Y-53898313D01*
X92795196Y-53886000D01*
X92878804Y-53886000D01*
X93003821Y-53898313D01*
X93003821Y-53898313D01*
G37*
G36*
X100623821Y-53898313D02*
X100623824Y-53898314D01*
X100623825Y-53898314D01*
X100784239Y-53946975D01*
X100784241Y-53946976D01*
X100784244Y-53946977D01*
X100932078Y-54025995D01*
X101061659Y-54132341D01*
X101168005Y-54261922D01*
X101247023Y-54409756D01*
X101247024Y-54409759D01*
X101247025Y-54409761D01*
X101270304Y-54486502D01*
X101295687Y-54570179D01*
X101312117Y-54737000D01*
X101295687Y-54903821D01*
X101295686Y-54903824D01*
X101295686Y-54903825D01*
X101267491Y-54996772D01*
X101247023Y-55064244D01*
X101168005Y-55212078D01*
X101061659Y-55341659D01*
X100932078Y-55448005D01*
X100784244Y-55527023D01*
X100784241Y-55527024D01*
X100784239Y-55527025D01*
X100623825Y-55575686D01*
X100623824Y-55575686D01*
X100623821Y-55575687D01*
X100498804Y-55588000D01*
X100415196Y-55588000D01*
X100290179Y-55575687D01*
X100290176Y-55575686D01*
X100290175Y-55575686D01*
X100129761Y-55527025D01*
X100129759Y-55527024D01*
X100129756Y-55527023D01*
X99981922Y-55448005D01*
X99852341Y-55341659D01*
X99745995Y-55212078D01*
X99666977Y-55064244D01*
X99646510Y-54996772D01*
X99618314Y-54903825D01*
X99618314Y-54903824D01*
X99618313Y-54903821D01*
X99601883Y-54737000D01*
X99618313Y-54570179D01*
X99643696Y-54486502D01*
X99666975Y-54409761D01*
X99666976Y-54409759D01*
X99666977Y-54409756D01*
X99745995Y-54261922D01*
X99852341Y-54132341D01*
X99981922Y-54025995D01*
X100129756Y-53946977D01*
X100129759Y-53946976D01*
X100129761Y-53946975D01*
X100290175Y-53898314D01*
X100290176Y-53898314D01*
X100290179Y-53898313D01*
X100415196Y-53886000D01*
X100498804Y-53886000D01*
X100623821Y-53898313D01*
X100623821Y-53898313D01*
G37*
G36*
X108255000Y-53391000D02*
X106629000Y-53391000D01*
X106629000Y-51765000D01*
X108255000Y-51765000D01*
X108255000Y-53391000D01*
X108255000Y-53391000D01*
G37*
G36*
X122919142Y-51796242D02*
X123033583Y-51843646D01*
X123062977Y-51855821D01*
X123067102Y-51857530D01*
X123085407Y-51869761D01*
X123186379Y-51937228D01*
X123200258Y-51946502D01*
X123313498Y-52059742D01*
X123402470Y-52192898D01*
X123463758Y-52340858D01*
X123495000Y-52497925D01*
X123495000Y-52658075D01*
X123463758Y-52815142D01*
X123402470Y-52963102D01*
X123313498Y-53096258D01*
X123200258Y-53209498D01*
X123067102Y-53298470D01*
X122919142Y-53359758D01*
X122762075Y-53391000D01*
X122601925Y-53391000D01*
X122444858Y-53359758D01*
X122296898Y-53298470D01*
X122163742Y-53209498D01*
X122050502Y-53096258D01*
X121961530Y-52963102D01*
X121900242Y-52815142D01*
X121869000Y-52658075D01*
X121869000Y-52497925D01*
X121900242Y-52340858D01*
X121961530Y-52192898D01*
X122050502Y-52059742D01*
X122163742Y-51946502D01*
X122177622Y-51937228D01*
X122278593Y-51869761D01*
X122296898Y-51857530D01*
X122301024Y-51855821D01*
X122330417Y-51843646D01*
X122444858Y-51796242D01*
X122601925Y-51765000D01*
X122762075Y-51765000D01*
X122919142Y-51796242D01*
X122919142Y-51796242D01*
G37*
G36*
X100623821Y-51358313D02*
X100623824Y-51358314D01*
X100623825Y-51358314D01*
X100784239Y-51406975D01*
X100784241Y-51406976D01*
X100784244Y-51406977D01*
X100932078Y-51485995D01*
X101061659Y-51592341D01*
X101168005Y-51721922D01*
X101247023Y-51869756D01*
X101247024Y-51869759D01*
X101247025Y-51869761D01*
X101291460Y-52016244D01*
X101295687Y-52030179D01*
X101312117Y-52197000D01*
X101295687Y-52363821D01*
X101295686Y-52363824D01*
X101295686Y-52363825D01*
X101252165Y-52507296D01*
X101247023Y-52524244D01*
X101168005Y-52672078D01*
X101061659Y-52801659D01*
X100932078Y-52908005D01*
X100784244Y-52987023D01*
X100784241Y-52987024D01*
X100784239Y-52987025D01*
X100623825Y-53035686D01*
X100623824Y-53035686D01*
X100623821Y-53035687D01*
X100498804Y-53048000D01*
X100415196Y-53048000D01*
X100290179Y-53035687D01*
X100290176Y-53035686D01*
X100290175Y-53035686D01*
X100129761Y-52987025D01*
X100129759Y-52987024D01*
X100129756Y-52987023D01*
X99981922Y-52908005D01*
X99852341Y-52801659D01*
X99745995Y-52672078D01*
X99666977Y-52524244D01*
X99661836Y-52507296D01*
X99618314Y-52363825D01*
X99618314Y-52363824D01*
X99618313Y-52363821D01*
X99601883Y-52197000D01*
X99618313Y-52030179D01*
X99622540Y-52016244D01*
X99666975Y-51869761D01*
X99666976Y-51869759D01*
X99666977Y-51869756D01*
X99745995Y-51721922D01*
X99852341Y-51592341D01*
X99981922Y-51485995D01*
X100129756Y-51406977D01*
X100129759Y-51406976D01*
X100129761Y-51406975D01*
X100290175Y-51358314D01*
X100290176Y-51358314D01*
X100290179Y-51358313D01*
X100415196Y-51346000D01*
X100498804Y-51346000D01*
X100623821Y-51358313D01*
X100623821Y-51358313D01*
G37*
G36*
X93688000Y-53048000D02*
X91986000Y-53048000D01*
X91986000Y-51346000D01*
X93688000Y-51346000D01*
X93688000Y-53048000D01*
X93688000Y-53048000D01*
G37*
G36*
X82925228Y-50870703D02*
X83080100Y-50934853D01*
X83219481Y-51027985D01*
X83338015Y-51146519D01*
X83431147Y-51285900D01*
X83495297Y-51440772D01*
X83528000Y-51605184D01*
X83528000Y-51772816D01*
X83495297Y-51937228D01*
X83431147Y-52092100D01*
X83338015Y-52231481D01*
X83219481Y-52350015D01*
X83080100Y-52443147D01*
X82925228Y-52507297D01*
X82760816Y-52540000D01*
X82593184Y-52540000D01*
X82428772Y-52507297D01*
X82273900Y-52443147D01*
X82134519Y-52350015D01*
X82015985Y-52231481D01*
X81922853Y-52092100D01*
X81858703Y-51937228D01*
X81826000Y-51772816D01*
X81826000Y-51605184D01*
X81858703Y-51440772D01*
X81922853Y-51285900D01*
X82015985Y-51146519D01*
X82134519Y-51027985D01*
X82273900Y-50934853D01*
X82428772Y-50870703D01*
X82593184Y-50838000D01*
X82760816Y-50838000D01*
X82925228Y-50870703D01*
X82925228Y-50870703D01*
G37*
G36*
X72683821Y-50850313D02*
X72683824Y-50850314D01*
X72683825Y-50850314D01*
X72844239Y-50898975D01*
X72844241Y-50898976D01*
X72844244Y-50898977D01*
X72992078Y-50977995D01*
X73121659Y-51084341D01*
X73228005Y-51213922D01*
X73307023Y-51361756D01*
X73307024Y-51361759D01*
X73307025Y-51361761D01*
X73344711Y-51485995D01*
X73355687Y-51522179D01*
X73372117Y-51689000D01*
X73355687Y-51855821D01*
X73355686Y-51855824D01*
X73355686Y-51855825D01*
X73328180Y-51946501D01*
X73307023Y-52016244D01*
X73228005Y-52164078D01*
X73121659Y-52293659D01*
X72992078Y-52400005D01*
X72844244Y-52479023D01*
X72844241Y-52479024D01*
X72844239Y-52479025D01*
X72683825Y-52527686D01*
X72683824Y-52527686D01*
X72683821Y-52527687D01*
X72558804Y-52540000D01*
X72475196Y-52540000D01*
X72350179Y-52527687D01*
X72350176Y-52527686D01*
X72350175Y-52527686D01*
X72189761Y-52479025D01*
X72189759Y-52479024D01*
X72189756Y-52479023D01*
X72041922Y-52400005D01*
X71912341Y-52293659D01*
X71805995Y-52164078D01*
X71726977Y-52016244D01*
X71705821Y-51946501D01*
X71678314Y-51855825D01*
X71678314Y-51855824D01*
X71678313Y-51855821D01*
X71661883Y-51689000D01*
X71678313Y-51522179D01*
X71689289Y-51485995D01*
X71726975Y-51361761D01*
X71726976Y-51361759D01*
X71726977Y-51361756D01*
X71805995Y-51213922D01*
X71912341Y-51084341D01*
X72041922Y-50977995D01*
X72189756Y-50898977D01*
X72189759Y-50898976D01*
X72189761Y-50898975D01*
X72350175Y-50850314D01*
X72350176Y-50850314D01*
X72350179Y-50850313D01*
X72475196Y-50838000D01*
X72558804Y-50838000D01*
X72683821Y-50850313D01*
X72683821Y-50850313D01*
G37*
M02*
