G04 #@! TF.GenerationSoftware,KiCad,Pcbnew,(5.0.2)-1*
G04 #@! TF.CreationDate,2019-04-01T14:51:39+03:00*
G04 #@! TF.ProjectId,vent_sys,76656e74-5f73-4797-932e-6b696361645f,rev?*
G04 #@! TF.SameCoordinates,Original*
G04 #@! TF.FileFunction,Legend,Top*
G04 #@! TF.FilePolarity,Positive*
%FSLAX46Y46*%
G04 Gerber Fmt 4.6, Leading zero omitted, Abs format (unit mm)*
G04 Created by KiCad (PCBNEW (5.0.2)-1) date 01.04.2019 14:51:39*
%MOMM*%
%LPD*%
G01*
G04 APERTURE LIST*
%ADD10C,0.120000*%
%ADD11C,0.127000*%
%ADD12C,0.150000*%
%ADD13C,0.050000*%
G04 APERTURE END LIST*
D10*
G04 #@! TO.C,U2*
X106112000Y-51248000D02*
X106112000Y-52578000D01*
X107442000Y-51248000D02*
X106112000Y-51248000D01*
X106112000Y-53848000D02*
X108772000Y-53848000D01*
X121352000Y-102168000D02*
X121352000Y-51248000D01*
X108772000Y-51248000D02*
X108772000Y-102168000D01*
X106112000Y-102168000D02*
X106112000Y-53848000D01*
X124012000Y-51248000D02*
X124012000Y-102168000D01*
X124012000Y-102168000D02*
X106112000Y-102168000D01*
X108772000Y-51248000D02*
X124012000Y-51248000D01*
G04 #@! TO.C,U3*
X93683000Y-96513000D02*
X104183000Y-96513000D01*
X93683000Y-88653000D02*
X93683000Y-96513000D01*
X104183000Y-88653000D02*
X93683000Y-88653000D01*
X104183000Y-96513000D02*
X104183000Y-88653000D01*
X96683000Y-96453000D02*
X97933000Y-96453000D01*
X96683000Y-88713000D02*
X96683000Y-96453000D01*
X101183000Y-88713000D02*
X96683000Y-88713000D01*
X101183000Y-96453000D02*
X101183000Y-88713000D01*
X99933000Y-96453000D02*
X101183000Y-96453000D01*
X97933000Y-96453000D02*
G75*
G02X99933000Y-96453000I1000000J0D01*
G01*
G04 #@! TO.C,C1*
X64162000Y-85618000D02*
X66902000Y-85618000D01*
X64162000Y-95858000D02*
X66902000Y-95858000D01*
X66902000Y-95858000D02*
X66902000Y-85618000D01*
X64162000Y-95858000D02*
X64162000Y-85618000D01*
G04 #@! TO.C,J1*
X59920000Y-67810000D02*
X59920000Y-65810000D01*
X61170000Y-67810000D02*
X59920000Y-67810000D01*
X66920000Y-58190000D02*
X66920000Y-58940000D01*
X62620000Y-58190000D02*
X66920000Y-58190000D01*
X62620000Y-58940000D02*
X62620000Y-58190000D01*
X62270000Y-58940000D02*
X62620000Y-58940000D01*
X62270000Y-58440000D02*
X62270000Y-58940000D01*
X61270000Y-58190000D02*
X62270000Y-58440000D01*
X61270000Y-61190000D02*
X61270000Y-58190000D01*
X62270000Y-60940000D02*
X61270000Y-61190000D01*
X62270000Y-60440000D02*
X62270000Y-60940000D01*
X62620000Y-60440000D02*
X62270000Y-60440000D01*
X62620000Y-61190000D02*
X62620000Y-60440000D01*
X66920000Y-61190000D02*
X62620000Y-61190000D01*
X66920000Y-60440000D02*
X66920000Y-61190000D01*
X66920000Y-63270000D02*
X66920000Y-64020000D01*
X62620000Y-63270000D02*
X66920000Y-63270000D01*
X62620000Y-64020000D02*
X62620000Y-63270000D01*
X62270000Y-64020000D02*
X62620000Y-64020000D01*
X62270000Y-63520000D02*
X62270000Y-64020000D01*
X61270000Y-63270000D02*
X62270000Y-63520000D01*
X61270000Y-66270000D02*
X61270000Y-63270000D01*
X62270000Y-66020000D02*
X61270000Y-66270000D01*
X62270000Y-65520000D02*
X62270000Y-66020000D01*
X62620000Y-65520000D02*
X62270000Y-65520000D01*
X62620000Y-66270000D02*
X62620000Y-65520000D01*
X66920000Y-66270000D02*
X62620000Y-66270000D01*
X66920000Y-65520000D02*
X66920000Y-66270000D01*
X60310000Y-57040000D02*
X60310000Y-67420000D01*
X67780000Y-57040000D02*
X60310000Y-57040000D01*
X67780000Y-67420000D02*
X67780000Y-57040000D01*
X60310000Y-67420000D02*
X67780000Y-67420000D01*
X66919845Y-58940353D02*
G75*
G03X66920000Y-60440000I1700155J-749647D01*
G01*
X66919845Y-64020353D02*
G75*
G03X66920000Y-65520000I1700155J-749647D01*
G01*
G04 #@! TO.C,J2*
X59920000Y-83177000D02*
X59920000Y-81177000D01*
X61170000Y-83177000D02*
X59920000Y-83177000D01*
X66920000Y-73557000D02*
X66920000Y-74307000D01*
X62620000Y-73557000D02*
X66920000Y-73557000D01*
X62620000Y-74307000D02*
X62620000Y-73557000D01*
X62270000Y-74307000D02*
X62620000Y-74307000D01*
X62270000Y-73807000D02*
X62270000Y-74307000D01*
X61270000Y-73557000D02*
X62270000Y-73807000D01*
X61270000Y-76557000D02*
X61270000Y-73557000D01*
X62270000Y-76307000D02*
X61270000Y-76557000D01*
X62270000Y-75807000D02*
X62270000Y-76307000D01*
X62620000Y-75807000D02*
X62270000Y-75807000D01*
X62620000Y-76557000D02*
X62620000Y-75807000D01*
X66920000Y-76557000D02*
X62620000Y-76557000D01*
X66920000Y-75807000D02*
X66920000Y-76557000D01*
X66920000Y-78637000D02*
X66920000Y-79387000D01*
X62620000Y-78637000D02*
X66920000Y-78637000D01*
X62620000Y-79387000D02*
X62620000Y-78637000D01*
X62270000Y-79387000D02*
X62620000Y-79387000D01*
X62270000Y-78887000D02*
X62270000Y-79387000D01*
X61270000Y-78637000D02*
X62270000Y-78887000D01*
X61270000Y-81637000D02*
X61270000Y-78637000D01*
X62270000Y-81387000D02*
X61270000Y-81637000D01*
X62270000Y-80887000D02*
X62270000Y-81387000D01*
X62620000Y-80887000D02*
X62270000Y-80887000D01*
X62620000Y-81637000D02*
X62620000Y-80887000D01*
X66920000Y-81637000D02*
X62620000Y-81637000D01*
X66920000Y-80887000D02*
X66920000Y-81637000D01*
X60310000Y-72407000D02*
X60310000Y-82787000D01*
X67780000Y-72407000D02*
X60310000Y-72407000D01*
X67780000Y-82787000D02*
X67780000Y-72407000D01*
X60310000Y-82787000D02*
X67780000Y-82787000D01*
X66919845Y-74307353D02*
G75*
G03X66920000Y-75807000I1700155J-749647D01*
G01*
X66919845Y-79387353D02*
G75*
G03X66920000Y-80887000I1700155J-749647D01*
G01*
D11*
G04 #@! TO.C,PS1*
X68217000Y-85792000D02*
X102217000Y-85792000D01*
X68217000Y-65592000D02*
X102217000Y-65592000D01*
X102217000Y-85792000D02*
X102217000Y-65592000D01*
X68217000Y-85792000D02*
X68217000Y-65592000D01*
D10*
G04 #@! TO.C,Q1*
X76994000Y-90097000D02*
X78504000Y-90097000D01*
X76994000Y-93798000D02*
X78504000Y-93798000D01*
X78504000Y-97068000D02*
X78504000Y-86828000D01*
X76994000Y-86828000D02*
X81635000Y-86828000D01*
X76994000Y-97068000D02*
X81635000Y-97068000D01*
X81635000Y-97068000D02*
X81635000Y-86828000D01*
X76994000Y-97068000D02*
X76994000Y-86828000D01*
G04 #@! TO.C,R1*
X73557000Y-51689000D02*
X74327000Y-51689000D01*
X81637000Y-51689000D02*
X80867000Y-51689000D01*
X74327000Y-53059000D02*
X80867000Y-53059000D01*
X74327000Y-50319000D02*
X74327000Y-53059000D01*
X80867000Y-50319000D02*
X74327000Y-50319000D01*
X80867000Y-53059000D02*
X80867000Y-50319000D01*
G04 #@! TO.C,R2*
X73557000Y-55245000D02*
X74327000Y-55245000D01*
X81637000Y-55245000D02*
X80867000Y-55245000D01*
X74327000Y-56615000D02*
X80867000Y-56615000D01*
X74327000Y-53875000D02*
X74327000Y-56615000D01*
X80867000Y-53875000D02*
X74327000Y-53875000D01*
X80867000Y-56615000D02*
X80867000Y-53875000D01*
G04 #@! TO.C,R3*
X81764000Y-62992000D02*
X80994000Y-62992000D01*
X73684000Y-62992000D02*
X74454000Y-62992000D01*
X80994000Y-61622000D02*
X74454000Y-61622000D01*
X80994000Y-64362000D02*
X80994000Y-61622000D01*
X74454000Y-64362000D02*
X80994000Y-64362000D01*
X74454000Y-61622000D02*
X74454000Y-64362000D01*
G04 #@! TO.C,R4*
X73684000Y-59436000D02*
X74454000Y-59436000D01*
X81764000Y-59436000D02*
X80994000Y-59436000D01*
X74454000Y-60806000D02*
X80994000Y-60806000D01*
X74454000Y-58066000D02*
X74454000Y-60806000D01*
X80994000Y-58066000D02*
X74454000Y-58066000D01*
X80994000Y-60806000D02*
X80994000Y-58066000D01*
G04 #@! TO.C,R7*
X62230000Y-87527000D02*
X62230000Y-88297000D01*
X62230000Y-95607000D02*
X62230000Y-94837000D01*
X60860000Y-88297000D02*
X60860000Y-94837000D01*
X63600000Y-88297000D02*
X60860000Y-88297000D01*
X63600000Y-94837000D02*
X63600000Y-88297000D01*
X60860000Y-94837000D02*
X63600000Y-94837000D01*
G04 #@! TO.C,R8*
X71882000Y-88289000D02*
X71882000Y-89059000D01*
X71882000Y-96369000D02*
X71882000Y-95599000D01*
X70512000Y-89059000D02*
X70512000Y-95599000D01*
X73252000Y-89059000D02*
X70512000Y-89059000D01*
X73252000Y-95599000D02*
X73252000Y-89059000D01*
X70512000Y-95599000D02*
X73252000Y-95599000D01*
G04 #@! TO.C,R9*
X89027000Y-98147000D02*
X89027000Y-97377000D01*
X89027000Y-90067000D02*
X89027000Y-90837000D01*
X90397000Y-97377000D02*
X90397000Y-90837000D01*
X87657000Y-97377000D02*
X90397000Y-97377000D01*
X87657000Y-90837000D02*
X87657000Y-97377000D01*
X90397000Y-90837000D02*
X87657000Y-90837000D01*
G04 #@! TO.C,U1*
X99297000Y-50867000D02*
X97647000Y-50867000D01*
X99297000Y-56067000D02*
X99297000Y-50867000D01*
X93997000Y-56067000D02*
X99297000Y-56067000D01*
X93997000Y-50867000D02*
X93997000Y-56067000D01*
X95647000Y-50867000D02*
X93997000Y-50867000D01*
X97647000Y-50867000D02*
G75*
G02X95647000Y-50867000I-1000000J0D01*
G01*
G04 #@! TO.C,C2*
X76339000Y-98268000D02*
X76339000Y-97212000D01*
X76339000Y-100654000D02*
X76339000Y-99598000D01*
X85579000Y-98268000D02*
X85579000Y-97212000D01*
X85579000Y-100654000D02*
X85579000Y-99598000D01*
X85579000Y-97212000D02*
X76339000Y-97212000D01*
X85579000Y-100654000D02*
X76339000Y-100654000D01*
G04 #@! TO.C,U2*
D12*
X114152094Y-51882379D02*
X114152094Y-52691903D01*
X114199713Y-52787141D01*
X114247332Y-52834760D01*
X114342570Y-52882379D01*
X114533046Y-52882379D01*
X114628284Y-52834760D01*
X114675903Y-52787141D01*
X114723522Y-52691903D01*
X114723522Y-51882379D01*
X115152094Y-51977618D02*
X115199713Y-51929999D01*
X115294951Y-51882379D01*
X115533046Y-51882379D01*
X115628284Y-51929999D01*
X115675903Y-51977618D01*
X115723522Y-52072856D01*
X115723522Y-52168094D01*
X115675903Y-52310951D01*
X115104475Y-52882379D01*
X115723522Y-52882379D01*
G04 #@! TO.C,U3*
X98171095Y-96905380D02*
X98171095Y-97714904D01*
X98218714Y-97810142D01*
X98266333Y-97857761D01*
X98361571Y-97905380D01*
X98552047Y-97905380D01*
X98647285Y-97857761D01*
X98694904Y-97810142D01*
X98742523Y-97714904D01*
X98742523Y-96905380D01*
X99123476Y-96905380D02*
X99742523Y-96905380D01*
X99409190Y-97286333D01*
X99552047Y-97286333D01*
X99647285Y-97333952D01*
X99694904Y-97381571D01*
X99742523Y-97476809D01*
X99742523Y-97714904D01*
X99694904Y-97810142D01*
X99647285Y-97857761D01*
X99552047Y-97905380D01*
X99266333Y-97905380D01*
X99171095Y-97857761D01*
X99123476Y-97810142D01*
G04 #@! TO.C,C1*
X66016142Y-97067666D02*
X66063761Y-97115285D01*
X66111380Y-97258142D01*
X66111380Y-97353380D01*
X66063761Y-97496238D01*
X65968523Y-97591476D01*
X65873285Y-97639095D01*
X65682809Y-97686714D01*
X65539952Y-97686714D01*
X65349476Y-97639095D01*
X65254238Y-97591476D01*
X65159000Y-97496238D01*
X65111380Y-97353380D01*
X65111380Y-97258142D01*
X65159000Y-97115285D01*
X65206619Y-97067666D01*
X66111380Y-96115285D02*
X66111380Y-96686714D01*
X66111380Y-96401000D02*
X65111380Y-96401000D01*
X65254238Y-96496238D01*
X65349476Y-96591476D01*
X65397095Y-96686714D01*
G04 #@! TO.C,J1*
X61301380Y-56086333D02*
X62015666Y-56086333D01*
X62158523Y-56133952D01*
X62253761Y-56229190D01*
X62301380Y-56372047D01*
X62301380Y-56467285D01*
X62301380Y-55086333D02*
X62301380Y-55657761D01*
X62301380Y-55372047D02*
X61301380Y-55372047D01*
X61444238Y-55467285D01*
X61539476Y-55562523D01*
X61587095Y-55657761D01*
G04 #@! TO.C,J2*
X60920380Y-71453333D02*
X61634666Y-71453333D01*
X61777523Y-71500952D01*
X61872761Y-71596190D01*
X61920380Y-71739047D01*
X61920380Y-71834285D01*
X61015619Y-71024761D02*
X60968000Y-70977142D01*
X60920380Y-70881904D01*
X60920380Y-70643809D01*
X60968000Y-70548571D01*
X61015619Y-70500952D01*
X61110857Y-70453333D01*
X61206095Y-70453333D01*
X61348952Y-70500952D01*
X61920380Y-71072380D01*
X61920380Y-70453333D01*
G04 #@! TO.C,PS1*
D13*
X84124142Y-76144380D02*
X84124142Y-75144380D01*
X84467000Y-75144380D01*
X84552714Y-75192000D01*
X84595571Y-75239619D01*
X84638428Y-75334857D01*
X84638428Y-75477714D01*
X84595571Y-75572952D01*
X84552714Y-75620571D01*
X84467000Y-75668190D01*
X84124142Y-75668190D01*
X84981285Y-76096761D02*
X85109857Y-76144380D01*
X85324142Y-76144380D01*
X85409857Y-76096761D01*
X85452714Y-76049142D01*
X85495571Y-75953904D01*
X85495571Y-75858666D01*
X85452714Y-75763428D01*
X85409857Y-75715809D01*
X85324142Y-75668190D01*
X85152714Y-75620571D01*
X85067000Y-75572952D01*
X85024142Y-75525333D01*
X84981285Y-75430095D01*
X84981285Y-75334857D01*
X85024142Y-75239619D01*
X85067000Y-75192000D01*
X85152714Y-75144380D01*
X85367000Y-75144380D01*
X85495571Y-75192000D01*
X86352714Y-76144380D02*
X85838428Y-76144380D01*
X86095571Y-76144380D02*
X86095571Y-75144380D01*
X86009857Y-75287238D01*
X85924142Y-75382476D01*
X85838428Y-75430095D01*
X80309857Y-76144380D02*
X80309857Y-75144380D01*
X80309857Y-75620571D02*
X80824142Y-75620571D01*
X80824142Y-76144380D02*
X80824142Y-75144380D01*
X81681285Y-76144380D02*
X81252714Y-76144380D01*
X81252714Y-75144380D01*
X81981285Y-76144380D02*
X81981285Y-75144380D01*
X82495571Y-76144380D02*
X82109857Y-75572952D01*
X82495571Y-75144380D02*
X81981285Y-75715809D01*
X82881285Y-75763428D02*
X83567000Y-75763428D01*
X83995571Y-76144380D02*
X83995571Y-75144380D01*
X84338428Y-75144380D01*
X84424142Y-75192000D01*
X84467000Y-75239619D01*
X84509857Y-75334857D01*
X84509857Y-75477714D01*
X84467000Y-75572952D01*
X84424142Y-75620571D01*
X84338428Y-75668190D01*
X83995571Y-75668190D01*
X84895571Y-76144380D02*
X84895571Y-75144380D01*
X85195571Y-75858666D01*
X85495571Y-75144380D01*
X85495571Y-76144380D01*
X86095571Y-75144380D02*
X86181285Y-75144380D01*
X86267000Y-75192000D01*
X86309857Y-75239619D01*
X86352714Y-75334857D01*
X86395571Y-75525333D01*
X86395571Y-75763428D01*
X86352714Y-75953904D01*
X86309857Y-76049142D01*
X86267000Y-76096761D01*
X86181285Y-76144380D01*
X86095571Y-76144380D01*
X86009857Y-76096761D01*
X85967000Y-76049142D01*
X85924142Y-75953904D01*
X85881285Y-75763428D01*
X85881285Y-75525333D01*
X85924142Y-75334857D01*
X85967000Y-75239619D01*
X86009857Y-75192000D01*
X86095571Y-75144380D01*
X87252714Y-76144380D02*
X86738428Y-76144380D01*
X86995571Y-76144380D02*
X86995571Y-75144380D01*
X86909857Y-75287238D01*
X86824142Y-75382476D01*
X86738428Y-75430095D01*
X87895571Y-76525333D02*
X87852714Y-76477714D01*
X87767000Y-76334857D01*
X87724142Y-76239619D01*
X87681285Y-76096761D01*
X87638428Y-75858666D01*
X87638428Y-75668190D01*
X87681285Y-75430095D01*
X87724142Y-75287238D01*
X87767000Y-75192000D01*
X87852714Y-75049142D01*
X87895571Y-75001523D01*
X88409857Y-75144380D02*
X88495571Y-75144380D01*
X88581285Y-75192000D01*
X88624142Y-75239619D01*
X88667000Y-75334857D01*
X88709857Y-75525333D01*
X88709857Y-75763428D01*
X88667000Y-75953904D01*
X88624142Y-76049142D01*
X88581285Y-76096761D01*
X88495571Y-76144380D01*
X88409857Y-76144380D01*
X88324142Y-76096761D01*
X88281285Y-76049142D01*
X88238428Y-75953904D01*
X88195571Y-75763428D01*
X88195571Y-75525333D01*
X88238428Y-75334857D01*
X88281285Y-75239619D01*
X88324142Y-75192000D01*
X88409857Y-75144380D01*
X89009857Y-75144380D02*
X89567000Y-75144380D01*
X89267000Y-75525333D01*
X89395571Y-75525333D01*
X89481285Y-75572952D01*
X89524142Y-75620571D01*
X89567000Y-75715809D01*
X89567000Y-75953904D01*
X89524142Y-76049142D01*
X89481285Y-76096761D01*
X89395571Y-76144380D01*
X89138428Y-76144380D01*
X89052714Y-76096761D01*
X89009857Y-76049142D01*
X89867000Y-76525333D02*
X89909857Y-76477714D01*
X89995571Y-76334857D01*
X90038428Y-76239619D01*
X90081285Y-76096761D01*
X90124142Y-75858666D01*
X90124142Y-75668190D01*
X90081285Y-75430095D01*
X90038428Y-75287238D01*
X89995571Y-75192000D01*
X89909857Y-75049142D01*
X89867000Y-75001523D01*
X95883666Y-71063428D02*
X96645571Y-71063428D01*
X96978904Y-70444380D02*
X97312238Y-71444380D01*
X97645571Y-70444380D01*
X98169380Y-70444380D02*
X98359857Y-70444380D01*
X98455095Y-70492000D01*
X98550333Y-70587238D01*
X98597952Y-70777714D01*
X98597952Y-71111047D01*
X98550333Y-71301523D01*
X98455095Y-71396761D01*
X98359857Y-71444380D01*
X98169380Y-71444380D01*
X98074142Y-71396761D01*
X97978904Y-71301523D01*
X97931285Y-71111047D01*
X97931285Y-70777714D01*
X97978904Y-70587238D01*
X98074142Y-70492000D01*
X98169380Y-70444380D01*
X95883666Y-81763428D02*
X96645571Y-81763428D01*
X96264619Y-82144380D02*
X96264619Y-81382476D01*
X96978904Y-81144380D02*
X97312238Y-82144380D01*
X97645571Y-81144380D01*
X98169380Y-81144380D02*
X98359857Y-81144380D01*
X98455095Y-81192000D01*
X98550333Y-81287238D01*
X98597952Y-81477714D01*
X98597952Y-81811047D01*
X98550333Y-82001523D01*
X98455095Y-82096761D01*
X98359857Y-82144380D01*
X98169380Y-82144380D01*
X98074142Y-82096761D01*
X97978904Y-82001523D01*
X97931285Y-81811047D01*
X97931285Y-81477714D01*
X97978904Y-81287238D01*
X98074142Y-81192000D01*
X98169380Y-81144380D01*
X68578904Y-76558666D02*
X69055095Y-76558666D01*
X68483666Y-76844380D02*
X68817000Y-75844380D01*
X69150333Y-76844380D01*
X70055095Y-76749142D02*
X70007476Y-76796761D01*
X69864619Y-76844380D01*
X69769380Y-76844380D01*
X69626523Y-76796761D01*
X69531285Y-76701523D01*
X69483666Y-76606285D01*
X69436047Y-76415809D01*
X69436047Y-76272952D01*
X69483666Y-76082476D01*
X69531285Y-75987238D01*
X69626523Y-75892000D01*
X69769380Y-75844380D01*
X69864619Y-75844380D01*
X70007476Y-75892000D01*
X70055095Y-75939619D01*
G04 #@! TO.C,Q1*
D12*
X76541619Y-92043238D02*
X76494000Y-92138476D01*
X76398761Y-92233714D01*
X76255904Y-92376571D01*
X76208285Y-92471809D01*
X76208285Y-92567047D01*
X76446380Y-92519428D02*
X76398761Y-92614666D01*
X76303523Y-92709904D01*
X76113047Y-92757523D01*
X75779714Y-92757523D01*
X75589238Y-92709904D01*
X75494000Y-92614666D01*
X75446380Y-92519428D01*
X75446380Y-92328952D01*
X75494000Y-92233714D01*
X75589238Y-92138476D01*
X75779714Y-92090857D01*
X76113047Y-92090857D01*
X76303523Y-92138476D01*
X76398761Y-92233714D01*
X76446380Y-92328952D01*
X76446380Y-92519428D01*
X76446380Y-91138476D02*
X76446380Y-91709904D01*
X76446380Y-91424190D02*
X75446380Y-91424190D01*
X75589238Y-91519428D01*
X75684476Y-91614666D01*
X75732095Y-91709904D01*
G04 #@! TO.C,R1*
X84796333Y-52141380D02*
X84463000Y-51665190D01*
X84224904Y-52141380D02*
X84224904Y-51141380D01*
X84605857Y-51141380D01*
X84701095Y-51189000D01*
X84748714Y-51236619D01*
X84796333Y-51331857D01*
X84796333Y-51474714D01*
X84748714Y-51569952D01*
X84701095Y-51617571D01*
X84605857Y-51665190D01*
X84224904Y-51665190D01*
X85748714Y-52141380D02*
X85177285Y-52141380D01*
X85463000Y-52141380D02*
X85463000Y-51141380D01*
X85367761Y-51284238D01*
X85272523Y-51379476D01*
X85177285Y-51427095D01*
G04 #@! TO.C,R2*
X84796333Y-55570380D02*
X84463000Y-55094190D01*
X84224904Y-55570380D02*
X84224904Y-54570380D01*
X84605857Y-54570380D01*
X84701095Y-54618000D01*
X84748714Y-54665619D01*
X84796333Y-54760857D01*
X84796333Y-54903714D01*
X84748714Y-54998952D01*
X84701095Y-55046571D01*
X84605857Y-55094190D01*
X84224904Y-55094190D01*
X85177285Y-54665619D02*
X85224904Y-54618000D01*
X85320142Y-54570380D01*
X85558238Y-54570380D01*
X85653476Y-54618000D01*
X85701095Y-54665619D01*
X85748714Y-54760857D01*
X85748714Y-54856095D01*
X85701095Y-54998952D01*
X85129666Y-55570380D01*
X85748714Y-55570380D01*
G04 #@! TO.C,R3*
X85558333Y-63571380D02*
X85225000Y-63095190D01*
X84986904Y-63571380D02*
X84986904Y-62571380D01*
X85367857Y-62571380D01*
X85463095Y-62619000D01*
X85510714Y-62666619D01*
X85558333Y-62761857D01*
X85558333Y-62904714D01*
X85510714Y-62999952D01*
X85463095Y-63047571D01*
X85367857Y-63095190D01*
X84986904Y-63095190D01*
X85891666Y-62571380D02*
X86510714Y-62571380D01*
X86177380Y-62952333D01*
X86320238Y-62952333D01*
X86415476Y-62999952D01*
X86463095Y-63047571D01*
X86510714Y-63142809D01*
X86510714Y-63380904D01*
X86463095Y-63476142D01*
X86415476Y-63523761D01*
X86320238Y-63571380D01*
X86034523Y-63571380D01*
X85939285Y-63523761D01*
X85891666Y-63476142D01*
G04 #@! TO.C,R4*
X85431333Y-59888380D02*
X85098000Y-59412190D01*
X84859904Y-59888380D02*
X84859904Y-58888380D01*
X85240857Y-58888380D01*
X85336095Y-58936000D01*
X85383714Y-58983619D01*
X85431333Y-59078857D01*
X85431333Y-59221714D01*
X85383714Y-59316952D01*
X85336095Y-59364571D01*
X85240857Y-59412190D01*
X84859904Y-59412190D01*
X86288476Y-59221714D02*
X86288476Y-59888380D01*
X86050380Y-58840761D02*
X85812285Y-59555047D01*
X86431333Y-59555047D01*
G04 #@! TO.C,R7*
X60142380Y-91733666D02*
X59666190Y-92067000D01*
X60142380Y-92305095D02*
X59142380Y-92305095D01*
X59142380Y-91924142D01*
X59190000Y-91828904D01*
X59237619Y-91781285D01*
X59332857Y-91733666D01*
X59475714Y-91733666D01*
X59570952Y-91781285D01*
X59618571Y-91828904D01*
X59666190Y-91924142D01*
X59666190Y-92305095D01*
X59142380Y-91400333D02*
X59142380Y-90733666D01*
X60142380Y-91162238D01*
G04 #@! TO.C,R8*
X69964380Y-92495666D02*
X69488190Y-92829000D01*
X69964380Y-93067095D02*
X68964380Y-93067095D01*
X68964380Y-92686142D01*
X69012000Y-92590904D01*
X69059619Y-92543285D01*
X69154857Y-92495666D01*
X69297714Y-92495666D01*
X69392952Y-92543285D01*
X69440571Y-92590904D01*
X69488190Y-92686142D01*
X69488190Y-93067095D01*
X69392952Y-91924238D02*
X69345333Y-92019476D01*
X69297714Y-92067095D01*
X69202476Y-92114714D01*
X69154857Y-92114714D01*
X69059619Y-92067095D01*
X69012000Y-92019476D01*
X68964380Y-91924238D01*
X68964380Y-91733761D01*
X69012000Y-91638523D01*
X69059619Y-91590904D01*
X69154857Y-91543285D01*
X69202476Y-91543285D01*
X69297714Y-91590904D01*
X69345333Y-91638523D01*
X69392952Y-91733761D01*
X69392952Y-91924238D01*
X69440571Y-92019476D01*
X69488190Y-92067095D01*
X69583428Y-92114714D01*
X69773904Y-92114714D01*
X69869142Y-92067095D01*
X69916761Y-92019476D01*
X69964380Y-91924238D01*
X69964380Y-91733761D01*
X69916761Y-91638523D01*
X69869142Y-91590904D01*
X69773904Y-91543285D01*
X69583428Y-91543285D01*
X69488190Y-91590904D01*
X69440571Y-91638523D01*
X69392952Y-91733761D01*
G04 #@! TO.C,R9*
X91849380Y-94273666D02*
X91373190Y-94607000D01*
X91849380Y-94845095D02*
X90849380Y-94845095D01*
X90849380Y-94464142D01*
X90897000Y-94368904D01*
X90944619Y-94321285D01*
X91039857Y-94273666D01*
X91182714Y-94273666D01*
X91277952Y-94321285D01*
X91325571Y-94368904D01*
X91373190Y-94464142D01*
X91373190Y-94845095D01*
X91849380Y-93797476D02*
X91849380Y-93607000D01*
X91801761Y-93511761D01*
X91754142Y-93464142D01*
X91611285Y-93368904D01*
X91420809Y-93321285D01*
X91039857Y-93321285D01*
X90944619Y-93368904D01*
X90897000Y-93416523D01*
X90849380Y-93511761D01*
X90849380Y-93702238D01*
X90897000Y-93797476D01*
X90944619Y-93845095D01*
X91039857Y-93892714D01*
X91277952Y-93892714D01*
X91373190Y-93845095D01*
X91420809Y-93797476D01*
X91468428Y-93702238D01*
X91468428Y-93511761D01*
X91420809Y-93416523D01*
X91373190Y-93368904D01*
X91277952Y-93321285D01*
G04 #@! TO.C,U1*
X99822095Y-56983380D02*
X99822095Y-57792904D01*
X99869714Y-57888142D01*
X99917333Y-57935761D01*
X100012571Y-57983380D01*
X100203047Y-57983380D01*
X100298285Y-57935761D01*
X100345904Y-57888142D01*
X100393523Y-57792904D01*
X100393523Y-56983380D01*
X101393523Y-57983380D02*
X100822095Y-57983380D01*
X101107809Y-57983380D02*
X101107809Y-56983380D01*
X101012571Y-57126238D01*
X100917333Y-57221476D01*
X100822095Y-57269095D01*
G04 #@! TO.C,C2*
X80792333Y-102140142D02*
X80744714Y-102187761D01*
X80601857Y-102235380D01*
X80506619Y-102235380D01*
X80363761Y-102187761D01*
X80268523Y-102092523D01*
X80220904Y-101997285D01*
X80173285Y-101806809D01*
X80173285Y-101663952D01*
X80220904Y-101473476D01*
X80268523Y-101378238D01*
X80363761Y-101283000D01*
X80506619Y-101235380D01*
X80601857Y-101235380D01*
X80744714Y-101283000D01*
X80792333Y-101330619D01*
X81173285Y-101330619D02*
X81220904Y-101283000D01*
X81316142Y-101235380D01*
X81554238Y-101235380D01*
X81649476Y-101283000D01*
X81697095Y-101330619D01*
X81744714Y-101425857D01*
X81744714Y-101521095D01*
X81697095Y-101663952D01*
X81125666Y-102235380D01*
X81744714Y-102235380D01*
G04 #@! TD*
M02*
